{"glyphs":{"0":{"ha":908,"x_min":68,"x_max":840,"o":"m 454 -17 q 240 50 325 -17 q 111 231 154 117 q 68 492 68 346 q 110 753 68 638 q 239 935 153 868 q 454 1003 325 1003 q 669 935 583 1003 q 798 753 756 868 q 840 492 840 638 q 797 231 840 346 q 669 50 754 117 q 454 -17 583 -17 m 454 79 q 602 128 543 79 q 690 260 661 176 q 719 447 719 343 l 719 539 q 690 726 719 643 q 602 858 661 810 q 454 907 543 907 q 306 858 365 907 q 218 726 247 810 q 189 539 189 643 l 189 447 q 218 260 189 343 q 306 128 247 176 q 454 79 365 79 z "},"1":{"ha":451,"x_min":24,"x_max":340,"o":"m 221 0 l 221 775 l 24 775 l 24 851 l 121 864 q 191 883 167 869 q 230 922 215 897 q 256 986 244 947 l 340 986 l 340 0 l 221 0 z "},"2":{"ha":764,"x_min":56,"x_max":704,"o":"m 69 0 l 69 88 l 396 419 q 488 517 449 474 q 550 609 528 561 q 572 719 572 657 q 524 858 572 806 q 374 911 476 911 q 211 840 261 911 q 169 644 161 768 l 61 650 q 92 838 56 758 q 201 960 128 917 q 376 1003 274 1003 q 607 926 525 1003 q 689 719 689 850 q 663 584 689 643 q 591 472 636 525 q 486 358 546 419 l 229 97 l 704 97 l 704 0 l 69 0 z "},"3":{"ha":801,"x_min":58,"x_max":732,"o":"m 399 -17 q 218 23 292 -17 q 105 131 144 63 q 58 286 65 199 l 163 294 q 231 132 174 190 q 397 74 288 74 q 564 129 510 74 q 618 269 618 185 q 562 407 618 356 q 407 458 506 458 l 268 458 l 268 553 l 407 553 q 553 606 506 553 q 601 733 601 660 q 542 870 601 828 q 392 913 483 913 q 230 858 282 913 q 171 710 178 803 l 67 717 q 113 863 74 799 q 224 965 153 928 q 400 1003 296 1003 q 572 968 501 1003 q 678 874 642 933 q 715 740 715 815 q 662 589 715 646 q 532 508 608 532 l 532 507 q 628 465 583 496 q 703 385 674 435 q 732 265 732 336 q 696 128 732 193 q 585 24 660 64 q 399 -17 511 -17 z "},"4":{"ha":853,"x_min":44,"x_max":824,"o":"m 44 235 l 44 325 l 493 986 l 646 986 l 646 332 l 824 332 l 824 235 l 646 235 l 646 0 l 528 0 l 528 235 l 44 235 m 167 332 l 528 332 l 528 865 l 167 332 z "},"5":{"ha":792,"x_min":57,"x_max":739,"o":"m 394 -17 q 221 22 294 -17 q 106 127 147 61 q 57 274 64 193 l 165 282 q 239 133 179 192 q 396 74 299 74 q 521 108 471 74 q 595 199 571 142 q 619 326 619 257 q 594 451 619 394 q 522 540 569 507 q 404 574 474 574 q 269 534 322 574 q 183 435 215 494 l 92 451 l 118 986 l 682 986 l 682 889 l 218 889 l 201 575 q 293 640 238 613 q 424 668 349 668 q 588 623 517 668 q 699 501 658 578 q 739 326 739 424 q 698 154 739 232 q 580 30 657 76 q 394 -17 503 -17 z "},"6":{"ha":839,"x_min":68,"x_max":776,"o":"m 439 -17 q 240 42 324 -17 q 113 209 157 101 q 68 463 68 317 q 89 653 68 557 q 156 828 110 749 q 279 955 203 907 q 467 1003 356 1003 q 621 968 560 1003 q 718 879 682 933 q 768 765 754 825 l 665 743 q 597 864 643 815 q 458 913 550 913 q 308 858 367 913 q 219 706 249 804 q 186 475 190 608 q 301 591 228 551 q 456 631 374 631 q 633 583 561 631 q 740 463 704 536 q 776 311 776 389 q 735 147 776 221 q 619 28 694 72 q 439 -17 544 -17 m 444 74 q 564 108 515 74 q 638 197 613 143 q 663 307 663 251 q 638 417 663 364 q 563 506 613 471 q 436 540 513 540 q 324 515 376 540 q 239 439 271 490 q 207 306 207 388 q 235 192 207 246 q 316 106 263 139 q 444 74 369 74 z "},"7":{"ha":690,"x_min":18,"x_max":664,"o":"m 157 0 l 533 889 l 18 889 l 18 986 l 664 986 l 664 917 l 276 0 l 157 0 z "},"8":{"ha":817,"x_min":64,"x_max":753,"o":"m 408 -17 q 238 13 317 -17 q 112 104 160 43 q 64 258 64 165 q 122 414 64 356 q 265 511 179 472 q 141 615 178 556 q 104 750 104 675 q 146 892 104 836 q 257 975 188 947 q 408 1003 326 1003 q 560 977 490 1004 q 671 897 629 950 q 713 761 713 843 q 674 619 713 681 q 551 513 636 558 q 694 421 636 481 q 753 258 753 361 q 705 105 753 165 q 579 15 657 44 q 408 -17 501 -15 m 353 585 l 446 551 q 565 649 532 596 q 597 760 597 701 q 551 870 597 828 q 408 913 504 913 q 266 870 313 913 q 219 760 219 828 q 353 585 219 633 m 178 249 q 211 147 178 186 q 297 91 244 108 q 408 74 350 74 q 520 92 468 75 q 606 148 572 110 q 639 249 639 186 q 592 371 639 331 q 475 435 544 411 l 376 468 q 226 378 275 431 q 178 249 178 325 z "},"9":{"ha":822,"x_min":57,"x_max":753,"o":"m 389 -17 q 230 17 293 -17 q 131 100 167 50 q 82 199 96 150 l 182 229 q 222 153 197 189 q 286 95 246 117 q 388 74 326 74 q 535 128 479 74 q 616 281 592 182 q 638 513 640 379 q 525 406 594 442 q 372 369 456 369 q 234 397 293 369 q 135 469 175 424 q 76 568 96 514 q 57 675 57 622 q 97 840 57 765 q 210 958 138 914 q 382 1003 283 1003 q 663 871 572 1003 q 753 511 753 739 q 736 319 753 414 q 679 149 719 225 q 568 28 639 74 q 389 -17 497 -17 m 385 460 q 498 484 446 460 q 582 558 550 508 q 614 681 614 607 q 586 794 614 742 q 507 880 558 847 q 382 913 456 913 q 268 881 315 913 q 196 795 221 849 q 171 679 171 742 q 195 571 171 621 q 267 490 219 521 q 385 460 315 460 z "},"A":{"ha":907,"x_min":14,"x_max":893,"o":"m 14 0 l 383 986 l 524 986 l 893 0 l 767 0 l 667 275 l 236 275 l 136 0 l 14 0 m 268 371 l 635 371 l 451 874 l 268 371 z "},"Á":{"ha":907,"x_min":14,"x_max":893,"o":"m 14 0 l 383 986 l 524 986 l 893 0 l 767 0 l 667 275 l 236 275 l 136 0 l 14 0 m 268 371 l 635 371 l 451 874 l 268 371 m 483 1067 l 406 1081 l 535 1268 l 622 1240 l 483 1067 z "},"Ă":{"ha":907,"x_min":14,"x_max":893,"o":"m 14 0 l 383 986 l 524 986 l 893 0 l 767 0 l 667 275 l 236 275 l 136 0 l 14 0 m 268 371 l 635 371 l 451 874 l 268 371 m 454 1081 q 310 1130 367 1081 q 249 1261 253 1179 l 338 1261 q 367 1187 342 1222 q 454 1151 393 1151 q 541 1187 515 1151 q 571 1261 567 1222 l 660 1261 q 599 1130 656 1179 q 454 1081 542 1081 z "},"Â":{"ha":907,"x_min":14,"x_max":893,"o":"m 14 0 l 383 986 l 524 986 l 893 0 l 767 0 l 667 275 l 236 275 l 136 0 l 14 0 m 268 371 l 635 371 l 451 874 l 268 371 m 254 1067 l 406 1247 l 503 1247 l 654 1067 l 557 1067 l 456 1189 l 351 1067 l 254 1067 z "},"Ä":{"ha":907,"x_min":14,"x_max":893,"o":"m 14 0 l 383 986 l 524 986 l 893 0 l 767 0 l 667 275 l 236 275 l 136 0 l 14 0 m 268 371 l 635 371 l 451 874 l 268 371 m 510 1119 l 510 1244 l 625 1244 l 625 1119 l 510 1119 m 283 1119 l 283 1244 l 399 1244 l 399 1119 l 283 1119 z "},"À":{"ha":907,"x_min":14,"x_max":893,"o":"m 14 0 l 383 986 l 524 986 l 893 0 l 767 0 l 667 275 l 236 275 l 136 0 l 14 0 m 268 371 l 635 371 l 451 874 l 268 371 m 425 1067 l 286 1240 l 374 1268 l 503 1081 l 425 1067 z "},"Ā":{"ha":907,"x_min":14,"x_max":893,"o":"m 14 0 l 383 986 l 524 986 l 893 0 l 767 0 l 667 275 l 236 275 l 136 0 l 14 0 m 268 371 l 635 371 l 451 874 l 268 371 m 224 1104 l 224 1181 l 683 1181 l 683 1104 l 224 1104 z "},"Ą":{"ha":907,"x_min":14,"x_max":893,"o":"m 882 -219 q 801 -221 846 -228 q 724 -187 756 -214 q 692 -111 692 -161 q 711 -42 692 -75 q 761 17 731 -10 l 667 275 l 236 275 l 136 0 l 14 0 l 383 986 l 524 986 l 893 0 l 840 0 q 794 -47 806 -26 q 783 -87 783 -68 q 816 -137 783 -126 q 882 -146 849 -149 l 882 -219 m 451 874 l 268 371 l 635 371 l 451 874 z "},"Å":{"ha":907,"x_min":14,"x_max":893,"o":"m 14 0 l 383 986 l 524 986 l 893 0 l 767 0 l 667 275 l 236 275 l 136 0 l 14 0 m 268 371 l 635 371 l 451 874 l 268 371 m 454 917 q 347 958 390 917 q 304 1061 304 1000 q 347 1165 304 1124 q 454 1207 390 1207 q 561 1165 518 1207 q 604 1061 604 1124 q 561 958 604 1000 q 454 917 518 917 m 454 986 q 507 1008 486 986 q 528 1061 528 1029 q 507 1117 528 1096 q 454 1138 486 1138 q 401 1117 422 1138 q 381 1061 381 1096 q 401 1008 381 1029 q 454 986 422 986 z "},"Ã":{"ha":907,"x_min":14,"x_max":893,"o":"m 14 0 l 383 986 l 524 986 l 893 0 l 767 0 l 667 275 l 236 275 l 136 0 l 14 0 m 268 371 l 635 371 l 451 874 l 268 371 m 528 1097 q 466 1115 492 1097 q 419 1151 440 1133 q 375 1169 399 1169 q 344 1153 357 1169 q 329 1106 332 1138 l 257 1106 q 299 1208 265 1175 q 375 1242 333 1242 q 442 1224 417 1242 q 489 1188 468 1206 q 535 1169 510 1169 q 565 1188 554 1169 q 576 1233 575 1206 l 650 1233 q 604 1128 640 1160 q 528 1097 568 1097 z "},"Æ":{"ha":1326,"x_min":-12,"x_max":1269,"o":"m -12 0 l 442 986 l 1264 986 l 1264 889 l 767 889 l 767 554 l 1193 554 l 1193 457 l 767 457 l 767 97 l 1269 97 l 1269 0 l 647 0 l 647 275 l 236 275 l 113 0 l -12 0 m 278 371 l 647 371 l 647 889 l 510 889 l 278 371 z "},"Ǽ":{"ha":1326,"x_min":-12,"x_max":1269,"o":"m -12 0 l 442 986 l 1264 986 l 1264 889 l 767 889 l 767 554 l 1193 554 l 1193 457 l 767 457 l 767 97 l 1269 97 l 1269 0 l 647 0 l 647 275 l 236 275 l 113 0 l -12 0 m 278 371 l 647 371 l 647 889 l 510 889 l 278 371 m 836 1067 l 758 1081 l 888 1268 l 975 1240 l 836 1067 z "},"B":{"ha":872,"x_min":108,"x_max":814,"o":"m 108 0 l 108 986 l 485 986 q 649 951 585 986 q 743 860 713 917 q 774 739 774 804 q 738 603 774 663 q 632 515 701 544 q 770 426 726 492 q 814 274 814 360 q 781 138 814 200 q 680 38 749 75 q 504 0 611 0 l 108 0 m 481 889 l 228 889 l 228 556 l 481 556 q 613 603 572 556 q 654 722 654 650 l 654 736 q 613 847 654 804 q 481 889 571 889 m 228 97 l 500 97 q 647 144 599 97 q 694 271 694 192 l 694 286 q 647 412 694 361 q 500 463 600 463 l 228 463 l 228 97 z "},"C":{"ha":944,"x_min":63,"x_max":890,"o":"m 503 -17 q 268 49 367 -17 q 116 228 169 114 q 63 492 63 343 q 116 757 63 642 q 268 938 169 872 q 501 1003 367 1003 q 697 959 614 1003 q 828 837 779 915 q 890 656 878 758 l 778 651 q 683 845 756 783 q 504 907 610 907 q 337 858 408 907 q 226 722 265 808 q 188 521 188 635 l 188 465 q 226 265 188 353 q 337 128 265 178 q 504 79 408 79 q 685 142 613 79 q 779 325 757 204 l 890 321 q 828 146 876 222 q 697 26 779 69 q 503 -17 615 -17 z "},"Ć":{"ha":944,"x_min":63,"x_max":890,"o":"m 503 -17 q 268 49 367 -17 q 116 228 169 114 q 63 492 63 343 q 116 757 63 642 q 268 938 169 872 q 501 1003 367 1003 q 697 959 614 1003 q 828 837 779 915 q 890 656 878 758 l 778 651 q 683 845 756 783 q 504 907 610 907 q 337 858 408 907 q 226 722 265 808 q 188 521 188 635 l 188 465 q 226 265 188 353 q 337 128 265 178 q 504 79 408 79 q 685 142 613 79 q 779 325 757 204 l 890 321 q 828 146 876 222 q 697 26 779 69 q 503 -17 615 -17 m 525 1067 l 447 1081 l 576 1268 l 664 1240 l 525 1067 z "},"Č":{"ha":944,"x_min":63,"x_max":890,"o":"m 503 -17 q 268 49 367 -17 q 116 228 169 114 q 63 492 63 343 q 116 757 63 642 q 268 938 169 872 q 501 1003 367 1003 q 697 959 614 1003 q 828 837 779 915 q 890 656 878 758 l 778 651 q 683 845 756 783 q 504 907 610 907 q 337 858 408 907 q 226 722 265 808 q 188 521 188 635 l 188 465 q 226 265 188 353 q 337 128 265 178 q 504 79 408 79 q 685 142 613 79 q 779 325 757 204 l 890 321 q 828 146 876 222 q 697 26 779 69 q 503 -17 615 -17 m 447 1081 l 296 1261 l 393 1261 l 497 1139 l 599 1261 l 696 1261 l 544 1081 l 447 1081 z "},"Ç":{"ha":944,"x_min":63,"x_max":890,"o":"m 503 -17 q 268 49 367 -17 q 116 228 169 114 q 63 492 63 343 q 116 757 63 642 q 268 938 169 872 q 501 1003 367 1003 q 697 959 614 1003 q 828 837 779 915 q 890 656 878 758 l 778 651 q 683 845 756 783 q 504 907 610 907 q 337 858 408 907 q 226 722 265 808 q 188 521 188 635 l 188 465 q 226 265 188 353 q 337 128 265 178 q 504 79 408 79 q 685 142 613 79 q 779 325 757 204 l 890 321 q 828 146 876 222 q 697 26 779 69 q 503 -17 615 -17 m 493 -226 q 440 -224 463 -226 q 388 -215 418 -221 l 388 -144 q 458 -153 419 -150 q 525 -151 497 -157 q 553 -126 553 -146 q 528 -101 553 -108 q 443 -85 504 -93 l 446 3 l 526 3 l 528 -40 q 610 -65 576 -46 q 644 -129 644 -83 q 608 -200 644 -174 q 493 -226 571 -226 z "},"Ĉ":{"ha":944,"x_min":63,"x_max":890,"o":"m 503 -17 q 268 49 367 -17 q 116 228 169 114 q 63 492 63 343 q 116 757 63 642 q 268 938 169 872 q 501 1003 367 1003 q 697 959 614 1003 q 828 837 779 915 q 890 656 878 758 l 778 651 q 683 845 756 783 q 504 907 610 907 q 337 858 408 907 q 226 722 265 808 q 188 521 188 635 l 188 465 q 226 265 188 353 q 337 128 265 178 q 504 79 408 79 q 685 142 613 79 q 779 325 757 204 l 890 321 q 828 146 876 222 q 697 26 779 69 q 503 -17 615 -17 m 296 1067 l 447 1247 l 544 1247 l 696 1067 l 599 1067 l 497 1189 l 393 1067 l 296 1067 z "},"Ċ":{"ha":944,"x_min":63,"x_max":890,"o":"m 503 -17 q 268 49 367 -17 q 116 228 169 114 q 63 492 63 343 q 116 757 63 642 q 268 938 169 872 q 501 1003 367 1003 q 697 959 614 1003 q 828 837 779 915 q 890 656 878 758 l 778 651 q 683 845 756 783 q 504 907 610 907 q 337 858 408 907 q 226 722 265 808 q 188 521 188 635 l 188 465 q 226 265 188 353 q 337 128 265 178 q 504 79 408 79 q 685 142 613 79 q 779 325 757 204 l 890 321 q 828 146 876 222 q 697 26 779 69 q 503 -17 615 -17 m 438 1119 l 438 1244 l 553 1244 l 553 1119 l 438 1119 z "},"D":{"ha":950,"x_min":108,"x_max":889,"o":"m 108 0 l 108 986 l 419 986 q 682 922 578 986 q 838 745 786 857 q 889 493 889 633 q 838 241 889 353 q 682 65 786 129 q 419 0 578 0 l 108 0 m 228 97 l 429 97 q 619 145 544 97 q 732 277 694 193 q 769 467 769 361 l 769 519 q 732 710 769 626 q 619 841 694 793 q 429 889 544 889 l 228 889 l 228 97 z "},"Ď":{"ha":950,"x_min":108,"x_max":889,"o":"m 108 0 l 108 986 l 419 986 q 682 922 578 986 q 838 745 786 857 q 889 493 889 633 q 838 241 889 353 q 682 65 786 129 q 419 0 578 0 l 108 0 m 228 97 l 429 97 q 619 145 544 97 q 732 277 694 193 q 769 467 769 361 l 769 519 q 732 710 769 626 q 619 841 694 793 q 429 889 544 889 l 228 889 l 228 97 m 344 1081 l 193 1261 l 290 1261 l 394 1139 l 496 1261 l 593 1261 l 442 1081 l 344 1081 z "},"Đ":{"ha":981,"x_min":47,"x_max":919,"o":"m 139 0 l 139 447 l 47 447 l 47 539 l 139 539 l 139 986 l 450 986 q 713 922 608 986 q 868 745 817 857 q 919 493 919 633 q 868 241 919 353 q 713 65 817 129 q 450 0 608 0 l 139 0 m 258 97 l 460 97 q 650 145 575 97 q 763 277 725 193 q 800 467 800 361 l 800 519 q 763 710 800 626 q 650 841 725 793 q 460 889 575 889 l 258 889 l 258 539 l 442 539 l 442 447 l 258 447 l 258 97 z "},"Ð":{"ha":981,"x_min":47,"x_max":919,"o":"m 139 0 l 139 447 l 47 447 l 47 539 l 139 539 l 139 986 l 450 986 q 713 922 608 986 q 868 745 817 857 q 919 493 919 633 q 868 241 919 353 q 713 65 817 129 q 450 0 608 0 l 139 0 m 258 97 l 460 97 q 650 145 575 97 q 763 277 725 193 q 800 467 800 361 l 800 519 q 763 710 800 626 q 650 841 725 793 q 460 889 575 889 l 258 889 l 258 539 l 442 539 l 442 447 l 258 447 l 258 97 z "},"E":{"ha":788,"x_min":108,"x_max":731,"o":"m 108 0 l 108 986 l 725 986 l 725 889 l 228 889 l 228 554 l 654 554 l 654 457 l 228 457 l 228 97 l 731 97 l 731 0 l 108 0 z "},"É":{"ha":788,"x_min":108,"x_max":731,"o":"m 108 0 l 108 986 l 725 986 l 725 889 l 228 889 l 228 554 l 654 554 l 654 457 l 228 457 l 228 97 l 731 97 l 731 0 l 108 0 m 453 1067 l 375 1081 l 504 1268 l 592 1240 l 453 1067 z "},"Ĕ":{"ha":788,"x_min":108,"x_max":731,"o":"m 108 0 l 108 986 l 725 986 l 725 889 l 228 889 l 228 554 l 654 554 l 654 457 l 228 457 l 228 97 l 731 97 l 731 0 l 108 0 m 424 1081 q 279 1130 336 1081 q 218 1261 222 1179 l 307 1261 q 337 1187 311 1222 q 424 1151 363 1151 q 510 1187 485 1151 q 540 1261 536 1222 l 629 1261 q 568 1130 625 1179 q 424 1081 511 1081 z "},"Ě":{"ha":788,"x_min":108,"x_max":731,"o":"m 108 0 l 108 986 l 725 986 l 725 889 l 228 889 l 228 554 l 654 554 l 654 457 l 228 457 l 228 97 l 731 97 l 731 0 l 108 0 m 375 1081 l 224 1261 l 321 1261 l 425 1139 l 526 1261 l 624 1261 l 472 1081 l 375 1081 z "},"Ê":{"ha":788,"x_min":108,"x_max":731,"o":"m 108 0 l 108 986 l 725 986 l 725 889 l 228 889 l 228 554 l 654 554 l 654 457 l 228 457 l 228 97 l 731 97 l 731 0 l 108 0 m 224 1067 l 375 1247 l 472 1247 l 624 1067 l 526 1067 l 425 1189 l 321 1067 l 224 1067 z "},"Ë":{"ha":788,"x_min":108,"x_max":731,"o":"m 108 0 l 108 986 l 725 986 l 725 889 l 228 889 l 228 554 l 654 554 l 654 457 l 228 457 l 228 97 l 731 97 l 731 0 l 108 0 m 479 1119 l 479 1244 l 594 1244 l 594 1119 l 479 1119 m 253 1119 l 253 1244 l 368 1244 l 368 1119 l 253 1119 z "},"Ė":{"ha":788,"x_min":108,"x_max":731,"o":"m 108 0 l 108 986 l 725 986 l 725 889 l 228 889 l 228 554 l 654 554 l 654 457 l 228 457 l 228 97 l 731 97 l 731 0 l 108 0 m 365 1119 l 365 1244 l 481 1244 l 481 1119 l 365 1119 z "},"È":{"ha":788,"x_min":108,"x_max":731,"o":"m 108 0 l 108 986 l 725 986 l 725 889 l 228 889 l 228 554 l 654 554 l 654 457 l 228 457 l 228 97 l 731 97 l 731 0 l 108 0 m 394 1067 l 256 1240 l 343 1268 l 472 1081 l 394 1067 z "},"Ē":{"ha":788,"x_min":108,"x_max":731,"o":"m 108 0 l 108 986 l 725 986 l 725 889 l 228 889 l 228 554 l 654 554 l 654 457 l 228 457 l 228 97 l 731 97 l 731 0 l 108 0 m 193 1104 l 193 1181 l 653 1181 l 653 1104 l 193 1104 z "},"Ę":{"ha":788,"x_min":108,"x_max":731,"o":"m 108 0 l 108 986 l 725 986 l 725 889 l 228 889 l 228 554 l 654 554 l 654 457 l 228 457 l 228 97 l 731 97 l 731 0 l 108 0 m 722 -219 q 638 -222 683 -228 q 560 -190 593 -217 q 528 -111 528 -162 q 550 -47 528 -74 q 603 3 572 -21 l 603 15 l 694 0 q 646 -40 668 -19 q 624 -90 624 -61 q 656 -140 624 -129 q 722 -147 689 -150 l 722 -219 z "},"F":{"ha":703,"x_min":108,"x_max":660,"o":"m 108 0 l 108 986 l 660 986 l 660 886 l 228 886 l 228 519 l 632 519 l 632 419 l 228 419 l 228 0 l 108 0 z "},"G":{"ha":985,"x_min":63,"x_max":897,"o":"m 493 -17 q 264 49 361 -17 q 115 228 167 114 q 63 492 63 343 q 116 757 63 642 q 268 938 169 872 q 501 1003 367 1003 q 697 958 614 1003 q 828 835 779 914 q 890 650 878 756 l 778 646 q 683 844 756 782 q 504 907 610 907 q 337 858 408 907 q 226 722 265 808 q 188 521 188 635 l 188 465 q 226 265 188 353 q 337 128 265 178 q 504 79 408 79 q 712 157 638 79 q 786 365 786 235 l 786 394 l 506 394 l 506 490 l 897 490 l 897 0 l 797 0 l 788 144 q 676 28 751 74 q 493 -17 601 -17 z "},"Ğ":{"ha":985,"x_min":63,"x_max":897,"o":"m 493 -17 q 264 49 361 -17 q 115 228 167 114 q 63 492 63 343 q 116 757 63 642 q 268 938 169 872 q 501 1003 367 1003 q 697 958 614 1003 q 828 835 779 914 q 890 650 878 756 l 778 646 q 683 844 756 782 q 504 907 610 907 q 337 858 408 907 q 226 722 265 808 q 188 521 188 635 l 188 465 q 226 265 188 353 q 337 128 265 178 q 504 79 408 79 q 712 157 638 79 q 786 365 786 235 l 786 394 l 506 394 l 506 490 l 897 490 l 897 0 l 797 0 l 788 144 q 676 28 751 74 q 493 -17 601 -17 m 503 1081 q 358 1130 415 1081 q 297 1261 301 1179 l 386 1261 q 416 1187 390 1222 q 503 1151 442 1151 q 590 1187 564 1151 q 619 1261 615 1222 l 708 1261 q 647 1130 704 1179 q 503 1081 590 1081 z "},"Ĝ":{"ha":985,"x_min":63,"x_max":897,"o":"m 493 -17 q 264 49 361 -17 q 115 228 167 114 q 63 492 63 343 q 116 757 63 642 q 268 938 169 872 q 501 1003 367 1003 q 697 958 614 1003 q 828 835 779 914 q 890 650 878 756 l 778 646 q 683 844 756 782 q 504 907 610 907 q 337 858 408 907 q 226 722 265 808 q 188 521 188 635 l 188 465 q 226 265 188 353 q 337 128 265 178 q 504 79 408 79 q 712 157 638 79 q 786 365 786 235 l 786 394 l 506 394 l 506 490 l 897 490 l 897 0 l 797 0 l 788 144 q 676 28 751 74 q 493 -17 601 -17 m 303 1067 l 454 1247 l 551 1247 l 703 1067 l 606 1067 l 504 1189 l 400 1067 l 303 1067 z "},"Ģ":{"ha":985,"x_min":63,"x_max":897,"o":"m 493 -17 q 264 49 361 -17 q 115 228 167 114 q 63 492 63 343 q 116 757 63 642 q 268 938 169 872 q 501 1003 367 1003 q 697 958 614 1003 q 828 835 779 914 q 890 650 878 756 l 778 646 q 683 844 756 782 q 504 907 610 907 q 337 858 408 907 q 226 722 265 808 q 188 521 188 635 l 188 465 q 226 265 188 353 q 337 128 265 178 q 504 79 408 79 q 712 157 638 79 q 786 365 786 235 l 786 394 l 506 394 l 506 490 l 897 490 l 897 0 l 797 0 l 788 144 q 676 28 751 74 q 493 -17 601 -17 m 458 -336 l 497 -219 l 453 -219 l 453 -104 l 575 -104 l 575 -197 l 526 -336 l 458 -336 z "},"Ġ":{"ha":985,"x_min":63,"x_max":897,"o":"m 493 -17 q 264 49 361 -17 q 115 228 167 114 q 63 492 63 343 q 116 757 63 642 q 268 938 169 872 q 501 1003 367 1003 q 697 958 614 1003 q 828 835 779 914 q 890 650 878 756 l 778 646 q 683 844 756 782 q 504 907 610 907 q 337 858 408 907 q 226 722 265 808 q 188 521 188 635 l 188 465 q 226 265 188 353 q 337 128 265 178 q 504 79 408 79 q 712 157 638 79 q 786 365 786 235 l 786 394 l 506 394 l 506 490 l 897 490 l 897 0 l 797 0 l 788 144 q 676 28 751 74 q 493 -17 601 -17 m 444 1119 l 444 1244 l 560 1244 l 560 1119 l 444 1119 z "},"H":{"ha":950,"x_min":108,"x_max":842,"o":"m 108 0 l 108 986 l 228 986 l 228 546 l 722 546 l 722 986 l 842 986 l 842 0 l 722 0 l 722 449 l 228 449 l 228 0 l 108 0 z "},"Ħ":{"ha":983,"x_min":44,"x_max":939,"o":"m 125 0 l 125 672 l 44 672 l 44 764 l 125 764 l 125 986 l 244 986 l 244 764 l 739 764 l 739 986 l 858 986 l 858 764 l 939 764 l 939 672 l 858 672 l 858 0 l 739 0 l 739 404 l 244 404 l 244 0 l 125 0 m 244 501 l 739 501 l 739 672 l 244 672 l 244 501 z "},"Ĥ":{"ha":950,"x_min":108,"x_max":842,"o":"m 108 0 l 108 986 l 228 986 l 228 546 l 722 546 l 722 986 l 842 986 l 842 0 l 722 0 l 722 449 l 228 449 l 228 0 l 108 0 m 275 1067 l 426 1247 l 524 1247 l 675 1067 l 578 1067 l 476 1189 l 372 1067 l 275 1067 z "},"I":{"ha":336,"x_min":108,"x_max":228,"o":"m 108 0 l 108 986 l 228 986 l 228 0 l 108 0 z "},"Ĳ":{"ha":714,"x_min":108,"x_max":610,"o":"m 339 -17 q 266 -11 303 -17 q 179 6 229 -6 l 179 100 q 261 84 225 90 q 328 78 297 78 q 401 88 364 78 q 465 132 439 99 q 490 236 490 165 l 490 986 l 610 986 l 610 254 q 538 47 610 111 q 339 -17 467 -17 m 108 307 l 108 986 l 228 986 l 228 307 l 108 307 z "},"Í":{"ha":336,"x_min":108,"x_max":336,"o":"m 108 0 l 108 986 l 228 986 l 228 0 l 108 0 m 197 1067 l 119 1081 l 249 1268 l 336 1240 l 197 1067 z "},"Ĭ":{"ha":336,"x_min":-37,"x_max":374,"o":"m 108 0 l 108 986 l 228 986 l 228 0 l 108 0 m 168 1081 q 24 1130 81 1081 q -37 1261 -33 1179 l 51 1261 q 81 1187 56 1222 q 168 1151 107 1151 q 255 1187 229 1151 q 285 1261 281 1222 l 374 1261 q 313 1130 369 1179 q 168 1081 256 1081 z "},"Î":{"ha":336,"x_min":-32,"x_max":368,"o":"m 108 0 l 108 986 l 228 986 l 228 0 l 108 0 m -32 1067 l 119 1247 l 217 1247 l 368 1067 l 271 1067 l 169 1189 l 65 1067 l -32 1067 z "},"Ï":{"ha":336,"x_min":-3,"x_max":339,"o":"m 108 0 l 108 986 l 228 986 l 228 0 l 108 0 m 224 1119 l 224 1244 l 339 1244 l 339 1119 l 224 1119 m -3 1119 l -3 1244 l 113 1244 l 113 1119 l -3 1119 z "},"İ":{"ha":336,"x_min":108,"x_max":228,"o":"m 108 0 l 108 986 l 228 986 l 228 0 l 108 0 m 110 1119 l 110 1244 l 225 1244 l 225 1119 l 110 1119 z "},"Ì":{"ha":336,"x_min":0,"x_max":228,"o":"m 108 0 l 108 986 l 228 986 l 228 0 l 108 0 m 139 1067 l 0 1240 l 88 1268 l 217 1081 l 139 1067 z "},"Ī":{"ha":336,"x_min":-62,"x_max":397,"o":"m 108 0 l 108 986 l 228 986 l 228 0 l 108 0 m -62 1104 l -62 1181 l 397 1181 l 397 1104 l -62 1104 z "},"Į":{"ha":336,"x_min":47,"x_max":242,"o":"m 108 0 l 108 986 l 228 986 l 228 0 l 108 0 m 242 -219 q 158 -222 203 -228 q 80 -190 113 -217 q 47 -111 47 -162 q 69 -47 47 -74 q 122 3 92 -21 l 122 15 l 214 0 q 165 -40 188 -19 q 143 -90 143 -61 q 176 -140 143 -129 q 242 -147 208 -150 l 242 -219 z "},"Ĩ":{"ha":336,"x_min":-29,"x_max":364,"o":"m 108 0 l 108 986 l 228 986 l 228 0 l 108 0 m 242 1097 q 180 1115 206 1097 q 133 1151 154 1133 q 89 1169 113 1169 q 58 1153 71 1169 q 43 1106 46 1138 l -29 1106 q 13 1208 -21 1175 q 89 1242 47 1242 q 156 1224 131 1242 q 203 1188 182 1206 q 249 1169 224 1169 q 278 1188 268 1169 q 290 1233 289 1206 l 364 1233 q 318 1128 354 1160 q 242 1097 282 1097 z "},"J":{"ha":536,"x_min":29,"x_max":432,"o":"m 174 -17 q 103 -11 138 -17 q 29 6 69 -6 l 29 100 q 99 84 65 90 q 163 78 132 78 q 235 91 201 78 q 291 140 269 104 q 313 242 313 176 l 313 986 l 432 986 l 432 257 q 363 51 432 118 q 174 -17 294 -17 z "},"Ĵ":{"ha":536,"x_min":29,"x_max":563,"o":"m 174 -17 q 103 -11 138 -17 q 29 6 69 -6 l 29 100 q 99 84 65 90 q 163 78 132 78 q 235 91 201 78 q 291 140 269 104 q 313 242 313 176 l 313 986 l 432 986 l 432 257 q 363 51 432 118 q 174 -17 294 -17 m 163 1067 l 314 1247 l 411 1247 l 563 1067 l 465 1067 l 364 1189 l 260 1067 l 163 1067 z "},"K":{"ha":851,"x_min":108,"x_max":853,"o":"m 108 0 l 108 986 l 228 986 l 228 458 l 703 986 l 840 986 l 456 561 l 853 0 l 708 0 l 374 479 l 228 317 l 228 0 l 108 0 z "},"Ķ":{"ha":851,"x_min":108,"x_max":853,"o":"m 108 0 l 108 986 l 228 986 l 228 458 l 703 986 l 840 986 l 456 561 l 853 0 l 708 0 l 374 479 l 228 317 l 228 0 l 108 0 m 400 -336 l 439 -219 l 394 -219 l 394 -104 l 517 -104 l 517 -197 l 468 -336 l 400 -336 z "},"L":{"ha":707,"x_min":108,"x_max":679,"o":"m 108 0 l 108 986 l 228 986 l 228 97 l 679 97 l 679 0 l 108 0 z "},"Ĺ":{"ha":707,"x_min":108,"x_max":679,"o":"m 108 0 l 108 986 l 228 986 l 228 97 l 679 97 l 679 0 l 108 0 m 196 1067 l 118 1081 l 247 1268 l 335 1240 l 196 1067 z "},"Ľ":{"ha":708,"x_min":108,"x_max":679,"o":"m 319 692 l 333 986 l 428 986 l 390 692 l 319 692 m 108 0 l 108 986 l 228 986 l 228 97 l 679 97 l 679 0 l 108 0 z "},"Ļ":{"ha":707,"x_min":108,"x_max":679,"o":"m 108 0 l 108 986 l 228 986 l 228 97 l 679 97 l 679 0 l 108 0 m 313 -336 l 351 -219 l 307 -219 l 307 -104 l 429 -104 l 429 -197 l 381 -336 l 313 -336 z "},"Ŀ":{"ha":707,"x_min":108,"x_max":679,"o":"m 108 0 l 108 986 l 228 986 l 228 97 l 679 97 l 679 0 l 108 0 m 469 464 l 469 588 l 592 588 l 592 464 l 469 464 z "},"Ł":{"ha":771,"x_min":43,"x_max":742,"o":"m 171 0 l 171 397 l 43 335 l 43 438 l 171 500 l 171 986 l 290 986 l 290 560 l 485 656 l 485 553 l 290 457 l 290 97 l 742 97 l 742 0 l 171 0 z "},"M":{"ha":1121,"x_min":108,"x_max":1013,"o":"m 108 0 l 108 986 l 289 986 l 563 161 l 564 161 l 838 986 l 1013 986 l 1013 0 l 896 0 l 896 850 l 893 850 l 611 0 l 507 0 l 225 850 l 222 850 l 222 0 l 108 0 z "},"N":{"ha":928,"x_min":108,"x_max":819,"o":"m 108 0 l 108 986 l 258 986 l 713 214 l 714 214 l 714 986 l 819 986 l 819 0 l 719 0 l 215 857 l 214 857 l 214 0 l 108 0 z "},"Ń":{"ha":928,"x_min":108,"x_max":819,"o":"m 108 0 l 108 986 l 258 986 l 713 214 l 714 214 l 714 986 l 819 986 l 819 0 l 719 0 l 215 857 l 214 857 l 214 0 l 108 0 m 493 1067 l 415 1081 l 544 1268 l 632 1240 l 493 1067 z "},"Ň":{"ha":928,"x_min":108,"x_max":819,"o":"m 108 0 l 108 986 l 258 986 l 713 214 l 714 214 l 714 986 l 819 986 l 819 0 l 719 0 l 215 857 l 214 857 l 214 0 l 108 0 m 415 1081 l 264 1261 l 361 1261 l 465 1139 l 567 1261 l 664 1261 l 513 1081 l 415 1081 z "},"Ņ":{"ha":928,"x_min":108,"x_max":819,"o":"m 108 0 l 108 986 l 258 986 l 713 214 l 714 214 l 714 986 l 819 986 l 819 0 l 719 0 l 215 857 l 214 857 l 214 0 l 108 0 m 408 -336 l 447 -219 l 403 -219 l 403 -104 l 525 -104 l 525 -197 l 476 -336 l 408 -336 z "},"Ñ":{"ha":928,"x_min":108,"x_max":819,"o":"m 108 0 l 108 986 l 258 986 l 713 214 l 714 214 l 714 986 l 819 986 l 819 0 l 719 0 l 215 857 l 214 857 l 214 0 l 108 0 m 538 1097 q 476 1115 501 1097 q 429 1151 450 1133 q 385 1169 408 1169 q 354 1153 367 1169 q 339 1106 342 1138 l 267 1106 q 309 1208 275 1175 q 385 1242 343 1242 q 452 1224 426 1242 q 499 1188 478 1206 q 544 1169 519 1169 q 574 1188 564 1169 q 586 1233 585 1206 l 660 1233 q 614 1128 650 1160 q 538 1097 578 1097 z "},"Ŋ":{"ha":928,"x_min":108,"x_max":819,"o":"m 543 -240 q 488 -238 511 -240 q 449 -233 465 -236 l 449 -140 q 485 -144 467 -142 q 525 -146 503 -146 q 653 -110 607 -146 q 700 14 700 -75 l 700 33 l 215 857 l 214 857 l 214 0 l 108 0 l 108 986 l 258 986 l 713 214 l 714 214 l 714 986 l 819 986 l 819 40 q 747 -169 819 -99 q 543 -240 675 -240 z "},"O":{"ha":1006,"x_min":61,"x_max":944,"o":"m 503 -17 q 266 50 365 -17 q 114 231 167 117 q 61 492 61 346 q 114 753 61 638 q 265 935 167 868 q 503 1003 364 1003 q 740 936 642 1003 q 892 753 839 869 q 944 492 944 638 q 892 231 944 346 q 740 50 839 117 q 503 -17 642 -17 m 503 79 q 673 128 601 79 q 784 265 744 178 q 824 465 824 353 l 824 521 q 784 722 824 635 q 673 858 744 808 q 503 907 601 907 q 333 858 406 907 q 222 722 261 808 q 182 521 182 635 l 182 465 q 222 265 182 353 q 333 128 261 178 q 503 79 406 79 z "},"Ó":{"ha":1006,"x_min":61,"x_max":944,"o":"m 503 -17 q 266 50 365 -17 q 114 231 167 117 q 61 492 61 346 q 114 753 61 638 q 265 935 167 868 q 503 1003 364 1003 q 740 936 642 1003 q 892 753 839 869 q 944 492 944 638 q 892 231 944 346 q 740 50 839 117 q 503 -17 642 -17 m 503 79 q 673 128 601 79 q 784 265 744 178 q 824 465 824 353 l 824 521 q 784 722 824 635 q 673 858 744 808 q 503 907 601 907 q 333 858 406 907 q 222 722 261 808 q 182 521 182 635 l 182 465 q 222 265 182 353 q 333 128 261 178 q 503 79 406 79 m 532 1067 l 454 1081 l 583 1268 l 671 1240 l 532 1067 z "},"Ŏ":{"ha":1006,"x_min":61,"x_max":944,"o":"m 503 -17 q 266 50 365 -17 q 114 231 167 117 q 61 492 61 346 q 114 753 61 638 q 265 935 167 868 q 503 1003 364 1003 q 740 936 642 1003 q 892 753 839 869 q 944 492 944 638 q 892 231 944 346 q 740 50 839 117 q 503 -17 642 -17 m 503 79 q 673 128 601 79 q 784 265 744 178 q 824 465 824 353 l 824 521 q 784 722 824 635 q 673 858 744 808 q 503 907 601 907 q 333 858 406 907 q 222 722 261 808 q 182 521 182 635 l 182 465 q 222 265 182 353 q 333 128 261 178 q 503 79 406 79 m 503 1081 q 358 1130 415 1081 q 297 1261 301 1179 l 386 1261 q 416 1187 390 1222 q 503 1151 442 1151 q 590 1187 564 1151 q 619 1261 615 1222 l 708 1261 q 647 1130 704 1179 q 503 1081 590 1081 z "},"Ô":{"ha":1006,"x_min":61,"x_max":944,"o":"m 503 -17 q 266 50 365 -17 q 114 231 167 117 q 61 492 61 346 q 114 753 61 638 q 265 935 167 868 q 503 1003 364 1003 q 740 936 642 1003 q 892 753 839 869 q 944 492 944 638 q 892 231 944 346 q 740 50 839 117 q 503 -17 642 -17 m 503 79 q 673 128 601 79 q 784 265 744 178 q 824 465 824 353 l 824 521 q 784 722 824 635 q 673 858 744 808 q 503 907 601 907 q 333 858 406 907 q 222 722 261 808 q 182 521 182 635 l 182 465 q 222 265 182 353 q 333 128 261 178 q 503 79 406 79 m 303 1067 l 454 1247 l 551 1247 l 703 1067 l 606 1067 l 504 1189 l 400 1067 l 303 1067 z "},"Ö":{"ha":1006,"x_min":61,"x_max":944,"o":"m 503 -17 q 266 50 365 -17 q 114 231 167 117 q 61 492 61 346 q 114 753 61 638 q 265 935 167 868 q 503 1003 364 1003 q 740 936 642 1003 q 892 753 839 869 q 944 492 944 638 q 892 231 944 346 q 740 50 839 117 q 503 -17 642 -17 m 503 79 q 673 128 601 79 q 784 265 744 178 q 824 465 824 353 l 824 521 q 784 722 824 635 q 673 858 744 808 q 503 907 601 907 q 333 858 406 907 q 222 722 261 808 q 182 521 182 635 l 182 465 q 222 265 182 353 q 333 128 261 178 q 503 79 406 79 m 558 1119 l 558 1244 l 674 1244 l 674 1119 l 558 1119 m 332 1119 l 332 1244 l 447 1244 l 447 1119 l 332 1119 z "},"Ò":{"ha":1006,"x_min":61,"x_max":944,"o":"m 503 -17 q 266 50 365 -17 q 114 231 167 117 q 61 492 61 346 q 114 753 61 638 q 265 935 167 868 q 503 1003 364 1003 q 740 936 642 1003 q 892 753 839 869 q 944 492 944 638 q 892 231 944 346 q 740 50 839 117 q 503 -17 642 -17 m 503 79 q 673 128 601 79 q 784 265 744 178 q 824 465 824 353 l 824 521 q 784 722 824 635 q 673 858 744 808 q 503 907 601 907 q 333 858 406 907 q 222 722 261 808 q 182 521 182 635 l 182 465 q 222 265 182 353 q 333 128 261 178 q 503 79 406 79 m 474 1067 l 335 1240 l 422 1268 l 551 1081 l 474 1067 z "},"Ő":{"ha":1006,"x_min":61,"x_max":944,"o":"m 503 -17 q 266 50 365 -17 q 114 231 167 117 q 61 492 61 346 q 114 753 61 638 q 265 935 167 868 q 503 1003 364 1003 q 740 936 642 1003 q 892 753 839 869 q 944 492 944 638 q 892 231 944 346 q 740 50 839 117 q 503 -17 642 -17 m 503 79 q 673 128 601 79 q 784 265 744 178 q 824 465 824 353 l 824 521 q 784 722 824 635 q 673 858 744 808 q 503 907 601 907 q 333 858 406 907 q 222 722 261 808 q 182 521 182 635 l 182 465 q 222 265 182 353 q 333 128 261 178 q 503 79 406 79 m 426 1067 l 349 1081 l 478 1268 l 565 1240 l 426 1067 m 622 1067 l 544 1081 l 688 1268 l 775 1240 l 622 1067 z "},"Ō":{"ha":1006,"x_min":61,"x_max":944,"o":"m 503 -17 q 266 50 365 -17 q 114 231 167 117 q 61 492 61 346 q 114 753 61 638 q 265 935 167 868 q 503 1003 364 1003 q 740 936 642 1003 q 892 753 839 869 q 944 492 944 638 q 892 231 944 346 q 740 50 839 117 q 503 -17 642 -17 m 503 79 q 673 128 601 79 q 784 265 744 178 q 824 465 824 353 l 824 521 q 784 722 824 635 q 673 858 744 808 q 503 907 601 907 q 333 858 406 907 q 222 722 261 808 q 182 521 182 635 l 182 465 q 222 265 182 353 q 333 128 261 178 q 503 79 406 79 m 272 1104 l 272 1181 l 732 1181 l 732 1104 l 272 1104 z "},"Ø":{"ha":1006,"x_min":61,"x_max":944,"o":"m 165 -17 l 89 38 l 169 140 q 61 492 61 279 q 114 753 61 638 q 265 935 167 868 q 503 1003 364 1003 q 651 979 583 1003 q 771 913 718 956 l 840 1003 l 917 949 l 836 846 q 944 492 944 706 q 892 231 944 346 q 740 50 839 117 q 503 -17 642 -17 q 355 7 422 -17 q 235 72 288 31 l 165 -17 m 182 465 q 239 231 182 329 l 707 831 q 615 887 667 867 q 503 907 564 907 q 333 858 406 907 q 222 722 261 808 q 182 521 182 635 l 182 465 m 503 79 q 673 128 601 79 q 784 265 744 178 q 824 465 824 353 l 824 521 q 767 756 824 657 l 299 156 q 390 99 339 119 q 503 79 442 79 z "},"Ǿ":{"ha":1006,"x_min":61,"x_max":944,"o":"m 165 -17 l 89 38 l 169 140 q 61 492 61 279 q 114 753 61 638 q 265 935 167 868 q 503 1003 364 1003 q 651 979 583 1003 q 771 913 718 956 l 840 1003 l 917 949 l 836 846 q 944 492 944 706 q 892 231 944 346 q 740 50 839 117 q 503 -17 642 -17 q 355 7 422 -17 q 235 72 288 31 l 165 -17 m 182 465 q 239 231 182 329 l 707 831 q 615 887 667 867 q 503 907 564 907 q 333 858 406 907 q 222 722 261 808 q 182 521 182 635 l 182 465 m 503 79 q 673 128 601 79 q 784 265 744 178 q 824 465 824 353 l 824 521 q 767 756 824 657 l 299 156 q 390 99 339 119 q 503 79 442 79 m 532 1067 l 454 1081 l 583 1268 l 671 1240 l 532 1067 z "},"Õ":{"ha":1006,"x_min":61,"x_max":944,"o":"m 503 -17 q 266 50 365 -17 q 114 231 167 117 q 61 492 61 346 q 114 753 61 638 q 265 935 167 868 q 503 1003 364 1003 q 740 936 642 1003 q 892 753 839 869 q 944 492 944 638 q 892 231 944 346 q 740 50 839 117 q 503 -17 642 -17 m 503 79 q 673 128 601 79 q 784 265 744 178 q 824 465 824 353 l 824 521 q 784 722 824 635 q 673 858 744 808 q 503 907 601 907 q 333 858 406 907 q 222 722 261 808 q 182 521 182 635 l 182 465 q 222 265 182 353 q 333 128 261 178 q 503 79 406 79 m 576 1097 q 515 1115 540 1097 q 468 1151 489 1133 q 424 1169 447 1169 q 393 1153 406 1169 q 378 1106 381 1138 l 306 1106 q 348 1208 314 1175 q 424 1242 382 1242 q 491 1224 465 1242 q 538 1188 517 1206 q 583 1169 558 1169 q 613 1188 603 1169 q 625 1233 624 1206 l 699 1233 q 653 1128 689 1160 q 576 1097 617 1097 z "},"Œ":{"ha":1388,"x_min":61,"x_max":1331,"o":"m 531 0 q 268 65 372 0 q 113 241 164 129 q 61 493 61 353 q 113 745 61 633 q 268 922 164 857 q 531 986 372 986 l 1325 986 l 1325 889 l 828 889 l 828 554 l 1254 554 l 1254 457 l 828 457 l 828 97 l 1331 97 l 1331 0 l 531 0 m 521 97 l 708 97 l 708 889 l 521 889 q 331 841 407 889 q 218 710 256 793 q 181 519 181 626 l 181 467 q 218 277 181 361 q 331 145 256 193 q 521 97 407 97 z "},"P":{"ha":839,"x_min":108,"x_max":801,"o":"m 108 0 l 108 986 l 485 986 q 724 905 647 986 q 801 696 801 824 q 722 479 801 563 q 486 396 642 396 l 228 396 l 228 0 l 108 0 m 478 889 l 228 889 l 228 493 l 478 493 q 635 548 588 493 q 683 683 683 603 l 683 699 q 634 837 683 785 q 478 889 585 889 z "},"Þ":{"ha":853,"x_min":108,"x_max":801,"o":"m 108 0 l 108 986 l 228 986 l 228 797 l 485 797 q 724 716 647 797 q 801 507 801 635 q 722 290 801 374 q 486 207 642 207 l 228 207 l 228 0 l 108 0 m 478 700 l 228 700 l 228 304 l 478 304 q 635 359 588 304 q 683 494 683 414 l 683 510 q 634 648 683 596 q 478 700 585 700 z "},"Q":{"ha":1006,"x_min":61,"x_max":944,"o":"m 503 -17 q 266 50 365 -17 q 114 231 167 117 q 61 492 61 346 q 114 753 61 638 q 265 935 167 868 q 503 1003 364 1003 q 740 936 642 1003 q 892 753 839 869 q 944 492 944 638 q 892 232 944 347 q 743 53 840 117 l 872 -106 l 778 -176 l 650 7 q 503 -17 582 -17 m 503 79 q 673 128 601 79 q 784 265 744 178 q 824 465 824 353 l 824 521 q 784 722 824 635 q 673 858 744 808 q 503 907 601 907 q 333 858 406 907 q 222 722 261 808 q 182 521 182 635 l 182 465 q 222 265 182 353 q 333 128 261 178 q 503 79 406 79 z "},"R":{"ha":861,"x_min":108,"x_max":835,"o":"m 108 0 l 108 986 l 482 986 q 656 950 589 986 q 754 852 722 914 q 786 715 786 790 q 732 539 786 614 q 560 440 678 464 l 835 0 l 700 0 l 425 438 l 228 438 l 228 0 l 108 0 m 476 889 l 228 889 l 228 532 l 476 532 q 590 554 549 532 q 649 614 632 576 q 667 694 667 651 l 667 732 q 623 843 667 797 q 476 889 579 889 z "},"Ŕ":{"ha":861,"x_min":108,"x_max":835,"o":"m 108 0 l 108 986 l 482 986 q 656 950 589 986 q 754 852 722 914 q 786 715 786 790 q 732 539 786 614 q 560 440 678 464 l 835 0 l 700 0 l 425 438 l 228 438 l 228 0 l 108 0 m 476 889 l 228 889 l 228 532 l 476 532 q 590 554 549 532 q 649 614 632 576 q 667 694 667 651 l 667 732 q 623 843 667 797 q 476 889 579 889 m 474 1067 l 396 1081 l 525 1268 l 613 1240 l 474 1067 z "},"Ř":{"ha":861,"x_min":108,"x_max":835,"o":"m 108 0 l 108 986 l 482 986 q 656 950 589 986 q 754 852 722 914 q 786 715 786 790 q 732 539 786 614 q 560 440 678 464 l 835 0 l 700 0 l 425 438 l 228 438 l 228 0 l 108 0 m 476 889 l 228 889 l 228 532 l 476 532 q 590 554 549 532 q 649 614 632 576 q 667 694 667 651 l 667 732 q 623 843 667 797 q 476 889 579 889 m 396 1081 l 244 1261 l 342 1261 l 446 1139 l 547 1261 l 644 1261 l 493 1081 l 396 1081 z "},"Ŗ":{"ha":861,"x_min":108,"x_max":835,"o":"m 108 0 l 108 986 l 482 986 q 656 950 589 986 q 754 852 722 914 q 786 715 786 790 q 732 539 786 614 q 560 440 678 464 l 835 0 l 700 0 l 425 438 l 228 438 l 228 0 l 108 0 m 476 889 l 228 889 l 228 532 l 476 532 q 590 554 549 532 q 649 614 632 576 q 667 694 667 651 l 667 732 q 623 843 667 797 q 476 889 579 889 m 389 -336 l 428 -219 l 383 -219 l 383 -104 l 506 -104 l 506 -197 l 457 -336 l 389 -336 z "},"S":{"ha":821,"x_min":53,"x_max":767,"o":"m 413 -17 q 230 19 310 -15 q 103 119 150 53 q 53 282 57 186 l 164 289 q 203 168 168 215 q 295 98 239 121 q 415 74 351 75 q 585 117 517 72 q 653 258 653 161 q 610 378 653 340 q 489 433 567 415 l 304 479 q 128 581 182 510 q 74 733 74 653 q 118 882 74 822 q 238 972 163 942 q 407 1003 314 1003 q 573 973 499 1003 q 693 881 647 943 q 744 725 739 819 l 636 721 q 408 913 617 913 q 244 867 301 913 q 188 743 188 821 q 223 641 188 683 q 343 578 258 599 l 525 532 q 706 438 644 501 q 767 263 767 374 q 721 106 767 168 q 595 13 675 43 q 413 -17 515 -17 z "},"Ś":{"ha":821,"x_min":53,"x_max":767,"o":"m 413 -17 q 230 19 310 -15 q 103 119 150 53 q 53 282 57 186 l 164 289 q 203 168 168 215 q 295 98 239 121 q 415 74 351 75 q 585 117 517 72 q 653 258 653 161 q 610 378 653 340 q 489 433 567 415 l 304 479 q 128 581 182 510 q 74 733 74 653 q 118 882 74 822 q 238 972 163 942 q 407 1003 314 1003 q 573 973 499 1003 q 693 881 647 943 q 744 725 739 819 l 636 721 q 408 913 617 913 q 244 867 301 913 q 188 743 188 821 q 223 641 188 683 q 343 578 258 599 l 525 532 q 706 438 644 501 q 767 263 767 374 q 721 106 767 168 q 595 13 675 43 q 413 -17 515 -17 m 442 1067 l 364 1081 l 493 1268 l 581 1240 l 442 1067 z "},"Š":{"ha":821,"x_min":53,"x_max":767,"o":"m 413 -17 q 230 19 310 -15 q 103 119 150 53 q 53 282 57 186 l 164 289 q 203 168 168 215 q 295 98 239 121 q 415 74 351 75 q 585 117 517 72 q 653 258 653 161 q 610 378 653 340 q 489 433 567 415 l 304 479 q 128 581 182 510 q 74 733 74 653 q 118 882 74 822 q 238 972 163 942 q 407 1003 314 1003 q 573 973 499 1003 q 693 881 647 943 q 744 725 739 819 l 636 721 q 408 913 617 913 q 244 867 301 913 q 188 743 188 821 q 223 641 188 683 q 343 578 258 599 l 525 532 q 706 438 644 501 q 767 263 767 374 q 721 106 767 168 q 595 13 675 43 q 413 -17 515 -17 m 364 1081 l 213 1261 l 310 1261 l 414 1139 l 515 1261 l 613 1261 l 461 1081 l 364 1081 z "},"Ş":{"ha":821,"x_min":53,"x_max":767,"o":"m 413 -17 q 230 19 310 -15 q 103 119 150 53 q 53 282 57 186 l 164 289 q 203 168 168 215 q 295 98 239 121 q 415 74 351 75 q 585 117 517 72 q 653 258 653 161 q 610 378 653 340 q 489 433 567 415 l 304 479 q 128 581 182 510 q 74 733 74 653 q 118 882 74 822 q 238 972 163 942 q 407 1003 314 1003 q 573 973 499 1003 q 693 881 647 943 q 744 725 739 819 l 636 721 q 408 913 617 913 q 244 867 301 913 q 188 743 188 821 q 223 641 188 683 q 343 578 258 599 l 525 532 q 706 438 644 501 q 767 263 767 374 q 721 106 767 168 q 595 13 675 43 q 413 -17 515 -17 m 403 -226 q 350 -224 372 -226 q 297 -215 328 -221 l 297 -144 q 368 -153 329 -150 q 435 -151 407 -157 q 463 -126 463 -146 q 438 -101 463 -108 q 353 -85 414 -93 l 356 3 l 436 3 l 438 -40 q 520 -65 486 -46 q 554 -129 554 -83 q 517 -200 554 -174 q 403 -226 481 -226 z "},"Ŝ":{"ha":821,"x_min":53,"x_max":767,"o":"m 413 -17 q 230 19 310 -15 q 103 119 150 53 q 53 282 57 186 l 164 289 q 203 168 168 215 q 295 98 239 121 q 415 74 351 75 q 585 117 517 72 q 653 258 653 161 q 610 378 653 340 q 489 433 567 415 l 304 479 q 128 581 182 510 q 74 733 74 653 q 118 882 74 822 q 238 972 163 942 q 407 1003 314 1003 q 573 973 499 1003 q 693 881 647 943 q 744 725 739 819 l 636 721 q 408 913 617 913 q 244 867 301 913 q 188 743 188 821 q 223 641 188 683 q 343 578 258 599 l 525 532 q 706 438 644 501 q 767 263 767 374 q 721 106 767 168 q 595 13 675 43 q 413 -17 515 -17 m 213 1067 l 364 1247 l 461 1247 l 613 1067 l 515 1067 l 414 1189 l 310 1067 l 213 1067 z "},"Ș":{"ha":821,"x_min":53,"x_max":767,"o":"m 413 -17 q 230 19 310 -15 q 103 119 150 53 q 53 282 57 186 l 164 289 q 203 168 168 215 q 295 98 239 121 q 415 74 351 75 q 585 117 517 72 q 653 258 653 161 q 610 378 653 340 q 489 433 567 415 l 304 479 q 128 581 182 510 q 74 733 74 653 q 118 882 74 822 q 238 972 163 942 q 407 1003 314 1003 q 573 973 499 1003 q 693 881 647 943 q 744 725 739 819 l 636 721 q 408 913 617 913 q 244 867 301 913 q 188 743 188 821 q 223 641 188 683 q 343 578 258 599 l 525 532 q 706 438 644 501 q 767 263 767 374 q 721 106 767 168 q 595 13 675 43 q 413 -17 515 -17 m 357 -336 l 396 -219 l 351 -219 l 351 -104 l 474 -104 l 474 -197 l 425 -336 l 357 -336 z "},"ẞ":{"ha":824,"x_min":108,"x_max":763,"o":"m 457 -17 q 382 -11 417 -17 q 322 0 347 -6 l 322 100 q 447 86 388 88 q 551 103 506 85 q 624 167 597 122 q 650 290 650 213 q 586 440 650 389 q 403 510 522 492 l 403 519 l 590 889 l 228 889 l 228 0 l 108 0 l 108 986 l 746 986 l 746 976 l 542 575 q 651 517 600 557 q 732 419 701 478 q 763 285 763 361 q 728 134 763 203 q 626 24 694 65 q 457 -17 558 -17 z "},"T":{"ha":828,"x_min":28,"x_max":800,"o":"m 354 0 l 354 889 l 28 889 l 28 986 l 800 986 l 800 889 l 474 889 l 474 0 l 354 0 z "},"Ŧ":{"ha":839,"x_min":33,"x_max":806,"o":"m 360 0 l 360 460 l 171 460 l 171 551 l 360 551 l 360 889 l 33 889 l 33 986 l 806 986 l 806 889 l 479 889 l 479 551 l 668 551 l 668 460 l 479 460 l 479 0 l 360 0 z "},"Ť":{"ha":828,"x_min":28,"x_max":800,"o":"m 354 0 l 354 889 l 28 889 l 28 986 l 800 986 l 800 889 l 474 889 l 474 0 l 354 0 m 365 1081 l 214 1261 l 311 1261 l 415 1139 l 517 1261 l 614 1261 l 463 1081 l 365 1081 z "},"Ț":{"ha":828,"x_min":28,"x_max":800,"o":"m 354 0 l 354 889 l 28 889 l 28 986 l 800 986 l 800 889 l 474 889 l 474 0 l 354 0 m 358 -336 l 397 -219 l 353 -219 l 353 -104 l 475 -104 l 475 -197 l 426 -336 l 358 -336 z "},"U":{"ha":910,"x_min":100,"x_max":810,"o":"m 456 -17 q 194 74 288 -17 q 100 360 100 164 l 100 986 l 219 986 l 219 335 q 284 140 219 201 q 456 79 349 79 q 628 140 563 79 q 693 335 693 201 l 693 986 l 810 986 l 810 357 q 717 73 810 163 q 456 -17 625 -17 z "},"Ú":{"ha":910,"x_min":100,"x_max":810,"o":"m 456 -17 q 194 74 288 -17 q 100 360 100 164 l 100 986 l 219 986 l 219 335 q 284 140 219 201 q 456 79 349 79 q 628 140 563 79 q 693 335 693 201 l 693 986 l 810 986 l 810 357 q 717 73 810 163 q 456 -17 625 -17 m 485 1067 l 407 1081 l 536 1268 l 624 1240 l 485 1067 z "},"Ŭ":{"ha":910,"x_min":100,"x_max":810,"o":"m 456 -17 q 194 74 288 -17 q 100 360 100 164 l 100 986 l 219 986 l 219 335 q 284 140 219 201 q 456 79 349 79 q 628 140 563 79 q 693 335 693 201 l 693 986 l 810 986 l 810 357 q 717 73 810 163 q 456 -17 625 -17 m 456 1081 q 311 1130 368 1081 q 250 1261 254 1179 l 339 1261 q 369 1187 343 1222 q 456 1151 394 1151 q 542 1187 517 1151 q 572 1261 568 1222 l 661 1261 q 600 1130 657 1179 q 456 1081 543 1081 z "},"Û":{"ha":910,"x_min":100,"x_max":810,"o":"m 456 -17 q 194 74 288 -17 q 100 360 100 164 l 100 986 l 219 986 l 219 335 q 284 140 219 201 q 456 79 349 79 q 628 140 563 79 q 693 335 693 201 l 693 986 l 810 986 l 810 357 q 717 73 810 163 q 456 -17 625 -17 m 256 1067 l 407 1247 l 504 1247 l 656 1067 l 558 1067 l 457 1189 l 353 1067 l 256 1067 z "},"Ü":{"ha":910,"x_min":100,"x_max":810,"o":"m 456 -17 q 194 74 288 -17 q 100 360 100 164 l 100 986 l 219 986 l 219 335 q 284 140 219 201 q 456 79 349 79 q 628 140 563 79 q 693 335 693 201 l 693 986 l 810 986 l 810 357 q 717 73 810 163 q 456 -17 625 -17 m 511 1119 l 511 1244 l 626 1244 l 626 1119 l 511 1119 m 285 1119 l 285 1244 l 400 1244 l 400 1119 l 285 1119 z "},"Ù":{"ha":910,"x_min":100,"x_max":810,"o":"m 456 -17 q 194 74 288 -17 q 100 360 100 164 l 100 986 l 219 986 l 219 335 q 284 140 219 201 q 456 79 349 79 q 628 140 563 79 q 693 335 693 201 l 693 986 l 810 986 l 810 357 q 717 73 810 163 q 456 -17 625 -17 m 426 1067 l 288 1240 l 375 1268 l 504 1081 l 426 1067 z "},"Ű":{"ha":910,"x_min":100,"x_max":810,"o":"m 456 -17 q 194 74 288 -17 q 100 360 100 164 l 100 986 l 219 986 l 219 335 q 284 140 219 201 q 456 79 349 79 q 628 140 563 79 q 693 335 693 201 l 693 986 l 810 986 l 810 357 q 717 73 810 163 q 456 -17 625 -17 m 379 1067 l 301 1081 l 431 1268 l 518 1240 l 379 1067 m 575 1067 l 497 1081 l 640 1268 l 728 1240 l 575 1067 z "},"Ū":{"ha":910,"x_min":100,"x_max":810,"o":"m 456 -17 q 194 74 288 -17 q 100 360 100 164 l 100 986 l 219 986 l 219 335 q 284 140 219 201 q 456 79 349 79 q 628 140 563 79 q 693 335 693 201 l 693 986 l 810 986 l 810 357 q 717 73 810 163 q 456 -17 625 -17 m 225 1104 l 225 1181 l 685 1181 l 685 1104 l 225 1104 z "},"Ų":{"ha":910,"x_min":100,"x_max":810,"o":"m 725 -219 q 641 -223 686 -228 q 563 -190 596 -218 q 531 -106 531 -162 q 541 -53 531 -79 q 569 -6 551 -28 q 515 -14 543 -11 q 456 -17 488 -17 q 194 74 288 -17 q 100 360 100 164 l 100 986 l 219 986 l 219 335 q 284 140 219 201 q 456 79 349 79 q 628 140 563 79 q 693 335 693 201 l 693 986 l 810 986 l 810 357 q 780 178 810 249 q 697 58 750 107 q 640 -3 661 25 q 619 -71 619 -32 q 654 -135 619 -119 q 725 -147 689 -150 l 725 -219 z "},"Ů":{"ha":910,"x_min":100,"x_max":810,"o":"m 456 -17 q 194 74 288 -17 q 100 360 100 164 l 100 986 l 219 986 l 219 335 q 284 140 219 201 q 456 79 349 79 q 628 140 563 79 q 693 335 693 201 l 693 986 l 810 986 l 810 357 q 717 73 810 163 q 456 -17 625 -17 m 456 917 q 349 958 392 917 q 306 1061 306 1000 q 349 1165 306 1124 q 456 1207 392 1207 q 563 1165 519 1207 q 606 1061 606 1124 q 563 958 606 1000 q 456 917 519 917 m 456 986 q 508 1008 488 986 q 529 1061 529 1029 q 508 1117 529 1096 q 456 1138 488 1138 q 403 1117 424 1138 q 382 1061 382 1096 q 403 1008 382 1029 q 456 986 424 986 z "},"Ũ":{"ha":910,"x_min":100,"x_max":810,"o":"m 456 -17 q 194 74 288 -17 q 100 360 100 164 l 100 986 l 219 986 l 219 335 q 284 140 219 201 q 456 79 349 79 q 628 140 563 79 q 693 335 693 201 l 693 986 l 810 986 l 810 357 q 717 73 810 163 q 456 -17 625 -17 m 529 1097 q 467 1115 493 1097 q 421 1151 442 1133 q 376 1169 400 1169 q 346 1153 358 1169 q 331 1106 333 1138 l 258 1106 q 301 1208 267 1175 q 376 1242 335 1242 q 444 1224 418 1242 q 490 1188 469 1206 q 536 1169 511 1169 q 566 1188 556 1169 q 578 1233 576 1206 l 651 1233 q 606 1128 642 1160 q 529 1097 569 1097 z "},"V":{"ha":874,"x_min":19,"x_max":856,"o":"m 368 0 l 19 986 l 144 986 l 438 132 l 731 986 l 856 986 l 506 0 l 368 0 z "},"W":{"ha":1251,"x_min":26,"x_max":1225,"o":"m 265 0 l 26 986 l 150 986 l 340 154 l 569 986 l 685 986 l 914 154 l 1104 986 l 1225 986 l 986 0 l 847 0 l 626 814 l 404 0 l 265 0 z "},"Ẃ":{"ha":1251,"x_min":26,"x_max":1225,"o":"m 265 0 l 26 986 l 150 986 l 340 154 l 569 986 l 685 986 l 914 154 l 1104 986 l 1225 986 l 986 0 l 847 0 l 626 814 l 404 0 l 265 0 m 656 1067 l 578 1081 l 707 1268 l 794 1240 l 656 1067 z "},"Ŵ":{"ha":1251,"x_min":26,"x_max":1225,"o":"m 265 0 l 26 986 l 150 986 l 340 154 l 569 986 l 685 986 l 914 154 l 1104 986 l 1225 986 l 986 0 l 847 0 l 626 814 l 404 0 l 265 0 m 426 1067 l 578 1247 l 675 1247 l 826 1067 l 729 1067 l 628 1189 l 524 1067 l 426 1067 z "},"Ẅ":{"ha":1251,"x_min":26,"x_max":1225,"o":"m 265 0 l 26 986 l 150 986 l 340 154 l 569 986 l 685 986 l 914 154 l 1104 986 l 1225 986 l 986 0 l 847 0 l 626 814 l 404 0 l 265 0 m 682 1119 l 682 1244 l 797 1244 l 797 1119 l 682 1119 m 456 1119 l 456 1244 l 571 1244 l 571 1119 l 456 1119 z "},"Ẁ":{"ha":1251,"x_min":26,"x_max":1225,"o":"m 265 0 l 26 986 l 150 986 l 340 154 l 569 986 l 685 986 l 914 154 l 1104 986 l 1225 986 l 986 0 l 847 0 l 626 814 l 404 0 l 265 0 m 597 1067 l 458 1240 l 546 1268 l 675 1081 l 597 1067 z "},"X":{"ha":828,"x_min":14,"x_max":814,"o":"m 14 0 l 342 496 l 17 986 l 158 986 l 418 576 l 676 986 l 811 986 l 486 496 l 814 0 l 672 0 l 411 411 l 149 0 l 14 0 z "},"Y":{"ha":832,"x_min":19,"x_max":813,"o":"m 356 0 l 356 415 l 19 986 l 154 986 l 418 513 l 682 986 l 813 986 l 476 415 l 476 0 l 356 0 z "},"Ý":{"ha":832,"x_min":19,"x_max":813,"o":"m 356 0 l 356 415 l 19 986 l 154 986 l 418 513 l 682 986 l 813 986 l 476 415 l 476 0 l 356 0 m 446 1067 l 368 1081 l 497 1268 l 585 1240 l 446 1067 z "},"Ŷ":{"ha":832,"x_min":19,"x_max":813,"o":"m 356 0 l 356 415 l 19 986 l 154 986 l 418 513 l 682 986 l 813 986 l 476 415 l 476 0 l 356 0 m 217 1067 l 368 1247 l 465 1247 l 617 1067 l 519 1067 l 418 1189 l 314 1067 l 217 1067 z "},"Ÿ":{"ha":832,"x_min":19,"x_max":813,"o":"m 356 0 l 356 415 l 19 986 l 154 986 l 418 513 l 682 986 l 813 986 l 476 415 l 476 0 l 356 0 m 472 1119 l 472 1244 l 588 1244 l 588 1119 l 472 1119 m 246 1119 l 246 1244 l 361 1244 l 361 1119 l 246 1119 z "},"Ỳ":{"ha":832,"x_min":19,"x_max":813,"o":"m 356 0 l 356 415 l 19 986 l 154 986 l 418 513 l 682 986 l 813 986 l 476 415 l 476 0 l 356 0 m 388 1067 l 249 1240 l 336 1268 l 465 1081 l 388 1067 z "},"Z":{"ha":782,"x_min":43,"x_max":740,"o":"m 43 0 l 43 86 l 593 889 l 51 889 l 51 986 l 731 986 l 731 900 l 179 97 l 740 97 l 740 0 l 43 0 z "},"Ź":{"ha":782,"x_min":43,"x_max":740,"o":"m 43 0 l 43 86 l 593 889 l 51 889 l 51 986 l 731 986 l 731 900 l 179 97 l 740 97 l 740 0 l 43 0 m 422 1067 l 344 1081 l 474 1268 l 561 1240 l 422 1067 z "},"Ž":{"ha":782,"x_min":43,"x_max":740,"o":"m 43 0 l 43 86 l 593 889 l 51 889 l 51 986 l 731 986 l 731 900 l 179 97 l 740 97 l 740 0 l 43 0 m 344 1081 l 193 1261 l 290 1261 l 394 1139 l 496 1261 l 593 1261 l 442 1081 l 344 1081 z "},"Ż":{"ha":782,"x_min":43,"x_max":740,"o":"m 43 0 l 43 86 l 593 889 l 51 889 l 51 986 l 731 986 l 731 900 l 179 97 l 740 97 l 740 0 l 43 0 m 335 1119 l 335 1244 l 450 1244 l 450 1119 l 335 1119 z "},"a":{"ha":688,"x_min":54,"x_max":610,"o":"m 274 -12 q 117 36 179 -12 q 54 182 54 85 q 113 319 54 268 q 281 396 171 369 l 483 446 l 483 467 q 439 590 483 556 q 333 625 394 625 q 230 593 272 625 q 172 496 188 561 l 72 515 q 162 661 90 606 q 342 717 233 717 q 530 649 461 717 q 599 450 599 581 l 599 186 q 601 115 599 151 q 610 0 603 78 l 503 0 l 489 90 q 274 -12 418 -12 m 169 188 q 203 100 169 126 q 297 74 238 74 q 388 91 346 74 q 457 141 431 108 q 483 221 483 174 l 483 364 l 313 318 q 208 272 247 300 q 169 188 169 243 z "},"á":{"ha":688,"x_min":54,"x_max":610,"o":"m 274 -12 q 117 36 179 -12 q 54 182 54 85 q 113 319 54 268 q 281 396 171 369 l 483 446 l 483 467 q 439 590 483 556 q 333 625 394 625 q 230 593 272 625 q 172 496 188 561 l 72 515 q 162 661 90 606 q 342 717 233 717 q 530 649 461 717 q 599 450 599 581 l 599 186 q 601 115 599 151 q 610 0 603 78 l 503 0 l 489 90 q 274 -12 418 -12 m 169 188 q 203 100 169 126 q 297 74 238 74 q 388 91 346 74 q 457 141 431 108 q 483 221 483 174 l 483 364 l 313 318 q 208 272 247 300 q 169 188 169 243 m 369 794 l 292 808 l 435 1031 l 522 1003 l 369 794 z "},"ă":{"ha":688,"x_min":54,"x_max":610,"o":"m 274 -12 q 117 36 179 -12 q 54 182 54 85 q 113 319 54 268 q 281 396 171 369 l 483 446 l 483 467 q 439 590 483 556 q 333 625 394 625 q 230 593 272 625 q 172 496 188 561 l 72 515 q 162 661 90 606 q 342 717 233 717 q 530 649 461 717 q 599 450 599 581 l 599 186 q 601 115 599 151 q 610 0 603 78 l 503 0 l 489 90 q 274 -12 418 -12 m 169 188 q 203 100 169 126 q 297 74 238 74 q 388 91 346 74 q 457 141 431 108 q 483 221 483 174 l 483 364 l 313 318 q 208 272 247 300 q 169 188 169 243 m 333 808 q 197 859 249 808 q 142 1003 146 910 l 222 1003 q 253 915 226 949 q 333 882 279 882 q 414 915 388 882 q 444 1003 440 949 l 525 1003 q 469 859 521 910 q 333 808 418 808 z "},"â":{"ha":688,"x_min":54,"x_max":610,"o":"m 274 -12 q 117 36 179 -12 q 54 182 54 85 q 113 319 54 268 q 281 396 171 369 l 483 446 l 483 467 q 439 590 483 556 q 333 625 394 625 q 230 593 272 625 q 172 496 188 561 l 72 515 q 162 661 90 606 q 342 717 233 717 q 530 649 461 717 q 599 450 599 581 l 599 186 q 601 115 599 151 q 610 0 603 78 l 503 0 l 489 90 q 274 -12 418 -12 m 169 188 q 203 100 169 126 q 297 74 238 74 q 388 91 346 74 q 457 141 431 108 q 483 221 483 174 l 483 364 l 313 318 q 208 272 247 300 q 169 188 169 243 m 140 808 l 285 989 l 382 989 l 526 808 l 428 808 l 335 929 l 239 808 l 140 808 z "},"ä":{"ha":688,"x_min":54,"x_max":610,"o":"m 274 -12 q 117 36 179 -12 q 54 182 54 85 q 113 319 54 268 q 281 396 171 369 l 483 446 l 483 467 q 439 590 483 556 q 333 625 394 625 q 230 593 272 625 q 172 496 188 561 l 72 515 q 162 661 90 606 q 342 717 233 717 q 530 649 461 717 q 599 450 599 581 l 599 186 q 601 115 599 151 q 610 0 603 78 l 503 0 l 489 90 q 274 -12 418 -12 m 169 188 q 203 100 169 126 q 297 74 238 74 q 388 91 346 74 q 457 141 431 108 q 483 221 483 174 l 483 364 l 313 318 q 208 272 247 300 q 169 188 169 243 m 389 847 l 389 972 l 504 972 l 504 847 l 389 847 m 163 847 l 163 972 l 278 972 l 278 847 l 163 847 z "},"à":{"ha":688,"x_min":54,"x_max":610,"o":"m 274 -12 q 117 36 179 -12 q 54 182 54 85 q 113 319 54 268 q 281 396 171 369 l 483 446 l 483 467 q 439 590 483 556 q 333 625 394 625 q 230 593 272 625 q 172 496 188 561 l 72 515 q 162 661 90 606 q 342 717 233 717 q 530 649 461 717 q 599 450 599 581 l 599 186 q 601 115 599 151 q 610 0 603 78 l 503 0 l 489 90 q 274 -12 418 -12 m 169 188 q 203 100 169 126 q 297 74 238 74 q 388 91 346 74 q 457 141 431 108 q 483 221 483 174 l 483 364 l 313 318 q 208 272 247 300 q 169 188 169 243 m 297 794 l 144 1003 l 232 1031 l 375 808 l 297 794 z "},"ā":{"ha":688,"x_min":54,"x_max":610,"o":"m 274 -12 q 117 36 179 -12 q 54 182 54 85 q 113 319 54 268 q 281 396 171 369 l 483 446 l 483 467 q 439 590 483 556 q 333 625 394 625 q 230 593 272 625 q 172 496 188 561 l 72 515 q 162 661 90 606 q 342 717 233 717 q 530 649 461 717 q 599 450 599 581 l 599 186 q 601 115 599 151 q 610 0 603 78 l 503 0 l 489 90 q 274 -12 418 -12 m 169 188 q 203 100 169 126 q 297 74 238 74 q 388 91 346 74 q 457 141 431 108 q 483 221 483 174 l 483 364 l 313 318 q 208 272 247 300 q 169 188 169 243 m 121 832 l 121 908 l 544 908 l 544 832 l 121 832 z "},"ą":{"ha":688,"x_min":54,"x_max":625,"o":"m 274 -12 q 117 36 179 -12 q 54 182 54 85 q 113 319 54 268 q 281 396 171 369 l 483 446 l 483 467 q 439 590 483 556 q 333 625 394 625 q 230 593 272 625 q 172 496 188 561 l 72 515 q 162 661 90 606 q 342 717 233 717 q 530 649 461 717 q 599 450 599 581 l 599 186 q 601 115 599 151 q 610 0 603 78 l 596 0 q 556 -42 574 -19 q 538 -92 538 -64 q 565 -139 538 -128 q 625 -147 592 -150 l 625 -219 q 547 -222 589 -228 q 474 -192 504 -217 q 443 -117 443 -167 q 460 -53 443 -83 q 503 0 478 -24 l 503 0 l 489 90 q 274 -12 418 -12 m 169 188 q 203 100 169 126 q 297 74 238 74 q 388 91 346 74 q 457 141 431 108 q 483 221 483 174 l 483 364 l 313 318 q 208 272 247 300 q 169 188 169 243 z "},"å":{"ha":688,"x_min":54,"x_max":610,"o":"m 274 -12 q 117 36 179 -12 q 54 182 54 85 q 113 319 54 268 q 281 396 171 369 l 483 446 l 483 467 q 439 590 483 556 q 333 625 394 625 q 230 593 272 625 q 172 496 188 561 l 72 515 q 162 661 90 606 q 342 717 233 717 q 530 649 461 717 q 599 450 599 581 l 599 186 q 601 115 599 151 q 610 0 603 78 l 503 0 l 489 90 q 274 -12 418 -12 m 169 188 q 203 100 169 126 q 297 74 238 74 q 388 91 346 74 q 457 141 431 108 q 483 221 483 174 l 483 364 l 313 318 q 208 272 247 300 q 169 188 169 243 m 333 797 q 244 832 281 797 q 208 918 208 867 q 244 1005 208 971 q 333 1039 281 1039 q 422 1005 386 1039 q 458 918 458 971 q 422 832 458 867 q 333 797 386 797 m 333 856 q 378 874 361 856 q 394 918 394 892 q 378 964 394 946 q 333 982 361 982 q 290 964 307 982 q 272 918 272 946 q 290 874 272 892 q 333 856 307 856 z "},"ã":{"ha":688,"x_min":54,"x_max":610,"o":"m 274 -12 q 117 36 179 -12 q 54 182 54 85 q 113 319 54 268 q 281 396 171 369 l 483 446 l 483 467 q 439 590 483 556 q 333 625 394 625 q 230 593 272 625 q 172 496 188 561 l 72 515 q 162 661 90 606 q 342 717 233 717 q 530 649 461 717 q 599 450 599 581 l 599 186 q 601 115 599 151 q 610 0 603 78 l 503 0 l 489 90 q 274 -12 418 -12 m 169 188 q 203 100 169 126 q 297 74 238 74 q 388 91 346 74 q 457 141 431 108 q 483 221 483 174 l 483 364 l 313 318 q 208 272 247 300 q 169 188 169 243 m 401 825 q 340 843 365 825 q 293 879 314 861 q 249 897 272 897 q 218 881 231 897 q 203 833 206 865 l 131 833 q 173 936 139 903 q 249 969 207 969 q 316 951 290 969 q 363 915 342 933 q 408 897 383 897 q 438 915 428 897 q 450 961 449 933 l 524 961 q 478 856 514 888 q 401 825 442 825 z "},"æ":{"ha":1128,"x_min":54,"x_max":1076,"o":"m 288 -17 q 120 33 186 -17 q 54 182 54 82 q 113 319 54 268 q 281 396 171 369 l 483 446 l 483 467 q 439 590 483 556 q 333 625 394 625 q 230 593 272 625 q 172 496 188 561 l 72 515 q 162 661 90 606 q 342 717 233 717 q 472 685 419 717 q 557 590 525 653 q 658 685 597 654 q 792 717 719 717 q 961 663 897 717 q 1051 522 1025 608 q 1065 339 1076 436 l 596 339 q 652 144 600 211 q 797 78 704 78 q 910 113 864 78 q 975 228 956 149 l 1069 206 q 976 42 1053 101 q 797 -17 900 -17 q 655 17 721 -17 q 547 126 589 50 q 449 21 515 58 q 288 -17 382 -17 m 794 622 q 663 574 718 622 q 597 428 607 525 l 964 428 q 920 566 964 510 q 794 622 876 622 m 169 188 q 203 97 169 125 q 297 69 238 69 q 388 88 346 69 q 457 142 431 106 q 483 235 483 179 l 483 364 l 313 318 q 208 272 247 300 q 169 188 169 243 z "},"ǽ":{"ha":1128,"x_min":54,"x_max":1076,"o":"m 288 -17 q 120 33 186 -17 q 54 182 54 82 q 113 319 54 268 q 281 396 171 369 l 483 446 l 483 467 q 439 590 483 556 q 333 625 394 625 q 230 593 272 625 q 172 496 188 561 l 72 515 q 162 661 90 606 q 342 717 233 717 q 472 685 419 717 q 557 590 525 653 q 658 685 597 654 q 792 717 719 717 q 961 663 897 717 q 1051 522 1025 608 q 1065 339 1076 436 l 596 339 q 652 144 600 211 q 797 78 704 78 q 910 113 864 78 q 975 228 956 149 l 1069 206 q 976 42 1053 101 q 797 -17 900 -17 q 655 17 721 -17 q 547 126 589 50 q 449 21 515 58 q 288 -17 382 -17 m 794 622 q 663 574 718 622 q 597 428 607 525 l 964 428 q 920 566 964 510 q 794 622 876 622 m 169 188 q 203 97 169 125 q 297 69 238 69 q 388 88 346 69 q 457 142 431 106 q 483 235 483 179 l 483 364 l 313 318 q 208 272 247 300 q 169 188 169 243 m 603 794 l 525 808 l 668 1031 l 756 1003 l 603 794 z "},"b":{"ha":763,"x_min":94,"x_max":706,"o":"m 94 0 l 94 986 l 210 986 l 210 607 q 298 688 244 658 q 418 717 351 717 q 561 677 496 717 q 666 556 626 638 q 706 351 706 475 q 664 145 706 226 q 557 24 622 64 q 418 -17 492 -17 q 291 12 343 -17 q 206 93 239 40 l 192 0 l 94 0 m 210 322 q 238 178 210 232 q 311 99 267 124 q 404 75 356 75 q 538 138 486 75 q 590 331 590 200 l 590 369 q 538 563 590 501 q 403 625 486 625 q 310 601 354 625 q 238 522 265 576 q 210 378 210 468 l 210 322 z "},"c":{"ha":711,"x_min":54,"x_max":664,"o":"m 378 -17 q 209 30 282 -17 q 95 160 136 76 q 54 350 54 243 q 95 540 54 457 q 208 669 136 622 q 375 717 281 717 q 503 690 443 717 q 605 610 563 663 q 660 479 647 557 l 560 463 q 489 586 540 550 q 376 622 438 622 q 224 552 279 622 q 169 369 169 482 l 169 332 q 225 148 169 218 q 378 78 281 78 q 499 118 449 78 q 564 239 550 158 l 664 222 q 610 91 653 144 q 508 10 568 38 q 378 -17 447 -17 z "},"ć":{"ha":711,"x_min":54,"x_max":664,"o":"m 378 -17 q 209 30 282 -17 q 95 160 136 76 q 54 350 54 243 q 95 540 54 457 q 208 669 136 622 q 375 717 281 717 q 503 690 443 717 q 605 610 563 663 q 660 479 647 557 l 560 463 q 489 586 540 550 q 376 622 438 622 q 224 552 279 622 q 169 369 169 482 l 169 332 q 225 148 169 218 q 378 78 281 78 q 499 118 449 78 q 564 239 550 158 l 664 222 q 610 91 653 144 q 508 10 568 38 q 378 -17 447 -17 m 389 794 l 311 808 l 454 1031 l 542 1003 l 389 794 z "},"č":{"ha":711,"x_min":54,"x_max":664,"o":"m 378 -17 q 209 30 282 -17 q 95 160 136 76 q 54 350 54 243 q 95 540 54 457 q 208 669 136 622 q 375 717 281 717 q 503 690 443 717 q 605 610 563 663 q 660 479 647 557 l 560 463 q 489 586 540 550 q 376 622 438 622 q 224 552 279 622 q 169 369 169 482 l 169 332 q 225 148 169 218 q 378 78 281 78 q 499 118 449 78 q 564 239 550 158 l 664 222 q 610 91 653 144 q 508 10 568 38 q 378 -17 447 -17 m 304 808 l 160 989 l 258 989 l 354 868 l 447 989 l 546 989 l 401 808 l 304 808 z "},"ç":{"ha":711,"x_min":54,"x_max":664,"o":"m 378 -17 q 209 30 282 -17 q 95 160 136 76 q 54 350 54 243 q 95 540 54 457 q 208 669 136 622 q 375 717 281 717 q 503 690 443 717 q 605 610 563 663 q 660 479 647 557 l 560 463 q 489 586 540 550 q 376 622 438 622 q 224 552 279 622 q 169 369 169 482 l 169 332 q 225 148 169 218 q 378 78 281 78 q 499 118 449 78 q 564 239 550 158 l 664 222 q 610 91 653 144 q 508 10 568 38 q 378 -17 447 -17 m 374 -226 q 321 -224 343 -226 q 268 -215 299 -221 l 268 -144 q 339 -153 300 -150 q 406 -151 378 -157 q 433 -126 433 -146 q 409 -101 433 -108 q 324 -85 385 -93 l 326 3 l 407 3 l 408 -40 q 491 -65 457 -46 q 525 -129 525 -83 q 488 -200 525 -174 q 374 -226 451 -226 z "},"ĉ":{"ha":711,"x_min":54,"x_max":664,"o":"m 378 -17 q 209 30 282 -17 q 95 160 136 76 q 54 350 54 243 q 95 540 54 457 q 208 669 136 622 q 375 717 281 717 q 503 690 443 717 q 605 610 563 663 q 660 479 647 557 l 560 463 q 489 586 540 550 q 376 622 438 622 q 224 552 279 622 q 169 369 169 482 l 169 332 q 225 148 169 218 q 378 78 281 78 q 499 118 449 78 q 564 239 550 158 l 664 222 q 610 91 653 144 q 508 10 568 38 q 378 -17 447 -17 m 160 808 l 304 989 l 401 989 l 546 808 l 447 808 l 354 929 l 258 808 l 160 808 z "},"ċ":{"ha":711,"x_min":54,"x_max":664,"o":"m 378 -17 q 209 30 282 -17 q 95 160 136 76 q 54 350 54 243 q 95 540 54 457 q 208 669 136 622 q 375 717 281 717 q 503 690 443 717 q 605 610 563 663 q 660 479 647 557 l 560 463 q 489 586 540 550 q 376 622 438 622 q 224 552 279 622 q 169 369 169 482 l 169 332 q 225 148 169 218 q 378 78 281 78 q 499 118 449 78 q 564 239 550 158 l 664 222 q 610 91 653 144 q 508 10 568 38 q 378 -17 447 -17 m 294 847 l 294 972 l 410 972 l 410 847 l 294 847 z "},"d":{"ha":763,"x_min":57,"x_max":668,"o":"m 344 -17 q 206 24 272 -17 q 99 145 140 64 q 57 351 57 226 q 97 556 57 475 q 201 677 136 638 q 344 717 267 717 q 463 689 410 717 q 553 610 517 661 l 553 986 l 668 986 l 668 0 l 553 0 l 553 83 q 468 9 519 35 q 344 -17 417 -17 m 172 331 q 224 138 172 200 q 358 75 276 75 q 451 99 407 75 q 524 178 496 124 q 553 322 553 232 l 553 378 q 525 522 553 468 q 453 601 497 576 q 360 625 408 625 q 224 563 276 625 q 172 369 172 501 l 172 331 z "},"ď":{"ha":817,"x_min":57,"x_max":857,"o":"m 749 692 l 763 986 l 857 986 l 819 692 l 749 692 m 344 -17 q 206 24 272 -17 q 99 145 140 64 q 57 351 57 226 q 97 556 57 475 q 201 677 136 638 q 344 717 267 717 q 463 689 410 717 q 553 610 517 661 l 553 986 l 668 986 l 668 0 l 553 0 l 553 83 q 468 9 519 35 q 344 -17 417 -17 m 172 331 q 224 138 172 200 q 358 75 276 75 q 451 99 407 75 q 524 178 496 124 q 553 322 553 232 l 553 378 q 525 522 553 468 q 453 601 497 576 q 360 625 408 625 q 224 563 276 625 q 172 369 172 501 l 172 331 z "},"đ":{"ha":763,"x_min":57,"x_max":756,"o":"m 344 -17 q 206 24 272 -17 q 99 145 140 64 q 57 351 57 226 q 97 556 57 475 q 201 677 136 638 q 344 717 267 717 q 463 689 410 717 q 553 610 517 661 l 553 806 l 350 806 l 350 889 l 553 889 l 553 986 l 668 986 l 668 889 l 756 889 l 756 806 l 668 806 l 668 0 l 553 0 l 553 83 q 468 9 519 35 q 344 -17 417 -17 m 172 331 q 224 138 172 200 q 358 75 276 75 q 451 99 407 75 q 524 178 496 124 q 553 322 553 232 l 553 378 q 525 522 553 468 q 453 601 497 576 q 360 625 408 625 q 224 563 276 625 q 172 369 172 501 l 172 331 z "},"ð":{"ha":751,"x_min":56,"x_max":689,"o":"m 372 -17 q 210 26 282 -17 q 97 151 139 69 q 56 350 56 233 q 94 549 56 467 q 201 674 133 631 q 351 717 268 717 q 451 701 404 717 q 535 656 497 686 q 481 743 514 701 q 397 822 447 785 l 219 738 l 219 821 l 324 871 q 219 921 276 897 l 271 1003 q 356 963 317 985 q 428 919 394 942 l 604 1003 l 604 919 l 494 867 q 600 741 561 807 q 658 608 639 675 q 683 479 678 542 q 689 364 689 417 q 647 150 689 235 q 534 24 606 65 q 372 -17 463 -17 m 372 75 q 517 138 461 75 q 574 331 574 200 l 574 369 q 517 563 574 501 q 372 625 461 625 q 227 564 283 625 q 171 372 171 503 l 171 328 q 227 136 171 197 q 372 75 283 75 z "},"e":{"ha":713,"x_min":56,"x_max":663,"o":"m 374 -17 q 208 28 279 -17 q 96 156 136 74 q 56 347 56 238 q 96 544 56 461 q 208 672 136 626 q 374 717 281 717 q 547 663 482 717 q 637 522 611 608 q 651 339 663 436 l 169 339 q 226 144 174 211 q 374 78 279 78 q 494 113 447 78 q 561 228 542 149 l 656 206 q 561 42 639 101 q 374 -17 483 -17 m 372 622 q 237 574 293 622 q 171 428 181 525 l 550 428 q 500 572 544 522 q 372 622 456 622 z "},"é":{"ha":713,"x_min":56,"x_max":663,"o":"m 374 -17 q 208 28 279 -17 q 96 156 136 74 q 56 347 56 238 q 96 544 56 461 q 208 672 136 626 q 374 717 281 717 q 547 663 482 717 q 637 522 611 608 q 651 339 663 436 l 169 339 q 226 144 174 211 q 374 78 279 78 q 494 113 447 78 q 561 228 542 149 l 656 206 q 561 42 639 101 q 374 -17 483 -17 m 372 622 q 237 574 293 622 q 171 428 181 525 l 550 428 q 500 572 544 522 q 372 622 456 622 m 410 794 l 332 808 l 475 1031 l 563 1003 l 410 794 z "},"ĕ":{"ha":713,"x_min":56,"x_max":663,"o":"m 374 -17 q 208 28 279 -17 q 96 156 136 74 q 56 347 56 238 q 96 544 56 461 q 208 672 136 626 q 374 717 281 717 q 547 663 482 717 q 637 522 611 608 q 651 339 663 436 l 169 339 q 226 144 174 211 q 374 78 279 78 q 494 113 447 78 q 561 228 542 149 l 656 206 q 561 42 639 101 q 374 -17 483 -17 m 372 622 q 237 574 293 622 q 171 428 181 525 l 550 428 q 500 572 544 522 q 372 622 456 622 m 374 808 q 238 859 289 808 q 182 1003 186 910 l 263 1003 q 293 915 267 949 q 374 882 319 882 q 454 915 428 882 q 485 1003 481 949 l 565 1003 q 510 859 561 910 q 374 808 458 808 z "},"ě":{"ha":713,"x_min":56,"x_max":663,"o":"m 374 -17 q 208 28 279 -17 q 96 156 136 74 q 56 347 56 238 q 96 544 56 461 q 208 672 136 626 q 374 717 281 717 q 547 663 482 717 q 637 522 611 608 q 651 339 663 436 l 169 339 q 226 144 174 211 q 374 78 279 78 q 494 113 447 78 q 561 228 542 149 l 656 206 q 561 42 639 101 q 374 -17 483 -17 m 372 622 q 237 574 293 622 q 171 428 181 525 l 550 428 q 500 572 544 522 q 372 622 456 622 m 325 808 l 181 989 l 279 989 l 375 868 l 468 989 l 567 989 l 422 808 l 325 808 z "},"ê":{"ha":713,"x_min":56,"x_max":663,"o":"m 374 -17 q 208 28 279 -17 q 96 156 136 74 q 56 347 56 238 q 96 544 56 461 q 208 672 136 626 q 374 717 281 717 q 547 663 482 717 q 637 522 611 608 q 651 339 663 436 l 169 339 q 226 144 174 211 q 374 78 279 78 q 494 113 447 78 q 561 228 542 149 l 656 206 q 561 42 639 101 q 374 -17 483 -17 m 372 622 q 237 574 293 622 q 171 428 181 525 l 550 428 q 500 572 544 522 q 372 622 456 622 m 181 808 l 325 989 l 422 989 l 567 808 l 468 808 l 375 929 l 279 808 l 181 808 z "},"ë":{"ha":713,"x_min":56,"x_max":663,"o":"m 374 -17 q 208 28 279 -17 q 96 156 136 74 q 56 347 56 238 q 96 544 56 461 q 208 672 136 626 q 374 717 281 717 q 547 663 482 717 q 637 522 611 608 q 651 339 663 436 l 169 339 q 226 144 174 211 q 374 78 279 78 q 494 113 447 78 q 561 228 542 149 l 656 206 q 561 42 639 101 q 374 -17 483 -17 m 372 622 q 237 574 293 622 q 171 428 181 525 l 550 428 q 500 572 544 522 q 372 622 456 622 m 429 847 l 429 972 l 544 972 l 544 847 l 429 847 m 203 847 l 203 972 l 318 972 l 318 847 l 203 847 z "},"ė":{"ha":713,"x_min":56,"x_max":663,"o":"m 374 -17 q 208 28 279 -17 q 96 156 136 74 q 56 347 56 238 q 96 544 56 461 q 208 672 136 626 q 374 717 281 717 q 547 663 482 717 q 637 522 611 608 q 651 339 663 436 l 169 339 q 226 144 174 211 q 374 78 279 78 q 494 113 447 78 q 561 228 542 149 l 656 206 q 561 42 639 101 q 374 -17 483 -17 m 372 622 q 237 574 293 622 q 171 428 181 525 l 550 428 q 500 572 544 522 q 372 622 456 622 m 315 847 l 315 972 l 431 972 l 431 847 l 315 847 z "},"è":{"ha":713,"x_min":56,"x_max":663,"o":"m 374 -17 q 208 28 279 -17 q 96 156 136 74 q 56 347 56 238 q 96 544 56 461 q 208 672 136 626 q 374 717 281 717 q 547 663 482 717 q 637 522 611 608 q 651 339 663 436 l 169 339 q 226 144 174 211 q 374 78 279 78 q 494 113 447 78 q 561 228 542 149 l 656 206 q 561 42 639 101 q 374 -17 483 -17 m 372 622 q 237 574 293 622 q 171 428 181 525 l 550 428 q 500 572 544 522 q 372 622 456 622 m 338 794 l 185 1003 l 272 1031 l 415 808 l 338 794 z "},"ē":{"ha":713,"x_min":56,"x_max":663,"o":"m 374 -17 q 208 28 279 -17 q 96 156 136 74 q 56 347 56 238 q 96 544 56 461 q 208 672 136 626 q 374 717 281 717 q 547 663 482 717 q 637 522 611 608 q 651 339 663 436 l 169 339 q 226 144 174 211 q 374 78 279 78 q 494 113 447 78 q 561 228 542 149 l 656 206 q 561 42 639 101 q 374 -17 483 -17 m 372 622 q 237 574 293 622 q 171 428 181 525 l 550 428 q 500 572 544 522 q 372 622 456 622 m 161 832 l 161 908 l 585 908 l 585 832 l 161 832 z "},"ę":{"ha":713,"x_min":56,"x_max":663,"o":"m 594 -219 q 510 -222 556 -228 q 433 -190 465 -217 q 400 -111 400 -162 q 413 -57 400 -82 q 447 -10 426 -32 q 411 -15 429 -12 q 374 -17 393 -17 q 208 28 279 -17 q 96 156 136 74 q 56 347 56 238 q 96 544 56 461 q 208 672 136 626 q 374 717 281 717 q 547 663 482 717 q 637 522 611 608 q 651 339 663 436 l 169 339 q 226 144 174 211 q 374 78 279 78 q 494 113 447 78 q 561 228 542 149 l 656 206 q 626 122 649 158 q 568 47 604 85 q 516 -21 536 13 q 496 -83 496 -54 q 528 -138 496 -126 q 594 -147 561 -150 l 594 -219 m 372 622 q 237 574 293 622 q 171 428 181 525 l 550 428 q 500 572 544 522 q 372 622 456 622 z "},"f":{"ha":432,"x_min":24,"x_max":463,"o":"m 136 0 l 136 608 l 24 608 l 24 700 l 136 700 l 136 782 q 168 907 136 858 q 251 979 200 956 q 361 1003 303 1003 q 413 999 389 1003 q 463 986 436 994 l 463 896 q 371 910 407 910 q 284 881 317 910 q 251 788 251 853 l 251 700 l 418 700 l 418 608 l 251 608 l 251 0 l 136 0 z "},"g":{"ha":739,"x_min":35,"x_max":713,"o":"m 350 250 q 242 264 292 250 q 204 206 204 238 q 226 165 204 178 q 290 149 247 151 l 518 132 q 663 78 613 125 q 713 -44 713 31 q 621 -194 713 -142 q 363 -246 529 -246 q 167 -222 239 -246 q 65 -158 96 -197 q 35 -69 35 -118 q 67 21 35 -21 q 153 88 99 63 q 112 131 122 104 q 101 179 101 157 q 117 239 101 210 q 172 292 133 268 q 89 373 118 324 q 60 482 60 422 q 94 601 60 549 q 193 685 128 654 q 350 717 258 717 q 437 708 397 717 q 510 685 476 700 q 569 751 531 726 q 663 775 607 775 q 706 771 685 775 l 706 664 q 640 667 676 669 q 571 643 604 664 q 640 482 640 579 q 606 364 640 417 q 506 281 571 311 q 350 250 442 250 m 350 333 q 482 374 439 333 q 525 482 525 414 q 483 592 525 550 q 350 633 440 633 q 218 592 261 633 q 175 482 175 550 q 218 374 175 414 q 350 333 261 333 m 140 -47 q 200 -137 140 -111 q 365 -162 260 -162 q 549 -134 496 -162 q 603 -51 603 -106 q 578 8 603 -18 q 485 40 554 35 l 228 58 q 164 15 188 42 q 140 -47 140 -12 z "},"ğ":{"ha":739,"x_min":35,"x_max":713,"o":"m 350 250 q 242 264 292 250 q 204 206 204 238 q 226 165 204 178 q 290 149 247 151 l 518 132 q 663 78 613 125 q 713 -44 713 31 q 621 -194 713 -142 q 363 -246 529 -246 q 167 -222 239 -246 q 65 -158 96 -197 q 35 -69 35 -118 q 67 21 35 -21 q 153 88 99 63 q 112 131 122 104 q 101 179 101 157 q 117 239 101 210 q 172 292 133 268 q 89 373 118 324 q 60 482 60 422 q 94 601 60 549 q 193 685 128 654 q 350 717 258 717 q 437 708 397 717 q 510 685 476 700 q 569 751 531 726 q 663 775 607 775 q 706 771 685 775 l 706 664 q 640 667 676 669 q 571 643 604 664 q 640 482 640 579 q 606 364 640 417 q 506 281 571 311 q 350 250 442 250 m 350 333 q 482 374 439 333 q 525 482 525 414 q 483 592 525 550 q 350 633 440 633 q 218 592 261 633 q 175 482 175 550 q 218 374 175 414 q 350 333 261 333 m 140 -47 q 200 -137 140 -111 q 365 -162 260 -162 q 549 -134 496 -162 q 603 -51 603 -106 q 578 8 603 -18 q 485 40 554 35 l 228 58 q 164 15 188 42 q 140 -47 140 -12 m 349 808 q 213 859 264 808 q 157 1003 161 910 l 238 1003 q 268 915 242 949 q 349 882 294 882 q 429 915 403 882 q 460 1003 456 949 l 540 1003 q 485 859 536 910 q 349 808 433 808 z "},"ĝ":{"ha":739,"x_min":35,"x_max":713,"o":"m 350 250 q 242 264 292 250 q 204 206 204 238 q 226 165 204 178 q 290 149 247 151 l 518 132 q 663 78 613 125 q 713 -44 713 31 q 621 -194 713 -142 q 363 -246 529 -246 q 167 -222 239 -246 q 65 -158 96 -197 q 35 -69 35 -118 q 67 21 35 -21 q 153 88 99 63 q 112 131 122 104 q 101 179 101 157 q 117 239 101 210 q 172 292 133 268 q 89 373 118 324 q 60 482 60 422 q 94 601 60 549 q 193 685 128 654 q 350 717 258 717 q 437 708 397 717 q 510 685 476 700 q 569 751 531 726 q 663 775 607 775 q 706 771 685 775 l 706 664 q 640 667 676 669 q 571 643 604 664 q 640 482 640 579 q 606 364 640 417 q 506 281 571 311 q 350 250 442 250 m 350 333 q 482 374 439 333 q 525 482 525 414 q 483 592 525 550 q 350 633 440 633 q 218 592 261 633 q 175 482 175 550 q 218 374 175 414 q 350 333 261 333 m 140 -47 q 200 -137 140 -111 q 365 -162 260 -162 q 549 -134 496 -162 q 603 -51 603 -106 q 578 8 603 -18 q 485 40 554 35 l 228 58 q 164 15 188 42 q 140 -47 140 -12 m 156 808 l 300 989 l 397 989 l 542 808 l 443 808 l 350 929 l 254 808 l 156 808 z "},"ģ":{"ha":739,"x_min":35,"x_max":713,"o":"m 404 1036 l 365 919 l 410 919 l 410 804 l 288 804 l 288 897 l 336 1036 l 404 1036 m 350 250 q 242 264 292 250 q 204 206 204 238 q 226 165 204 178 q 290 149 247 151 l 518 132 q 663 78 613 125 q 713 -44 713 31 q 621 -194 713 -142 q 363 -246 529 -246 q 167 -222 239 -246 q 65 -158 96 -197 q 35 -69 35 -118 q 67 21 35 -21 q 153 88 99 63 q 112 131 122 104 q 101 179 101 157 q 117 239 101 210 q 172 292 133 268 q 89 373 118 324 q 60 482 60 422 q 94 601 60 549 q 193 685 128 654 q 350 717 258 717 q 437 708 397 717 q 510 685 476 700 q 569 751 531 726 q 663 775 607 775 q 706 771 685 775 l 706 664 q 640 667 676 669 q 571 643 604 664 q 640 482 640 579 q 606 364 640 417 q 506 281 571 311 q 350 250 442 250 m 350 333 q 482 374 439 333 q 525 482 525 414 q 483 592 525 550 q 350 633 440 633 q 218 592 261 633 q 175 482 175 550 q 218 374 175 414 q 350 333 261 333 m 140 -47 q 200 -137 140 -111 q 365 -162 260 -162 q 549 -134 496 -162 q 603 -51 603 -106 q 578 8 603 -18 q 485 40 554 35 l 228 58 q 164 15 188 42 q 140 -47 140 -12 z "},"ġ":{"ha":739,"x_min":35,"x_max":713,"o":"m 350 250 q 242 264 292 250 q 204 206 204 238 q 226 165 204 178 q 290 149 247 151 l 518 132 q 663 78 613 125 q 713 -44 713 31 q 621 -194 713 -142 q 363 -246 529 -246 q 167 -222 239 -246 q 65 -158 96 -197 q 35 -69 35 -118 q 67 21 35 -21 q 153 88 99 63 q 112 131 122 104 q 101 179 101 157 q 117 239 101 210 q 172 292 133 268 q 89 373 118 324 q 60 482 60 422 q 94 601 60 549 q 193 685 128 654 q 350 717 258 717 q 437 708 397 717 q 510 685 476 700 q 569 751 531 726 q 663 775 607 775 q 706 771 685 775 l 706 664 q 640 667 676 669 q 571 643 604 664 q 640 482 640 579 q 606 364 640 417 q 506 281 571 311 q 350 250 442 250 m 350 333 q 482 374 439 333 q 525 482 525 414 q 483 592 525 550 q 350 633 440 633 q 218 592 261 633 q 175 482 175 550 q 218 374 175 414 q 350 333 261 333 m 140 -47 q 200 -137 140 -111 q 365 -162 260 -162 q 549 -134 496 -162 q 603 -51 603 -106 q 578 8 603 -18 q 485 40 554 35 l 228 58 q 164 15 188 42 q 140 -47 140 -12 m 290 847 l 290 972 l 406 972 l 406 847 l 290 847 z "},"h":{"ha":739,"x_min":94,"x_max":650,"o":"m 94 0 l 94 986 l 210 986 l 210 592 q 297 685 243 654 q 417 717 350 717 q 585 649 521 717 q 650 461 650 581 l 650 0 l 535 0 l 535 449 q 495 581 535 539 q 386 624 456 624 q 302 606 343 624 q 235 547 261 588 q 210 436 210 506 l 210 0 l 94 0 z "},"ħ":{"ha":739,"x_min":-4,"x_max":650,"o":"m 94 0 l 94 806 l -4 806 l -4 889 l 94 889 l 94 986 l 210 986 l 210 889 l 401 889 l 401 806 l 210 806 l 210 592 q 297 685 243 654 q 417 717 350 717 q 585 649 521 717 q 650 461 650 581 l 650 0 l 535 0 l 535 449 q 495 581 535 539 q 386 624 456 624 q 302 606 343 624 q 235 547 261 588 q 210 436 210 506 l 210 0 l 94 0 z "},"ĥ":{"ha":739,"x_min":92,"x_max":650,"o":"m 94 0 l 94 986 l 210 986 l 210 592 q 297 685 243 654 q 417 717 350 717 q 585 649 521 717 q 650 461 650 581 l 650 0 l 535 0 l 535 449 q 495 581 535 539 q 386 624 456 624 q 302 606 343 624 q 235 547 261 588 q 210 436 210 506 l 210 0 l 94 0 m 92 1067 l 243 1247 l 340 1247 l 492 1067 l 394 1067 l 293 1189 l 189 1067 l 92 1067 z "},"i":{"ha":304,"x_min":94,"x_max":210,"o":"m 94 847 l 94 972 l 210 972 l 210 847 l 94 847 m 94 0 l 94 700 l 210 700 l 210 0 l 94 0 z "},"ı":{"ha":304,"x_min":94,"x_max":210,"o":"m 94 0 l 94 700 l 210 700 l 210 0 l 94 0 z "},"í":{"ha":304,"x_min":94,"x_max":342,"o":"m 94 0 l 94 700 l 210 700 l 210 0 l 94 0 m 189 794 l 111 808 l 254 1031 l 342 1003 l 189 794 z "},"ĭ":{"ha":304,"x_min":-39,"x_max":344,"o":"m 94 0 l 94 700 l 210 700 l 210 0 l 94 0 m 153 808 q 17 859 68 808 q -39 1003 -35 910 l 42 1003 q 72 915 46 949 q 153 882 99 882 q 233 915 207 882 q 264 1003 260 949 l 344 1003 q 289 859 340 910 q 153 808 238 808 z "},"î":{"ha":304,"x_min":-40,"x_max":346,"o":"m 94 0 l 94 700 l 210 700 l 210 0 l 94 0 m -40 824 l 104 1004 l 201 1004 l 346 824 l 247 824 l 154 944 l 58 824 l -40 824 z "},"ï":{"ha":304,"x_min":-8,"x_max":314,"o":"m 94 0 l 94 700 l 210 700 l 210 0 l 94 0 m -8 847 l -8 972 l 107 972 l 107 847 l -8 847 m 199 847 l 199 972 l 314 972 l 314 847 l 199 847 z "},"ì":{"ha":304,"x_min":-36,"x_max":210,"o":"m 94 0 l 94 700 l 210 700 l 210 0 l 94 0 m 117 794 l -36 1003 l 51 1031 l 194 808 l 117 794 z "},"ī":{"ha":304,"x_min":-15,"x_max":321,"o":"m -15 832 l -15 908 l 321 908 l 321 832 l -15 832 m 94 0 l 94 700 l 210 700 l 210 0 l 94 0 z "},"į":{"ha":304,"x_min":35,"x_max":229,"o":"m 94 847 l 94 972 l 210 972 l 210 847 l 94 847 m 229 -219 q 145 -222 190 -228 q 67 -190 100 -217 q 35 -111 35 -162 q 58 -49 35 -75 q 110 0 81 -22 l 94 0 l 94 700 l 210 700 l 210 0 l 194 0 q 149 -40 168 -19 q 131 -90 131 -61 q 163 -140 131 -129 q 229 -147 196 -150 l 229 -219 z "},"ĩ":{"ha":304,"x_min":-35,"x_max":339,"o":"m 94 0 l 94 700 l 210 700 l 210 0 l 94 0 m 224 811 q 165 829 189 811 q 121 865 140 847 q 79 883 101 883 q 36 819 40 883 l -35 819 q 5 922 -28 889 q 78 956 38 956 q 141 938 117 956 q 185 901 165 919 q 228 883 206 883 q 257 902 247 883 q 268 947 267 921 l 339 947 q 297 842 331 872 q 224 811 263 811 z "},"ĳ":{"ha":608,"x_min":94,"x_max":514,"o":"m 94 847 l 94 972 l 210 972 l 210 847 l 94 847 m 94 0 l 94 700 l 210 700 l 210 0 l 94 0 m 399 847 l 399 972 l 514 972 l 514 847 l 399 847 m 313 -246 q 252 -241 281 -246 q 196 -228 224 -236 l 196 -142 q 244 -153 219 -149 q 297 -158 269 -158 q 343 -150 319 -158 q 383 -117 367 -142 q 399 -43 399 -93 l 399 700 l 514 700 l 514 -49 q 457 -197 514 -149 q 313 -246 400 -246 z "},"j":{"ha":304,"x_min":-108,"x_max":210,"o":"m 94 847 l 94 972 l 210 972 l 210 847 l 94 847 m 8 -246 q -52 -241 -24 -246 q -108 -228 -81 -236 l -108 -142 q -60 -153 -85 -149 q -7 -158 -35 -158 q 39 -150 15 -158 q 78 -117 63 -142 q 94 -43 94 -93 l 94 700 l 210 700 l 210 -49 q 153 -197 210 -149 q 8 -246 96 -246 z "},"ȷ":{"ha":304,"x_min":-108,"x_max":210,"o":"m 8 -246 q -52 -241 -24 -246 q -108 -228 -81 -236 l -108 -142 q -60 -153 -85 -149 q -7 -158 -35 -158 q 39 -150 15 -158 q 78 -117 63 -142 q 94 -43 94 -93 l 94 700 l 210 700 l 210 -49 q 153 -197 210 -149 q 8 -246 96 -246 z "},"ĵ":{"ha":304,"x_min":-108,"x_max":343,"o":"m 8 -246 q -52 -241 -24 -246 q -108 -228 -81 -236 l -108 -142 q -60 -153 -85 -149 q -7 -158 -35 -158 q 39 -150 15 -158 q 78 -117 63 -142 q 94 -43 94 -93 l 94 700 l 210 700 l 210 -49 q 153 -197 210 -149 q 8 -246 96 -246 m -43 824 l 101 1004 l 199 1004 l 343 824 l 244 824 l 151 944 l 56 824 l -43 824 z "},"k":{"ha":653,"x_min":94,"x_max":644,"o":"m 94 0 l 94 986 l 210 986 l 210 372 l 514 700 l 644 700 l 383 425 l 642 0 l 511 0 l 306 346 l 210 240 l 210 0 l 94 0 z "},"ķ":{"ha":653,"x_min":94,"x_max":644,"o":"m 94 0 l 94 986 l 210 986 l 210 372 l 514 700 l 644 700 l 383 425 l 642 0 l 511 0 l 306 346 l 210 240 l 210 0 l 94 0 m 282 -336 l 321 -219 l 276 -219 l 276 -104 l 399 -104 l 399 -197 l 350 -336 l 282 -336 z "},"ĸ":{"ha":653,"x_min":94,"x_max":644,"o":"m 94 0 l 94 700 l 210 700 l 210 372 l 514 700 l 644 700 l 383 425 l 642 0 l 511 0 l 306 346 l 210 240 l 210 0 l 94 0 z "},"l":{"ha":304,"x_min":94,"x_max":210,"o":"m 94 0 l 94 986 l 210 986 l 210 0 l 94 0 z "},"ĺ":{"ha":304,"x_min":94,"x_max":332,"o":"m 94 0 l 94 986 l 210 986 l 210 0 l 94 0 m 193 1067 l 115 1081 l 244 1268 l 332 1240 l 193 1067 z "},"ľ":{"ha":358,"x_min":94,"x_max":399,"o":"m 290 692 l 304 986 l 399 986 l 361 692 l 290 692 m 94 0 l 94 986 l 210 986 l 210 0 l 94 0 z "},"ļ":{"ha":304,"x_min":92,"x_max":214,"o":"m 94 0 l 94 986 l 210 986 l 210 0 l 94 0 m 97 -336 l 136 -219 l 92 -219 l 92 -104 l 214 -104 l 214 -197 l 165 -336 l 97 -336 z "},"ŀ":{"ha":346,"x_min":94,"x_max":388,"o":"m 94 0 l 94 986 l 210 986 l 210 0 l 94 0 m 265 342 l 265 465 l 388 465 l 388 342 l 265 342 z "},"ł":{"ha":411,"x_min":32,"x_max":382,"o":"m 150 0 l 150 401 l 32 335 l 32 431 l 150 497 l 150 986 l 265 986 l 265 561 l 382 626 l 382 531 l 265 465 l 265 0 l 150 0 z "},"m":{"ha":1129,"x_min":94,"x_max":1040,"o":"m 94 0 l 94 700 l 210 700 l 210 603 q 297 690 244 664 q 407 717 350 717 q 530 683 481 717 q 601 592 579 649 q 685 681 633 646 q 810 717 738 717 q 927 685 875 717 q 1010 597 979 654 q 1040 461 1040 540 l 1040 0 l 925 0 l 925 449 q 888 581 925 539 q 790 624 850 624 q 711 606 749 624 q 649 547 674 588 q 625 436 625 506 l 625 0 l 510 0 l 510 449 q 472 581 510 539 q 375 624 435 624 q 296 606 333 624 q 234 547 258 588 q 210 436 210 506 l 210 0 l 94 0 z "},"n":{"ha":739,"x_min":94,"x_max":650,"o":"m 94 0 l 94 700 l 210 700 l 210 603 q 417 717 275 717 q 585 649 521 717 q 650 461 650 581 l 650 0 l 535 0 l 535 449 q 495 581 535 539 q 386 624 456 624 q 302 606 343 624 q 235 547 261 588 q 210 436 210 506 l 210 0 l 94 0 z "},"ń":{"ha":739,"x_min":94,"x_max":650,"o":"m 94 0 l 94 700 l 210 700 l 210 603 q 417 717 275 717 q 585 649 521 717 q 650 461 650 581 l 650 0 l 535 0 l 535 449 q 495 581 535 539 q 386 624 456 624 q 302 606 343 624 q 235 547 261 588 q 210 436 210 506 l 210 0 l 94 0 m 421 779 l 343 793 l 486 1015 l 574 988 l 421 779 z "},"ň":{"ha":739,"x_min":94,"x_max":650,"o":"m 94 0 l 94 700 l 210 700 l 210 603 q 417 717 275 717 q 585 649 521 717 q 650 461 650 581 l 650 0 l 535 0 l 535 449 q 495 581 535 539 q 386 624 456 624 q 302 606 343 624 q 235 547 261 588 q 210 436 210 506 l 210 0 l 94 0 m 336 793 l 192 974 l 290 974 l 386 853 l 479 974 l 578 974 l 433 793 l 336 793 z "},"ņ":{"ha":739,"x_min":94,"x_max":650,"o":"m 94 0 l 94 700 l 210 700 l 210 603 q 417 717 275 717 q 585 649 521 717 q 650 461 650 581 l 650 0 l 535 0 l 535 449 q 495 581 535 539 q 386 624 456 624 q 302 606 343 624 q 235 547 261 588 q 210 436 210 506 l 210 0 l 94 0 m 314 -336 l 353 -219 l 308 -219 l 308 -104 l 431 -104 l 431 -197 l 382 -336 l 314 -336 z "},"ñ":{"ha":739,"x_min":94,"x_max":650,"o":"m 94 0 l 94 700 l 210 700 l 210 603 q 417 717 275 717 q 585 649 521 717 q 650 461 650 581 l 650 0 l 535 0 l 535 449 q 495 581 535 539 q 386 624 456 624 q 302 606 343 624 q 235 547 261 588 q 210 436 210 506 l 210 0 l 94 0 m 453 810 q 391 828 417 810 q 344 864 365 846 q 300 882 324 882 q 269 866 282 882 q 254 818 257 850 l 182 818 q 224 921 190 888 q 300 954 258 954 q 367 936 342 954 q 414 900 393 918 q 460 882 435 882 q 490 900 479 882 q 501 946 500 918 l 575 946 q 529 841 565 872 q 453 810 493 810 z "},"ŋ":{"ha":739,"x_min":94,"x_max":650,"o":"m 94 0 l 94 700 l 210 700 l 210 603 q 417 717 275 717 q 585 649 521 717 q 650 461 650 581 l 650 -49 q 593 -197 650 -149 q 449 -246 536 -246 q 388 -241 417 -246 q 332 -228 360 -236 l 332 -142 q 381 -153 356 -149 q 433 -158 406 -158 q 479 -150 456 -158 q 519 -117 503 -142 q 535 -43 535 -93 l 535 449 q 495 581 535 539 q 386 624 456 624 q 302 606 343 624 q 235 547 261 588 q 210 436 210 506 l 210 0 l 94 0 z "},"o":{"ha":744,"x_min":56,"x_max":689,"o":"m 372 -17 q 210 26 282 -17 q 97 151 139 69 q 56 350 56 233 q 97 549 56 467 q 210 674 139 631 q 372 717 282 717 q 534 674 463 717 q 647 549 606 631 q 689 350 689 467 q 647 152 689 235 q 534 26 606 69 q 372 -17 463 -17 m 372 75 q 517 138 461 75 q 574 331 574 200 l 574 369 q 517 563 574 501 q 372 625 461 625 q 227 564 283 625 q 171 372 171 503 l 171 328 q 227 136 171 197 q 372 75 283 75 z "},"ó":{"ha":744,"x_min":56,"x_max":689,"o":"m 372 -17 q 210 26 282 -17 q 97 151 139 69 q 56 350 56 233 q 97 549 56 467 q 210 674 139 631 q 372 717 282 717 q 534 674 463 717 q 647 549 606 631 q 689 350 689 467 q 647 152 689 235 q 534 26 606 69 q 372 -17 463 -17 m 372 75 q 517 138 461 75 q 574 331 574 200 l 574 369 q 517 563 574 501 q 372 625 461 625 q 227 564 283 625 q 171 372 171 503 l 171 328 q 227 136 171 197 q 372 75 283 75 m 408 794 l 331 808 l 474 1031 l 561 1003 l 408 794 z "},"ŏ":{"ha":744,"x_min":56,"x_max":689,"o":"m 372 -17 q 210 26 282 -17 q 97 151 139 69 q 56 350 56 233 q 97 549 56 467 q 210 674 139 631 q 372 717 282 717 q 534 674 463 717 q 647 549 606 631 q 689 350 689 467 q 647 152 689 235 q 534 26 606 69 q 372 -17 463 -17 m 372 75 q 517 138 461 75 q 574 331 574 200 l 574 369 q 517 563 574 501 q 372 625 461 625 q 227 564 283 625 q 171 372 171 503 l 171 328 q 227 136 171 197 q 372 75 283 75 m 372 808 q 236 859 288 808 q 181 1003 185 910 l 261 1003 q 292 915 265 949 q 372 882 318 882 q 453 915 426 882 q 483 1003 479 949 l 564 1003 q 508 859 560 910 q 372 808 457 808 z "},"ô":{"ha":744,"x_min":56,"x_max":689,"o":"m 372 -17 q 210 26 282 -17 q 97 151 139 69 q 56 350 56 233 q 97 549 56 467 q 210 674 139 631 q 372 717 282 717 q 534 674 463 717 q 647 549 606 631 q 689 350 689 467 q 647 152 689 235 q 534 26 606 69 q 372 -17 463 -17 m 372 75 q 517 138 461 75 q 574 331 574 200 l 574 369 q 517 563 574 501 q 372 625 461 625 q 227 564 283 625 q 171 372 171 503 l 171 328 q 227 136 171 197 q 372 75 283 75 m 179 808 l 324 989 l 421 989 l 565 808 l 467 808 l 374 929 l 278 808 l 179 808 z "},"ö":{"ha":744,"x_min":56,"x_max":689,"o":"m 372 -17 q 210 26 282 -17 q 97 151 139 69 q 56 350 56 233 q 97 549 56 467 q 210 674 139 631 q 372 717 282 717 q 534 674 463 717 q 647 549 606 631 q 689 350 689 467 q 647 152 689 235 q 534 26 606 69 q 372 -17 463 -17 m 372 75 q 517 138 461 75 q 574 331 574 200 l 574 369 q 517 563 574 501 q 372 625 461 625 q 227 564 283 625 q 171 372 171 503 l 171 328 q 227 136 171 197 q 372 75 283 75 m 428 847 l 428 972 l 543 972 l 543 847 l 428 847 m 201 847 l 201 972 l 317 972 l 317 847 l 201 847 z "},"ò":{"ha":744,"x_min":56,"x_max":689,"o":"m 372 -17 q 210 26 282 -17 q 97 151 139 69 q 56 350 56 233 q 97 549 56 467 q 210 674 139 631 q 372 717 282 717 q 534 674 463 717 q 647 549 606 631 q 689 350 689 467 q 647 152 689 235 q 534 26 606 69 q 372 -17 463 -17 m 372 75 q 517 138 461 75 q 574 331 574 200 l 574 369 q 517 563 574 501 q 372 625 461 625 q 227 564 283 625 q 171 372 171 503 l 171 328 q 227 136 171 197 q 372 75 283 75 m 336 794 l 183 1003 l 271 1031 l 414 808 l 336 794 z "},"ő":{"ha":744,"x_min":56,"x_max":689,"o":"m 372 -17 q 210 26 282 -17 q 97 151 139 69 q 56 350 56 233 q 97 549 56 467 q 210 674 139 631 q 372 717 282 717 q 534 674 463 717 q 647 549 606 631 q 689 350 689 467 q 647 152 689 235 q 534 26 606 69 q 372 -17 463 -17 m 372 75 q 517 138 461 75 q 574 331 574 200 l 574 369 q 517 563 574 501 q 372 625 461 625 q 227 564 283 625 q 171 372 171 503 l 171 328 q 227 136 171 197 q 372 75 283 75 m 471 778 l 419 817 l 574 1042 l 646 988 l 471 778 m 261 778 l 210 817 l 364 1042 l 436 988 l 261 778 z "},"ō":{"ha":744,"x_min":56,"x_max":689,"o":"m 372 -17 q 210 26 282 -17 q 97 151 139 69 q 56 350 56 233 q 97 549 56 467 q 210 674 139 631 q 372 717 282 717 q 534 674 463 717 q 647 549 606 631 q 689 350 689 467 q 647 152 689 235 q 534 26 606 69 q 372 -17 463 -17 m 372 75 q 517 138 461 75 q 574 331 574 200 l 574 369 q 517 563 574 501 q 372 625 461 625 q 227 564 283 625 q 171 372 171 503 l 171 328 q 227 136 171 197 q 372 75 283 75 m 160 832 l 160 908 l 583 908 l 583 832 l 160 832 z "},"ø":{"ha":747,"x_min":57,"x_max":690,"o":"m 139 -17 l 67 42 l 122 111 q 74 217 92 157 q 57 350 57 276 q 99 549 57 467 q 212 674 140 631 q 374 717 283 717 q 560 657 481 717 l 608 717 l 681 658 l 625 589 q 673 483 656 543 q 690 350 690 424 q 649 152 690 235 q 535 26 607 69 q 374 -17 464 -17 q 188 43 265 -17 l 139 -17 m 172 314 q 192 197 172 247 l 500 582 q 374 625 450 625 q 228 564 285 625 q 172 372 172 503 l 172 314 m 374 75 q 519 138 463 75 q 575 331 575 200 l 575 383 q 556 503 575 451 l 246 117 q 374 75 297 75 z "},"ǿ":{"ha":747,"x_min":57,"x_max":690,"o":"m 139 -17 l 67 42 l 122 111 q 74 217 92 157 q 57 350 57 276 q 99 549 57 467 q 212 674 140 631 q 374 717 283 717 q 560 657 481 717 l 608 717 l 681 658 l 625 589 q 673 483 656 543 q 690 350 690 424 q 649 152 690 235 q 535 26 607 69 q 374 -17 464 -17 q 188 43 265 -17 l 139 -17 m 172 314 q 192 197 172 247 l 500 582 q 374 625 450 625 q 228 564 285 625 q 172 372 172 503 l 172 314 m 374 75 q 519 138 463 75 q 575 331 575 200 l 575 383 q 556 503 575 451 l 246 117 q 374 75 297 75 m 410 794 l 332 808 l 475 1031 l 563 1003 l 410 794 z "},"õ":{"ha":744,"x_min":56,"x_max":689,"o":"m 372 -17 q 210 26 282 -17 q 97 151 139 69 q 56 350 56 233 q 97 549 56 467 q 210 674 139 631 q 372 717 282 717 q 534 674 463 717 q 647 549 606 631 q 689 350 689 467 q 647 152 689 235 q 534 26 606 69 q 372 -17 463 -17 m 372 75 q 517 138 461 75 q 574 331 574 200 l 574 369 q 517 563 574 501 q 372 625 461 625 q 227 564 283 625 q 171 372 171 503 l 171 328 q 227 136 171 197 q 372 75 283 75 m 440 825 q 378 843 404 825 q 332 879 353 861 q 288 897 311 897 q 257 881 269 897 q 242 833 244 865 l 169 833 q 212 936 178 903 q 288 969 246 969 q 355 951 329 969 q 401 915 381 933 q 447 897 422 897 q 477 915 467 897 q 489 961 488 933 l 563 961 q 517 856 553 888 q 440 825 481 825 z "},"œ":{"ha":1226,"x_min":56,"x_max":1176,"o":"m 368 -17 q 208 26 279 -17 q 97 151 138 69 q 56 350 56 233 q 97 549 56 467 q 208 674 138 631 q 368 717 279 717 q 521 678 453 717 q 629 565 589 639 q 738 677 669 638 q 892 717 806 717 q 1063 663 999 717 q 1151 522 1126 608 q 1165 339 1176 436 l 683 339 q 740 144 688 211 q 888 78 793 78 q 1008 113 961 78 q 1075 228 1056 149 l 1169 206 q 1076 42 1153 101 q 892 -17 999 -17 q 738 23 806 -17 q 629 133 669 63 q 520 22 588 61 q 368 -17 453 -17 m 372 75 q 517 138 461 75 q 574 331 574 200 l 574 369 q 517 563 574 501 q 372 625 461 625 q 227 564 283 625 q 171 372 171 503 l 171 328 q 227 136 171 197 q 372 75 283 75 m 886 622 q 751 574 807 622 q 685 428 694 525 l 1064 428 q 886 622 1056 622 z "},"p":{"ha":763,"x_min":94,"x_max":706,"o":"m 94 -229 l 94 700 l 210 700 l 210 607 q 298 688 244 658 q 418 717 351 717 q 561 677 496 717 q 666 556 626 638 q 706 351 706 475 q 664 145 706 226 q 557 24 622 64 q 418 -17 492 -17 q 294 10 344 -17 q 210 88 243 38 l 210 -229 l 94 -229 m 210 322 q 238 178 210 232 q 311 99 267 124 q 404 75 356 75 q 538 138 486 75 q 590 331 590 200 l 590 369 q 538 563 590 501 q 403 625 486 625 q 310 601 354 625 q 238 522 265 576 q 210 378 210 468 l 210 322 z "},"þ":{"ha":763,"x_min":94,"x_max":706,"o":"m 94 -229 l 94 986 l 210 986 l 210 607 q 298 688 244 658 q 418 717 351 717 q 561 677 496 717 q 666 556 626 638 q 706 351 706 475 q 664 145 706 226 q 557 24 622 64 q 418 -17 492 -17 q 294 10 344 -17 q 210 88 243 38 l 210 -229 l 94 -229 m 210 322 q 238 178 210 232 q 311 99 267 124 q 404 75 356 75 q 538 138 486 75 q 590 331 590 200 l 590 369 q 538 563 590 501 q 403 625 486 625 q 310 601 354 625 q 238 522 265 576 q 210 378 210 468 l 210 322 z "},"q":{"ha":761,"x_min":57,"x_max":668,"o":"m 344 -17 q 206 24 272 -17 q 99 145 140 64 q 57 351 57 226 q 97 556 57 475 q 201 677 136 638 q 344 717 267 717 q 465 688 411 717 q 554 608 518 660 l 569 700 l 668 700 l 668 -229 l 553 -229 l 553 83 q 468 9 519 35 q 344 -17 417 -17 m 172 331 q 224 138 172 200 q 358 75 276 75 q 451 99 407 75 q 524 178 496 124 q 553 322 553 232 l 553 378 q 525 522 553 468 q 453 601 497 576 q 360 625 408 625 q 224 563 276 625 q 172 369 172 501 l 172 331 z "},"r":{"ha":497,"x_min":94,"x_max":475,"o":"m 94 0 l 94 700 l 210 700 l 210 597 q 300 691 246 665 q 413 717 354 717 q 442 715 425 717 q 475 710 458 714 l 475 610 q 336 603 396 619 q 243 538 276 588 q 210 392 210 488 l 210 0 l 94 0 z "},"ŕ":{"ha":497,"x_min":94,"x_max":475,"o":"m 94 0 l 94 700 l 210 700 l 210 597 q 300 691 246 665 q 413 717 354 717 q 442 715 425 717 q 475 710 458 714 l 475 610 q 336 603 396 619 q 243 538 276 588 q 210 392 210 488 l 210 0 l 94 0 m 281 794 l 203 808 l 346 1031 l 433 1003 l 281 794 z "},"ř":{"ha":497,"x_min":51,"x_max":475,"o":"m 94 0 l 94 700 l 210 700 l 210 597 q 300 691 246 665 q 413 717 354 717 q 442 715 425 717 q 475 710 458 714 l 475 610 q 336 603 396 619 q 243 538 276 588 q 210 392 210 488 l 210 0 l 94 0 m 196 808 l 51 989 l 150 989 l 246 868 l 339 989 l 438 989 l 293 808 l 196 808 z "},"ŗ":{"ha":497,"x_min":89,"x_max":475,"o":"m 94 0 l 94 700 l 210 700 l 210 597 q 300 691 246 665 q 413 717 354 717 q 442 715 425 717 q 475 710 458 714 l 475 610 q 336 603 396 619 q 243 538 276 588 q 210 392 210 488 l 210 0 l 94 0 m 94 -336 l 133 -219 l 89 -219 l 89 -104 l 211 -104 l 211 -197 l 163 -336 l 94 -336 z "},"s":{"ha":617,"x_min":44,"x_max":565,"o":"m 314 -17 q 164 13 221 -17 q 79 92 107 43 q 44 197 51 140 l 150 211 q 199 106 161 143 q 317 69 236 69 q 422 99 385 69 q 460 189 460 129 q 433 262 460 236 q 344 301 406 288 l 242 326 q 67 518 67 369 q 134 667 67 617 q 313 717 201 717 q 482 663 419 717 q 554 518 544 610 l 451 503 q 311 631 436 631 q 211 606 249 631 q 174 532 174 581 q 201 456 174 483 q 288 415 229 429 l 383 393 q 565 196 565 350 q 500 41 565 99 q 314 -17 435 -17 z "},"ś":{"ha":617,"x_min":44,"x_max":565,"o":"m 314 -17 q 164 13 221 -17 q 79 92 107 43 q 44 197 51 140 l 150 211 q 199 106 161 143 q 317 69 236 69 q 422 99 385 69 q 460 189 460 129 q 433 262 460 236 q 344 301 406 288 l 242 326 q 67 518 67 369 q 134 667 67 617 q 313 717 201 717 q 482 663 419 717 q 554 518 544 610 l 451 503 q 311 631 436 631 q 211 606 249 631 q 174 532 174 581 q 201 456 174 483 q 288 415 229 429 l 383 393 q 565 196 565 350 q 500 41 565 99 q 314 -17 435 -17 m 342 794 l 264 808 l 407 1031 l 494 1003 l 342 794 z "},"š":{"ha":617,"x_min":44,"x_max":565,"o":"m 314 -17 q 164 13 221 -17 q 79 92 107 43 q 44 197 51 140 l 150 211 q 199 106 161 143 q 317 69 236 69 q 422 99 385 69 q 460 189 460 129 q 433 262 460 236 q 344 301 406 288 l 242 326 q 67 518 67 369 q 134 667 67 617 q 313 717 201 717 q 482 663 419 717 q 554 518 544 610 l 451 503 q 311 631 436 631 q 211 606 249 631 q 174 532 174 581 q 201 456 174 483 q 288 415 229 429 l 383 393 q 565 196 565 350 q 500 41 565 99 q 314 -17 435 -17 m 257 808 l 113 989 l 211 989 l 307 868 l 400 989 l 499 989 l 354 808 l 257 808 z "},"ş":{"ha":617,"x_min":44,"x_max":565,"o":"m 314 -17 q 164 13 221 -17 q 79 92 107 43 q 44 197 51 140 l 150 211 q 199 106 161 143 q 317 69 236 69 q 422 99 385 69 q 460 189 460 129 q 433 262 460 236 q 344 301 406 288 l 242 326 q 67 518 67 369 q 134 667 67 617 q 313 717 201 717 q 482 663 419 717 q 554 518 544 610 l 451 503 q 311 631 436 631 q 211 606 249 631 q 174 532 174 581 q 201 456 174 483 q 288 415 229 429 l 383 393 q 565 196 565 350 q 500 41 565 99 q 314 -17 435 -17 m 307 -226 q 254 -224 276 -226 q 201 -215 232 -221 l 201 -144 q 272 -153 233 -150 q 339 -151 311 -157 q 367 -126 367 -146 q 342 -101 367 -108 q 257 -85 318 -93 l 260 3 l 340 3 l 342 -40 q 424 -65 390 -46 q 458 -129 458 -83 q 422 -200 458 -174 q 307 -226 385 -226 z "},"ŝ":{"ha":617,"x_min":44,"x_max":565,"o":"m 314 -17 q 164 13 221 -17 q 79 92 107 43 q 44 197 51 140 l 150 211 q 199 106 161 143 q 317 69 236 69 q 422 99 385 69 q 460 189 460 129 q 433 262 460 236 q 344 301 406 288 l 242 326 q 67 518 67 369 q 134 667 67 617 q 313 717 201 717 q 482 663 419 717 q 554 518 544 610 l 451 503 q 311 631 436 631 q 211 606 249 631 q 174 532 174 581 q 201 456 174 483 q 288 415 229 429 l 383 393 q 565 196 565 350 q 500 41 565 99 q 314 -17 435 -17 m 113 808 l 257 989 l 354 989 l 499 808 l 400 808 l 307 929 l 211 808 l 113 808 z "},"ș":{"ha":617,"x_min":44,"x_max":565,"o":"m 314 -17 q 164 13 221 -17 q 79 92 107 43 q 44 197 51 140 l 150 211 q 199 106 161 143 q 317 69 236 69 q 422 99 385 69 q 460 189 460 129 q 433 262 460 236 q 344 301 406 288 l 242 326 q 67 518 67 369 q 134 667 67 617 q 313 717 201 717 q 482 663 419 717 q 554 518 544 610 l 451 503 q 311 631 436 631 q 211 606 249 631 q 174 532 174 581 q 201 456 174 483 q 288 415 229 429 l 383 393 q 565 196 565 350 q 500 41 565 99 q 314 -17 435 -17 m 261 -336 l 300 -219 l 256 -219 l 256 -104 l 378 -104 l 378 -197 l 329 -336 l 261 -336 z "},"ß":{"ha":771,"x_min":94,"x_max":715,"o":"m 94 0 l 94 735 q 135 886 94 826 q 244 974 175 946 q 399 1003 314 1003 q 553 969 489 1003 q 652 878 618 935 q 686 754 686 822 q 533 526 686 596 q 666 439 617 501 q 715 275 715 376 q 680 122 715 182 q 584 31 644 63 q 449 -6 524 0 q 296 0 375 -12 l 296 88 q 448 83 378 74 q 561 136 518 92 q 604 275 604 181 q 549 423 604 368 q 397 478 494 478 l 325 478 l 325 567 l 397 567 q 497 592 457 567 q 556 657 536 617 q 575 743 575 697 q 526 868 575 826 q 399 910 476 910 q 260 867 310 910 q 210 721 210 825 l 210 0 l 94 0 z "},"t":{"ha":478,"x_min":22,"x_max":456,"o":"m 319 -17 q 179 27 229 -17 q 129 158 129 71 l 129 608 l 22 608 l 22 700 l 132 700 l 156 882 l 244 882 l 244 700 l 442 700 l 442 608 l 244 608 l 244 174 q 268 97 244 122 q 343 72 292 72 q 456 88 383 72 l 456 3 q 319 -17 376 -17 z "},"ŧ":{"ha":493,"x_min":29,"x_max":468,"o":"m 332 -17 q 192 27 242 -17 q 142 158 142 71 l 142 361 l 29 361 l 29 444 l 142 444 l 142 608 l 35 608 l 35 700 l 144 700 l 168 882 l 257 882 l 257 700 l 454 700 l 454 608 l 257 608 l 257 444 l 449 444 l 449 361 l 257 361 l 257 174 q 281 97 257 122 q 356 72 304 72 q 468 88 396 72 l 468 3 q 332 -17 389 -17 z "},"ť":{"ha":478,"x_min":22,"x_max":456,"o":"m 336 761 l 350 986 l 444 986 l 407 761 l 336 761 m 319 -17 q 179 27 229 -17 q 129 158 129 71 l 129 608 l 22 608 l 22 700 l 132 700 l 156 882 l 244 882 l 244 700 l 442 700 l 442 608 l 244 608 l 244 174 q 268 97 244 122 q 343 72 292 72 q 456 88 383 72 l 456 3 q 319 -17 376 -17 z "},"ț":{"ha":478,"x_min":22,"x_max":456,"o":"m 319 -17 q 179 27 229 -17 q 129 158 129 71 l 129 608 l 22 608 l 22 700 l 132 700 l 156 882 l 244 882 l 244 700 l 442 700 l 442 608 l 244 608 l 244 174 q 268 97 244 122 q 343 72 292 72 q 456 88 383 72 l 456 3 q 319 -17 376 -17 m 243 -336 l 282 -219 l 238 -219 l 238 -104 l 360 -104 l 360 -197 l 311 -336 l 243 -336 z "},"u":{"ha":739,"x_min":89,"x_max":644,"o":"m 329 -17 q 154 52 219 -17 q 89 239 89 121 l 89 700 l 204 700 l 204 251 q 244 119 204 161 q 353 76 283 76 q 438 95 397 76 q 503 158 478 114 q 529 275 529 201 l 529 700 l 644 700 l 644 0 l 529 0 l 529 90 q 444 10 496 36 q 329 -17 393 -17 z "},"ú":{"ha":739,"x_min":89,"x_max":644,"o":"m 329 -17 q 154 52 219 -17 q 89 239 89 121 l 89 700 l 204 700 l 204 251 q 244 119 204 161 q 353 76 283 76 q 438 95 397 76 q 503 158 478 114 q 529 275 529 201 l 529 700 l 644 700 l 644 0 l 529 0 l 529 90 q 444 10 496 36 q 329 -17 393 -17 m 404 794 l 326 808 l 469 1031 l 557 1003 l 404 794 z "},"ŭ":{"ha":739,"x_min":89,"x_max":644,"o":"m 329 -17 q 154 52 219 -17 q 89 239 89 121 l 89 700 l 204 700 l 204 251 q 244 119 204 161 q 353 76 283 76 q 438 95 397 76 q 503 158 478 114 q 529 275 529 201 l 529 700 l 644 700 l 644 0 l 529 0 l 529 90 q 444 10 496 36 q 329 -17 393 -17 m 368 808 q 232 859 283 808 q 176 1003 181 910 l 257 1003 q 288 915 261 949 q 368 882 314 882 q 449 915 422 882 q 479 1003 475 949 l 560 1003 q 504 859 556 910 q 368 808 453 808 z "},"û":{"ha":739,"x_min":89,"x_max":644,"o":"m 329 -17 q 154 52 219 -17 q 89 239 89 121 l 89 700 l 204 700 l 204 251 q 244 119 204 161 q 353 76 283 76 q 438 95 397 76 q 503 158 478 114 q 529 275 529 201 l 529 700 l 644 700 l 644 0 l 529 0 l 529 90 q 444 10 496 36 q 329 -17 393 -17 m 175 808 l 319 989 l 417 989 l 561 808 l 463 808 l 369 929 l 274 808 l 175 808 z "},"ü":{"ha":739,"x_min":89,"x_max":644,"o":"m 329 -17 q 154 52 219 -17 q 89 239 89 121 l 89 700 l 204 700 l 204 251 q 244 119 204 161 q 353 76 283 76 q 438 95 397 76 q 503 158 478 114 q 529 275 529 201 l 529 700 l 644 700 l 644 0 l 529 0 l 529 90 q 444 10 496 36 q 329 -17 393 -17 m 424 847 l 424 972 l 539 972 l 539 847 l 424 847 m 197 847 l 197 972 l 313 972 l 313 847 l 197 847 z "},"ù":{"ha":739,"x_min":89,"x_max":644,"o":"m 329 -17 q 154 52 219 -17 q 89 239 89 121 l 89 700 l 204 700 l 204 251 q 244 119 204 161 q 353 76 283 76 q 438 95 397 76 q 503 158 478 114 q 529 275 529 201 l 529 700 l 644 700 l 644 0 l 529 0 l 529 90 q 444 10 496 36 q 329 -17 393 -17 m 332 794 l 179 1003 l 267 1031 l 410 808 l 332 794 z "},"ű":{"ha":739,"x_min":89,"x_max":644,"o":"m 329 -17 q 154 52 219 -17 q 89 239 89 121 l 89 700 l 204 700 l 204 251 q 244 119 204 161 q 353 76 283 76 q 438 95 397 76 q 503 158 478 114 q 529 275 529 201 l 529 700 l 644 700 l 644 0 l 529 0 l 529 90 q 444 10 496 36 q 329 -17 393 -17 m 467 778 l 415 817 l 569 1042 l 642 988 l 467 778 m 257 778 l 206 817 l 360 1042 l 432 988 l 257 778 z "},"ū":{"ha":739,"x_min":89,"x_max":644,"o":"m 329 -17 q 154 52 219 -17 q 89 239 89 121 l 89 700 l 204 700 l 204 251 q 244 119 204 161 q 353 76 283 76 q 438 95 397 76 q 503 158 478 114 q 529 275 529 201 l 529 700 l 644 700 l 644 0 l 529 0 l 529 90 q 444 10 496 36 q 329 -17 393 -17 m 156 832 l 156 908 l 579 908 l 579 832 l 156 832 z "},"ų":{"ha":739,"x_min":89,"x_max":658,"o":"m 329 -17 q 154 52 219 -17 q 89 239 89 121 l 89 700 l 204 700 l 204 251 q 244 119 204 161 q 353 76 283 76 q 438 95 397 76 q 503 158 478 114 q 529 275 529 201 l 529 700 l 644 700 l 644 0 l 625 0 q 580 -40 600 -19 q 560 -90 560 -61 q 592 -140 560 -129 q 658 -147 625 -150 l 658 -219 q 574 -222 619 -228 q 497 -190 529 -217 q 464 -111 464 -162 q 483 -49 464 -76 q 529 0 501 -22 l 529 0 l 529 90 q 444 10 496 36 q 329 -17 393 -17 z "},"ů":{"ha":739,"x_min":89,"x_max":644,"o":"m 329 -17 q 154 52 219 -17 q 89 239 89 121 l 89 700 l 204 700 l 204 251 q 244 119 204 161 q 353 76 283 76 q 438 95 397 76 q 503 158 478 114 q 529 275 529 201 l 529 700 l 644 700 l 644 0 l 529 0 l 529 90 q 444 10 496 36 q 329 -17 393 -17 m 368 797 q 279 832 315 797 q 243 918 243 867 q 279 1005 243 971 q 368 1039 315 1039 q 457 1005 421 1039 q 493 918 493 971 q 457 832 493 867 q 368 797 421 797 m 368 856 q 413 874 396 856 q 429 918 429 892 q 413 964 429 946 q 368 982 396 982 q 324 964 342 982 q 307 918 307 946 q 324 874 307 892 q 368 856 342 856 z "},"ũ":{"ha":739,"x_min":89,"x_max":644,"o":"m 329 -17 q 154 52 219 -17 q 89 239 89 121 l 89 700 l 204 700 l 204 251 q 244 119 204 161 q 353 76 283 76 q 438 95 397 76 q 503 158 478 114 q 529 275 529 201 l 529 700 l 644 700 l 644 0 l 529 0 l 529 90 q 444 10 496 36 q 329 -17 393 -17 m 436 825 q 374 843 400 825 q 328 879 349 861 q 283 897 307 897 q 253 881 265 897 q 238 833 240 865 l 165 833 q 208 936 174 903 q 283 969 242 969 q 351 951 325 969 q 397 915 376 933 q 443 897 418 897 q 473 915 463 897 q 485 961 483 933 l 558 961 q 513 856 549 888 q 436 825 476 825 z "},"v":{"ha":679,"x_min":22,"x_max":657,"o":"m 278 0 l 22 700 l 144 700 l 343 129 l 540 700 l 657 700 l 401 0 l 278 0 z "},"w":{"ha":957,"x_min":28,"x_max":929,"o":"m 203 0 l 28 700 l 144 700 l 275 142 l 425 700 l 538 700 l 688 142 l 818 700 l 929 700 l 754 0 l 622 0 l 479 542 l 336 0 l 203 0 z "},"ẃ":{"ha":957,"x_min":28,"x_max":929,"o":"m 203 0 l 28 700 l 144 700 l 275 142 l 425 700 l 538 700 l 688 142 l 818 700 l 929 700 l 754 0 l 622 0 l 479 542 l 336 0 l 203 0 m 515 794 l 438 808 l 581 1031 l 668 1003 l 515 794 z "},"ŵ":{"ha":957,"x_min":28,"x_max":929,"o":"m 203 0 l 28 700 l 144 700 l 275 142 l 425 700 l 538 700 l 688 142 l 818 700 l 929 700 l 754 0 l 622 0 l 479 542 l 336 0 l 203 0 m 286 808 l 431 989 l 528 989 l 672 808 l 574 808 l 481 929 l 385 808 l 286 808 z "},"ẅ":{"ha":957,"x_min":28,"x_max":929,"o":"m 203 0 l 28 700 l 144 700 l 275 142 l 425 700 l 538 700 l 688 142 l 818 700 l 929 700 l 754 0 l 622 0 l 479 542 l 336 0 l 203 0 m 535 847 l 535 972 l 650 972 l 650 847 l 535 847 m 308 847 l 308 972 l 424 972 l 424 847 l 308 847 z "},"ẁ":{"ha":957,"x_min":28,"x_max":929,"o":"m 203 0 l 28 700 l 144 700 l 275 142 l 425 700 l 538 700 l 688 142 l 818 700 l 929 700 l 754 0 l 622 0 l 479 542 l 336 0 l 203 0 m 443 794 l 290 1003 l 378 1031 l 521 808 l 443 794 z "},"x":{"ha":633,"x_min":14,"x_max":619,"o":"m 14 0 l 249 360 l 26 700 l 157 700 l 319 440 l 482 700 l 607 700 l 385 360 l 619 0 l 485 0 l 314 274 l 143 0 l 14 0 z "},"y":{"ha":675,"x_min":19,"x_max":656,"o":"m 146 -246 q 105 -244 124 -246 q 58 -236 86 -242 l 58 -146 q 146 -151 110 -154 q 210 -120 182 -149 q 264 -24 238 -92 l 279 14 l 19 700 l 142 700 l 340 153 l 539 700 l 656 700 l 369 -51 q 299 -176 338 -135 q 222 -232 261 -218 q 146 -246 182 -246 z "},"ý":{"ha":675,"x_min":19,"x_max":656,"o":"m 146 -246 q 105 -244 124 -246 q 58 -236 86 -242 l 58 -146 q 146 -151 110 -154 q 210 -120 182 -149 q 264 -24 238 -92 l 279 14 l 19 700 l 142 700 l 340 153 l 539 700 l 656 700 l 369 -51 q 299 -176 338 -135 q 222 -232 261 -218 q 146 -246 182 -246 m 375 794 l 297 808 l 440 1031 l 528 1003 l 375 794 z "},"ŷ":{"ha":675,"x_min":19,"x_max":656,"o":"m 146 -246 q 105 -244 124 -246 q 58 -236 86 -242 l 58 -146 q 146 -151 110 -154 q 210 -120 182 -149 q 264 -24 238 -92 l 279 14 l 19 700 l 142 700 l 340 153 l 539 700 l 656 700 l 369 -51 q 299 -176 338 -135 q 222 -232 261 -218 q 146 -246 182 -246 m 146 808 l 290 989 l 388 989 l 532 808 l 433 808 l 340 929 l 244 808 l 146 808 z "},"ÿ":{"ha":675,"x_min":19,"x_max":656,"o":"m 146 -246 q 105 -244 124 -246 q 58 -236 86 -242 l 58 -146 q 146 -151 110 -154 q 210 -120 182 -149 q 264 -24 238 -92 l 279 14 l 19 700 l 142 700 l 340 153 l 539 700 l 656 700 l 369 -51 q 299 -176 338 -135 q 222 -232 261 -218 q 146 -246 182 -246 m 394 847 l 394 972 l 510 972 l 510 847 l 394 847 m 168 847 l 168 972 l 283 972 l 283 847 l 168 847 z "},"ỳ":{"ha":675,"x_min":19,"x_max":656,"o":"m 146 -246 q 105 -244 124 -246 q 58 -236 86 -242 l 58 -146 q 146 -151 110 -154 q 210 -120 182 -149 q 264 -24 238 -92 l 279 14 l 19 700 l 142 700 l 340 153 l 539 700 l 656 700 l 369 -51 q 299 -176 338 -135 q 222 -232 261 -218 q 146 -246 182 -246 m 303 794 l 150 1003 l 238 1031 l 381 808 l 303 794 z "},"z":{"ha":604,"x_min":47,"x_max":561,"o":"m 47 0 l 47 75 l 411 608 l 47 608 l 47 700 l 550 700 l 550 625 l 186 92 l 561 92 l 561 0 l 47 0 z "},"ź":{"ha":604,"x_min":47,"x_max":561,"o":"m 47 0 l 47 75 l 411 608 l 47 608 l 47 700 l 550 700 l 550 625 l 186 92 l 561 92 l 561 0 l 47 0 m 339 794 l 261 808 l 404 1031 l 492 1003 l 339 794 z "},"ž":{"ha":604,"x_min":47,"x_max":561,"o":"m 47 0 l 47 75 l 411 608 l 47 608 l 47 700 l 550 700 l 550 625 l 186 92 l 561 92 l 561 0 l 47 0 m 254 808 l 110 989 l 208 989 l 304 868 l 397 989 l 496 989 l 351 808 l 254 808 z "},"ż":{"ha":604,"x_min":47,"x_max":561,"o":"m 47 0 l 47 75 l 411 608 l 47 608 l 47 700 l 550 700 l 550 625 l 186 92 l 561 92 l 561 0 l 47 0 m 244 847 l 244 972 l 360 972 l 360 847 l 244 847 z "},"ª":{"ha":515,"x_min":83,"x_max":428,"o":"m 217 549 q 121 578 158 549 q 83 665 83 608 q 119 749 83 718 q 224 796 156 779 l 339 824 l 339 836 q 315 904 339 885 q 256 924 292 924 q 165 850 182 924 l 94 864 q 149 954 106 921 q 260 988 193 988 q 378 945 336 988 q 421 825 421 903 l 421 671 q 422 621 421 642 q 428 556 424 600 l 351 556 l 343 607 q 217 549 300 549 m 167 671 q 185 622 167 636 q 238 607 204 607 q 307 628 275 607 q 339 689 339 650 l 339 769 l 246 744 q 187 718 207 735 q 167 671 167 701 m 88 431 l 88 493 l 425 493 l 425 431 l 88 431 z "},"º":{"ha":542,"x_min":76,"x_max":467,"o":"m 271 546 q 132 604 188 546 q 76 767 76 663 q 131 928 76 869 q 271 988 186 988 q 411 928 356 988 q 467 767 467 869 q 411 604 467 663 q 271 546 356 546 m 271 610 q 352 646 321 610 q 383 754 383 682 l 383 778 q 352 887 383 851 q 271 922 321 922 q 190 888 221 922 q 158 779 158 853 l 158 753 q 190 645 158 681 q 271 610 221 610 m 100 431 l 100 493 l 438 493 l 438 431 l 100 431 z "},"Δ":{"ha":871,"x_min":31,"x_max":840,"o":"m 31 0 l 31 83 l 385 986 l 486 986 l 840 83 l 840 0 l 31 0 m 144 97 l 728 97 l 436 840 l 144 97 z "},"Μ":{"ha":1121,"x_min":108,"x_max":1013,"o":"m 108 0 l 108 986 l 289 986 l 563 161 l 564 161 l 838 986 l 1013 986 l 1013 0 l 896 0 l 896 850 l 893 850 l 611 0 l 507 0 l 225 850 l 222 850 l 222 0 l 108 0 z "},"Ω":{"ha":1017,"x_min":67,"x_max":950,"o":"m 97 0 l 97 97 l 282 97 q 123 269 179 158 q 67 542 67 379 q 119 778 67 674 q 271 942 172 882 q 508 1003 369 1003 q 746 942 647 1003 q 897 778 844 882 q 950 542 950 674 q 894 269 950 379 q 735 97 838 158 l 919 97 l 919 0 l 569 0 l 569 121 q 694 192 635 143 q 792 318 754 242 q 829 499 829 394 l 829 550 q 790 735 829 656 q 678 861 750 815 q 508 907 607 907 q 339 861 411 907 q 227 735 267 815 q 188 550 188 656 l 188 499 q 225 318 188 394 q 322 192 263 242 q 447 121 382 143 l 447 0 l 97 0 z "},"μ":{"ha":785,"x_min":94,"x_max":757,"o":"m 94 -229 l 94 700 l 210 700 l 210 251 q 249 119 210 161 q 358 76 289 76 q 443 95 403 76 q 509 158 483 114 q 535 275 535 201 l 535 700 l 650 700 l 650 157 q 678 83 650 96 q 757 75 706 69 l 757 0 q 727 -5 743 -3 q 688 -7 711 -7 q 597 21 631 -7 q 551 113 563 49 q 467 15 521 47 q 349 -17 414 -17 q 210 28 267 -17 l 210 -229 l 94 -229 z "},"π":{"ha":733,"x_min":46,"x_max":693,"o":"m 72 0 l 188 603 l 46 603 l 46 700 l 693 700 l 693 603 l 571 603 l 571 156 q 596 94 571 107 q 669 85 621 81 l 669 0 q 640 -5 654 -3 q 601 -7 625 -7 q 494 24 533 -7 q 456 146 456 56 l 456 603 l 297 603 l 193 0 l 72 0 z "}," ":{"ha":306,"x_min":0,"x_max":0,"o":""}," ":{"ha":306,"x_min":0,"x_max":0,"o":""},"\r":{"ha":306,"x_min":0,"x_max":0,"o":""},".":{"ha":289,"x_min":83,"x_max":206,"o":"m 83 0 l 83 124 l 206 124 l 206 0 l 83 0 z "},",":{"ha":260,"x_min":60,"x_max":192,"o":"m 60 -179 l 113 0 l 69 0 l 69 124 l 192 124 l 192 15 l 121 -179 l 60 -179 z "},":":{"ha":289,"x_min":83,"x_max":206,"o":"m 83 0 l 83 124 l 206 124 l 206 0 l 83 0 m 83 558 l 83 682 l 206 682 l 206 558 l 83 558 z "},";":{"ha":304,"x_min":83,"x_max":215,"o":"m 83 -179 l 136 0 l 93 0 l 93 124 l 215 124 l 215 15 l 144 -179 l 83 -179 m 93 558 l 93 682 l 215 682 l 215 558 l 93 558 z "},"…":{"ha":900,"x_min":83,"x_max":817,"o":"m 83 0 l 83 124 l 206 124 l 206 0 l 83 0 m 389 0 l 389 124 l 511 124 l 511 0 l 389 0 m 694 0 l 694 124 l 817 124 l 817 0 l 694 0 z "},"!":{"ha":311,"x_min":86,"x_max":225,"o":"m 111 286 l 86 986 l 225 986 l 200 286 l 111 286 m 94 0 l 94 124 l 217 124 l 217 0 l 94 0 z "},"¡":{"ha":306,"x_min":83,"x_max":222,"o":"m 92 700 l 214 700 l 214 576 l 92 576 l 92 700 m 108 414 l 197 414 l 222 -286 l 83 -286 l 108 414 z "},"?":{"ha":660,"x_min":24,"x_max":625,"o":"m 265 286 l 264 328 q 276 425 263 386 q 316 492 290 464 q 374 547 342 521 q 454 619 425 590 q 496 678 483 649 q 508 751 508 708 q 464 865 508 822 q 326 908 419 908 q 174 841 221 908 q 146 667 128 774 l 40 678 q 58 849 24 776 q 163 963 92 922 q 329 1003 235 1003 q 487 970 421 1003 q 589 881 553 938 q 625 751 625 825 q 604 649 625 692 q 548 571 583 606 q 465 500 513 536 q 387 420 410 457 q 361 325 364 383 l 360 286 l 265 286 m 253 0 l 253 124 l 375 124 l 375 0 l 253 0 z "},"¿":{"ha":647,"x_min":29,"x_max":632,"o":"m 401 700 l 401 576 l 279 576 l 279 700 l 401 700 m 389 414 l 390 372 q 378 275 393 314 q 338 208 364 236 q 281 153 313 179 q 200 81 229 111 q 158 22 171 51 q 146 -51 146 -7 q 190 -165 146 -122 q 328 -208 235 -208 q 481 -140 435 -208 q 508 33 528 -72 l 614 22 q 598 -149 632 -75 q 492 -262 564 -222 q 325 -303 421 -303 q 168 -270 235 -303 q 65 -181 101 -237 q 29 -51 29 -124 q 50 51 29 8 q 107 130 71 94 q 189 200 143 165 q 269 280 246 243 q 293 375 292 317 l 294 414 l 389 414 z "},"·":{"ha":283,"x_min":81,"x_max":203,"o":"m 81 342 l 81 465 l 203 465 l 203 342 l 81 342 z "},"•":{"ha":483,"x_min":122,"x_max":361,"o":"m 122 318 l 122 556 l 361 556 l 361 318 l 122 318 z "},"*":{"ha":601,"x_min":63,"x_max":539,"o":"m 203 532 l 122 589 l 239 731 l 63 776 l 93 871 l 263 804 l 251 986 l 350 986 l 339 804 l 508 871 l 539 776 l 363 731 l 479 589 l 399 532 l 301 683 l 203 532 z "},"‽":{"ha":660,"x_min":24,"x_max":625,"o":"m 269 286 l 247 797 l 383 797 l 369 526 q 449 606 418 572 q 494 673 479 639 q 508 754 508 707 q 464 867 508 825 q 326 908 419 908 q 174 841 221 908 q 146 667 128 774 l 40 678 q 58 849 24 776 q 163 963 92 922 q 329 1003 235 1003 q 487 970 421 1003 q 589 881 553 938 q 625 751 625 825 q 603 649 625 692 q 547 573 582 607 q 467 501 511 539 q 390 409 410 454 q 365 306 369 364 l 364 286 l 269 286 m 256 0 l 256 124 l 378 124 l 378 0 l 256 0 z "},"⸘":{"ha":647,"x_min":29,"x_max":632,"o":"m 399 700 l 399 576 l 276 576 l 276 700 l 399 700 m 385 414 l 407 -97 l 271 -97 l 285 174 q 206 94 238 128 q 160 27 175 61 q 146 -54 146 -7 q 190 -167 146 -125 q 328 -208 235 -208 q 481 -140 435 -208 q 508 33 528 -72 l 614 22 q 598 -149 632 -75 q 492 -262 564 -222 q 325 -303 421 -303 q 168 -270 235 -303 q 65 -181 101 -237 q 29 -51 29 -124 q 51 51 29 8 q 108 128 72 93 q 188 199 144 163 q 265 292 244 247 q 289 394 285 336 l 290 414 l 385 414 z "},"#":{"ha":933,"x_min":54,"x_max":879,"o":"m 168 0 l 228 279 l 54 279 l 54 365 l 246 365 l 293 590 l 104 590 l 104 676 l 311 676 l 371 956 l 469 956 l 410 676 l 607 676 l 667 956 l 765 956 l 706 676 l 879 676 l 879 590 l 688 590 l 640 365 l 829 365 l 829 279 l 622 279 l 563 0 l 464 0 l 524 279 l 326 279 l 267 0 l 168 0 m 344 365 l 542 365 l 589 590 l 392 590 l 344 365 z "},"/":{"ha":494,"x_min":17,"x_max":476,"o":"m 17 -150 l 369 1017 l 476 1017 l 124 -150 l 17 -150 z "},"\\":{"ha":494,"x_min":18,"x_max":478,"o":"m 478 -150 l 371 -150 l 18 1017 l 125 1017 l 478 -150 z "},"-":{"ha":489,"x_min":65,"x_max":424,"o":"m 65 307 l 65 401 l 424 401 l 424 307 l 65 307 z "},"–":{"ha":729,"x_min":61,"x_max":668,"o":"m 61 311 l 61 394 l 668 394 l 668 311 l 61 311 z "},"—":{"ha":1188,"x_min":61,"x_max":1126,"o":"m 61 311 l 61 394 l 1126 394 l 1126 311 l 61 311 z "},"_":{"ha":604,"x_min":71,"x_max":533,"o":"m 71 -126 l 71 -43 l 533 -43 l 533 -126 l 71 -126 z "},"(":{"ha":378,"x_min":60,"x_max":357,"o":"m 246 -133 q 108 155 156 7 q 60 446 60 303 q 108 738 60 590 q 246 1025 156 885 l 357 1025 q 222 740 268 881 q 175 446 175 600 q 222 151 175 292 q 357 -133 268 11 l 246 -133 z "},")":{"ha":378,"x_min":21,"x_max":318,"o":"m 132 -133 l 21 -133 q 157 151 111 11 q 203 446 203 292 q 157 740 203 600 q 21 1025 111 881 l 132 1025 q 270 738 222 885 q 318 446 318 590 q 270 155 318 303 q 132 -133 222 7 z "},"{":{"ha":457,"x_min":42,"x_max":421,"o":"m 336 -133 q 204 -96 247 -133 q 161 29 161 -58 l 161 351 q 147 392 161 381 q 104 404 133 404 l 42 404 l 42 488 l 104 488 q 147 499 133 488 q 161 540 161 511 l 161 863 q 204 988 161 950 q 336 1025 247 1025 l 421 1025 l 421 942 l 336 942 q 286 926 303 942 q 269 874 269 911 l 269 558 q 254 488 269 515 q 201 446 239 461 q 254 404 239 432 q 269 333 269 376 l 269 18 q 286 -35 269 -19 q 336 -50 303 -50 l 421 -50 l 421 -133 l 336 -133 z "},"}":{"ha":457,"x_min":36,"x_max":415,"o":"m 121 -133 l 36 -133 l 36 -50 l 121 -50 q 171 -35 154 -50 q 188 18 188 -19 l 188 333 q 203 404 188 376 q 256 446 218 432 q 203 488 218 461 q 188 558 188 515 l 188 874 q 171 926 188 911 q 121 942 154 942 l 36 942 l 36 1025 l 121 1025 q 253 988 210 1025 q 296 863 296 950 l 296 540 q 310 499 296 511 q 353 488 324 488 l 415 488 l 415 404 l 353 404 q 310 392 324 404 q 296 351 296 381 l 296 29 q 253 -96 296 -58 q 121 -133 210 -133 z "},"[":{"ha":401,"x_min":106,"x_max":365,"o":"m 106 -133 l 106 1025 l 365 1025 l 365 942 l 214 942 l 214 -50 l 365 -50 l 365 -133 l 106 -133 z "},"]":{"ha":401,"x_min":36,"x_max":296,"o":"m 296 -133 l 36 -133 l 36 -50 l 188 -50 l 188 942 l 36 942 l 36 1025 l 296 1025 l 296 -133 z "},"‚":{"ha":310,"x_min":74,"x_max":226,"o":"m 226 158 l 226 40 l 150 -136 l 74 -136 l 139 25 l 83 25 l 83 158 l 226 158 z "},"„":{"ha":504,"x_min":69,"x_max":431,"o":"m 431 215 l 431 97 l 354 -79 l 278 -79 l 343 82 l 288 82 l 288 215 l 431 215 m 222 215 l 222 97 l 146 -79 l 69 -79 l 135 82 l 79 82 l 79 215 l 222 215 z "},"“":{"ha":496,"x_min":68,"x_max":429,"o":"m 68 722 l 68 840 l 144 1017 l 221 1017 l 156 856 l 211 856 l 211 722 l 68 722 m 276 722 l 276 840 l 353 1017 l 429 1017 l 364 856 l 419 856 l 419 722 l 276 722 z "},"”":{"ha":488,"x_min":69,"x_max":431,"o":"m 431 1017 l 431 899 l 354 722 l 278 722 l 343 883 l 288 883 l 288 1017 l 431 1017 m 222 1017 l 222 899 l 146 722 l 69 722 l 135 883 l 79 883 l 79 1017 l 222 1017 z "},"‘":{"ha":288,"x_min":68,"x_max":221,"o":"m 68 722 l 68 840 l 144 1017 l 221 1017 l 156 856 l 211 856 l 211 722 l 68 722 z "},"’":{"ha":279,"x_min":69,"x_max":222,"o":"m 222 1017 l 222 899 l 146 722 l 69 722 l 135 883 l 79 883 l 79 1017 l 222 1017 z "},"«":{"ha":607,"x_min":60,"x_max":536,"o":"m 422 83 l 292 349 l 422 614 l 536 614 l 407 349 l 536 83 l 422 83 m 190 83 l 60 349 l 190 614 l 304 614 l 175 349 l 304 83 l 190 83 z "},"»":{"ha":607,"x_min":71,"x_max":547,"o":"m 185 83 l 71 83 l 200 349 l 71 614 l 185 614 l 315 349 l 185 83 m 417 83 l 303 83 l 432 349 l 303 614 l 417 614 l 547 349 l 417 83 z "},"‹":{"ha":375,"x_min":60,"x_max":304,"o":"m 190 83 l 60 349 l 190 614 l 304 614 l 175 349 l 304 83 l 190 83 z "},"›":{"ha":375,"x_min":71,"x_max":315,"o":"m 185 83 l 71 83 l 200 349 l 71 614 l 185 614 l 315 349 l 185 83 z "},"\"":{"ha":453,"x_min":71,"x_max":382,"o":"m 86 722 l 71 1017 l 178 1017 l 163 722 l 86 722 m 290 722 l 275 1017 l 382 1017 l 367 722 l 290 722 z "},"'":{"ha":249,"x_min":71,"x_max":178,"o":"m 86 722 l 71 1017 l 178 1017 l 163 722 l 86 722 z "},"ƒ":{"ha":664,"x_min":21,"x_max":643,"o":"m 139 -17 q 80 -8 111 -17 q 21 21 49 1 l 51 101 q 87 85 65 93 q 126 78 108 78 q 202 114 179 78 q 235 225 225 150 l 268 461 l 139 461 l 139 553 l 282 553 l 313 768 q 378 943 329 883 q 525 1003 428 1003 q 585 994 553 1003 q 643 965 617 985 l 613 885 q 578 901 599 893 q 538 908 557 908 q 463 872 486 908 q 429 761 440 836 l 400 553 l 533 553 l 533 461 l 386 461 l 351 218 q 285 43 335 103 q 139 -17 236 -17 z "},"฿":{"ha":818,"x_min":108,"x_max":761,"o":"m 108 38 l 108 949 l 349 949 l 349 1053 l 453 1053 l 453 949 l 456 949 q 608 917 549 949 q 695 833 667 885 q 724 721 724 781 q 691 595 724 650 q 600 514 658 540 q 722 432 682 493 q 761 290 761 371 q 729 165 761 222 q 633 72 697 107 q 467 38 568 38 l 453 38 l 453 -67 l 349 -67 l 349 38 l 108 38 m 222 851 l 222 554 l 349 554 l 349 851 l 222 851 m 454 851 l 453 851 l 453 554 l 454 554 q 574 594 536 554 q 611 697 611 633 l 611 711 q 574 813 611 775 q 454 851 536 851 m 222 135 l 349 135 l 349 460 l 222 460 l 222 135 m 469 460 l 453 460 l 453 135 l 465 135 q 604 177 560 135 q 649 289 649 219 l 649 303 q 606 416 649 372 q 469 460 563 460 z "},"@":{"ha":1107,"x_min":57,"x_max":1051,"o":"m 542 -131 q 283 -70 392 -131 q 115 96 174 -10 q 57 336 57 201 q 97 563 57 461 q 210 737 138 664 q 382 849 283 810 q 597 888 481 888 q 829 833 726 888 q 992 684 932 779 q 1051 463 1051 589 q 1018 280 1051 358 q 927 158 985 201 q 794 114 869 114 q 715 132 750 114 q 664 190 681 150 q 593 133 635 153 q 507 114 551 114 q 404 146 451 114 q 333 240 357 178 q 318 388 308 301 q 358 515 326 458 q 439 603 389 571 q 556 636 489 636 q 699 557 649 636 l 718 622 l 789 622 l 743 296 q 745 226 738 257 q 804 196 753 196 q 871 221 836 196 q 930 304 906 246 q 954 463 954 363 q 908 642 954 567 q 780 760 861 718 q 592 801 699 801 q 365 743 464 801 q 210 583 265 685 q 154 346 154 481 q 200 144 154 233 q 333 5 246 56 q 544 -46 421 -46 q 715 -20 650 -46 q 835 36 781 6 l 871 -37 q 710 -108 794 -85 q 542 -131 626 -131 m 522 197 q 614 239 578 197 q 660 346 650 281 l 665 385 q 643 513 678 472 q 556 553 608 553 q 458 504 493 553 q 414 386 422 456 q 435 244 403 292 q 522 197 468 197 z "},"&":{"ha":854,"x_min":54,"x_max":831,"o":"m 349 -17 q 197 16 264 -17 q 92 109 131 49 q 54 251 54 169 q 114 421 54 353 q 269 540 174 489 q 188 657 221 600 q 154 781 154 714 q 219 939 154 875 q 399 1003 285 1003 q 526 974 472 1003 q 608 899 579 946 q 636 792 636 851 q 578 635 636 700 q 415 515 519 571 l 635 242 q 685 390 674 315 q 700 524 696 464 l 800 524 q 769 334 793 425 q 694 168 744 243 l 831 0 l 697 0 l 625 90 q 505 11 574 39 q 349 -17 436 -17 m 265 788 q 292 687 265 736 q 358 586 318 638 q 483 672 439 628 q 528 785 528 717 q 492 878 528 844 q 399 913 456 913 q 301 881 336 913 q 265 788 265 849 m 168 257 q 221 124 168 175 q 365 74 274 74 q 485 97 435 74 q 571 158 535 119 l 325 468 q 206 376 244 424 q 168 257 168 329 z "},"¶":{"ha":785,"x_min":25,"x_max":675,"o":"m 356 -143 l 356 425 q 186 457 261 425 q 68 551 111 489 q 25 706 25 614 q 68 860 25 797 q 186 954 111 922 q 356 986 261 986 l 467 986 l 467 -143 l 356 -143 m 564 -143 l 564 985 l 675 986 l 675 -143 l 564 -143 z "},"§":{"ha":678,"x_min":67,"x_max":614,"o":"m 333 -190 q 186 -160 243 -190 q 101 -82 129 -131 q 67 24 74 -33 l 172 38 q 220 -67 183 -31 q 336 -104 257 -104 q 434 -77 394 -104 q 474 8 474 -50 q 436 96 474 68 q 335 153 399 124 l 229 201 q 114 279 161 233 q 67 407 67 325 q 110 526 67 474 q 221 607 153 579 q 135 683 167 639 q 103 794 103 728 q 136 908 103 863 q 225 978 169 954 q 347 1003 281 1003 q 520 949 451 1003 q 599 804 589 896 l 496 789 q 450 885 489 853 q 347 917 411 917 q 247 890 288 917 q 207 804 207 863 q 244 717 207 744 q 346 660 282 689 l 451 611 q 567 533 521 581 q 614 406 614 486 q 571 284 614 336 q 461 206 528 232 q 547 129 515 174 q 578 18 578 85 q 544 -95 578 -49 q 456 -166 511 -142 q 333 -190 401 -190 m 303 278 l 376 246 q 471 300 433 264 q 508 388 508 336 q 477 474 508 443 q 378 535 446 506 l 304 567 q 210 514 247 550 q 172 425 172 478 q 203 340 172 372 q 303 278 235 307 z "},"©":{"ha":1140,"x_min":75,"x_max":1067,"o":"m 571 -17 q 312 49 424 -17 q 138 231 200 115 q 75 493 75 346 q 138 756 75 642 q 312 937 200 871 q 571 1003 424 1003 q 829 937 718 1003 q 1003 756 940 871 q 1067 493 1067 642 q 1004 231 1067 346 q 831 49 942 115 q 571 -17 719 -17 m 571 68 q 788 122 696 68 q 929 272 879 176 q 979 493 979 368 q 929 714 979 618 q 788 864 879 810 q 571 918 696 918 q 356 864 447 918 q 213 714 264 810 q 163 493 163 618 q 213 272 163 368 q 356 122 264 176 q 571 68 447 68 m 578 201 q 444 239 501 201 q 353 342 386 276 q 321 493 321 408 q 353 644 321 579 q 444 747 386 710 q 576 785 501 785 q 722 738 657 785 q 803 596 788 690 l 717 581 q 663 675 703 647 q 576 703 624 703 q 460 649 501 703 q 418 510 418 596 l 418 479 q 460 338 418 392 q 578 285 503 285 q 671 316 632 285 q 721 408 710 347 l 806 392 q 726 250 792 299 q 578 201 660 201 z "},"®":{"ha":731,"x_min":64,"x_max":667,"o":"m 365 401 q 210 440 278 401 q 103 547 142 479 q 64 701 64 614 q 103 857 64 789 q 210 964 142 925 q 365 1003 278 1003 q 519 964 451 1003 q 627 857 588 925 q 667 701 667 789 q 628 547 667 614 q 521 440 589 479 q 365 401 453 401 m 365 461 q 538 528 472 461 q 603 701 603 596 q 538 876 603 808 q 365 943 472 943 q 194 876 260 943 q 128 701 128 808 q 194 528 128 596 q 365 461 260 461 m 258 543 l 258 867 l 388 867 q 465 840 440 867 q 490 774 490 814 q 474 718 490 742 q 424 685 457 694 l 499 543 l 426 543 l 357 676 l 322 676 l 322 543 l 258 543 m 383 811 l 322 811 l 322 732 l 383 732 q 417 743 407 732 q 426 771 426 754 q 383 811 426 811 z "},"℗":{"ha":731,"x_min":64,"x_max":667,"o":"m 365 401 q 210 440 278 401 q 103 547 142 479 q 64 701 64 614 q 103 857 64 789 q 210 964 142 925 q 365 1003 278 1003 q 519 964 451 1003 q 627 857 588 925 q 667 701 667 789 q 628 547 667 614 q 521 440 589 479 q 365 401 453 401 m 365 461 q 538 528 472 461 q 603 701 603 596 q 538 876 603 808 q 365 943 472 943 q 194 876 260 943 q 128 701 128 808 q 194 528 128 596 q 365 461 260 461 m 267 543 l 267 867 l 396 867 q 474 839 449 867 q 499 769 499 811 q 474 700 499 728 q 396 672 449 672 l 331 672 l 331 543 l 267 543 m 392 811 l 331 811 l 331 728 l 392 728 q 425 740 415 728 q 435 768 435 751 q 392 811 435 811 z "},"™":{"ha":831,"x_min":40,"x_max":736,"o":"m 371 621 l 371 986 l 468 986 l 554 697 l 639 986 l 736 986 l 736 621 l 678 621 l 678 936 l 676 936 l 582 621 l 524 621 l 429 936 l 428 936 l 428 621 l 371 621 m 156 621 l 156 939 l 40 939 l 40 986 l 326 986 l 326 939 l 213 939 l 213 621 l 156 621 z "},"°":{"ha":533,"x_min":75,"x_max":458,"o":"m 267 618 q 170 644 214 618 q 101 714 126 669 q 75 811 75 758 q 101 908 75 865 q 170 977 126 951 q 267 1003 214 1003 q 365 977 322 1003 q 433 908 408 951 q 458 811 458 865 q 433 714 458 758 q 365 644 408 669 q 267 618 322 618 m 267 699 q 345 731 315 699 q 375 811 375 764 q 345 891 375 860 q 267 922 315 922 q 189 891 219 922 q 158 811 158 860 q 189 731 158 764 q 267 699 219 699 z "},"|":{"ha":317,"x_min":108,"x_max":208,"o":"m 108 -150 l 108 1025 l 208 1025 l 208 -150 l 108 -150 z "},"¦":{"ha":317,"x_min":107,"x_max":207,"o":"m 107 596 l 107 1025 l 207 1025 l 207 596 l 107 596 m 107 -150 l 107 279 l 207 279 l 207 -150 l 107 -150 z "},"†":{"ha":497,"x_min":56,"x_max":442,"o":"m 203 438 l 203 778 l 56 778 l 56 864 l 203 864 l 203 1025 l 294 1025 l 294 864 l 442 864 l 442 778 l 294 778 l 294 438 l 203 438 z "},"‡":{"ha":539,"x_min":76,"x_max":463,"o":"m 224 438 l 224 592 l 76 592 l 76 678 l 224 678 l 224 785 l 76 785 l 76 871 l 224 871 l 224 1025 l 315 1025 l 315 871 l 463 871 l 463 785 l 315 785 l 315 678 l 463 678 l 463 592 l 315 592 l 315 438 l 224 438 z "},"№":{"ha":1521,"x_min":108,"x_max":1471,"o":"m 1210 467 q 1077 500 1136 467 q 983 594 1018 533 q 949 735 949 654 q 983 876 949 815 q 1077 969 1018 936 q 1210 1003 1136 1003 q 1342 969 1283 1003 q 1436 876 1401 936 q 1471 735 1471 815 q 1436 594 1471 654 q 1342 500 1401 533 q 1210 467 1283 467 m 108 0 l 108 986 l 258 986 l 713 214 l 714 214 l 714 986 l 819 986 l 819 0 l 719 0 l 215 857 l 214 857 l 214 0 l 108 0 m 1210 560 q 1325 604 1279 560 q 1371 735 1371 649 q 1325 865 1371 821 q 1210 910 1279 910 q 1095 865 1142 910 q 1049 735 1049 821 q 1095 604 1049 649 q 1210 560 1142 560 m 1035 254 l 1035 344 l 1386 344 l 1386 254 l 1035 254 z "},"₿":{"ha":811,"x_min":101,"x_max":754,"o":"m 101 38 l 101 949 l 224 949 l 224 1053 l 328 1053 l 328 949 l 418 949 l 418 1053 l 522 1053 l 522 942 q 670 860 624 924 q 717 721 717 797 q 684 595 717 650 q 593 514 651 540 q 715 432 675 493 q 754 290 754 371 q 697 128 754 199 q 522 42 640 58 l 522 -67 l 418 -67 l 418 38 l 328 38 l 328 -67 l 224 -67 l 224 38 l 101 38 m 443 851 l 215 851 l 215 554 l 446 554 q 566 594 528 554 q 604 697 604 633 l 604 711 q 565 813 604 775 q 443 851 525 851 m 215 135 l 456 135 q 596 177 550 135 q 642 289 642 219 l 642 303 q 598 416 642 372 q 461 460 554 460 l 215 460 l 215 135 z "},"¢":{"ha":724,"x_min":72,"x_max":660,"o":"m 324 -65 l 324 26 q 141 139 210 46 q 72 369 72 232 q 103 533 72 460 q 192 652 135 606 q 324 713 249 699 l 324 803 l 428 803 l 428 713 q 576 644 513 700 q 656 492 639 589 l 557 474 q 507 573 542 539 q 428 617 472 607 l 428 119 q 515 167 481 131 q 560 265 549 204 l 660 247 q 580 93 644 150 q 428 24 515 36 l 428 -65 l 324 -65 m 188 351 q 223 203 188 264 q 324 124 258 143 l 324 614 q 223 535 258 596 q 188 388 188 475 l 188 351 z "},"¤":{"ha":731,"x_min":72,"x_max":658,"o":"m 138 132 l 72 197 l 167 292 q 129 425 129 350 q 167 558 129 500 l 72 654 l 136 718 l 232 622 q 365 660 290 660 q 497 622 439 660 l 593 718 l 658 653 l 563 557 q 601 425 601 500 q 564 292 601 350 l 658 196 l 594 132 l 499 228 q 365 190 440 190 q 233 228 290 190 l 138 132 m 365 278 q 467 317 426 278 q 508 425 508 357 q 467 533 508 494 q 365 572 426 572 q 263 533 304 572 q 222 425 222 494 q 263 317 222 357 q 365 278 304 278 z "},"$":{"ha":768,"x_min":51,"x_max":715,"o":"m 335 -67 l 335 22 q 133 106 211 35 q 51 297 56 176 l 156 303 q 210 172 161 217 q 335 117 260 126 l 335 467 l 282 479 q 119 574 168 507 q 71 717 71 640 q 106 842 71 790 q 200 926 140 894 q 335 964 260 957 l 335 1053 l 439 1053 l 439 964 q 617 888 546 951 q 694 708 688 825 l 593 704 q 439 869 579 847 l 439 544 l 493 531 q 660 443 604 504 q 715 279 715 382 q 638 97 715 161 q 439 21 560 32 l 439 -67 l 335 -67 m 318 574 l 335 569 l 335 871 q 219 823 260 861 q 179 725 179 785 q 210 631 179 669 q 318 574 242 593 m 460 436 l 439 442 l 439 115 q 560 162 515 124 q 606 275 606 200 q 567 385 606 351 q 460 436 529 419 z "},"₫":{"ha":778,"x_min":63,"x_max":724,"o":"m 335 164 q 202 194 264 164 q 101 287 140 225 q 63 444 63 349 q 99 602 63 540 q 198 694 136 664 q 335 724 260 724 q 529 631 467 724 l 529 813 l 386 813 l 386 900 l 529 900 l 529 986 l 640 986 l 640 900 l 724 900 l 724 813 l 640 813 l 640 181 l 529 181 l 529 251 q 453 185 500 206 q 335 164 406 164 m 174 431 q 224 297 174 342 q 349 253 275 253 q 435 269 394 253 q 503 324 476 286 q 529 425 529 363 l 529 463 q 503 564 529 526 q 437 618 478 601 q 350 635 396 635 q 224 591 275 635 q 174 457 174 547 l 174 431 m 81 0 l 81 88 l 640 88 l 640 0 l 81 0 z "},"€":{"ha":1038,"x_min":74,"x_max":974,"o":"m 74 358 l 74 456 l 178 456 q 176 492 176 474 q 178 531 176 511 l 74 531 l 74 628 l 189 628 q 267 825 211 740 q 409 956 324 910 q 601 1003 494 1003 q 785 959 707 1003 q 912 837 864 915 q 972 656 960 758 l 864 651 q 770 844 842 783 q 604 906 699 906 q 412 830 492 906 q 306 628 332 754 l 760 628 l 747 531 l 296 531 q 296 521 296 526 l 296 465 q 296 456 296 460 l 736 456 l 724 358 l 306 358 q 412 156 332 232 q 604 81 492 81 q 773 142 703 81 q 865 325 843 204 l 974 321 q 913 146 960 222 q 787 26 865 69 q 603 -17 708 -17 q 408 30 494 -17 q 266 161 322 76 q 189 358 210 246 l 74 358 z "},"₣":{"ha":757,"x_min":50,"x_max":710,"o":"m 158 0 l 158 190 l 50 190 l 50 288 l 158 288 l 158 986 l 710 986 l 710 886 l 272 886 l 272 575 l 682 575 l 682 478 l 272 478 l 272 288 l 515 288 l 515 190 l 272 190 l 272 0 l 158 0 z "},"₴":{"ha":946,"x_min":72,"x_max":872,"o":"m 72 531 l 72 628 l 614 628 q 690 758 690 678 q 636 870 690 828 q 489 913 582 913 q 328 871 386 913 q 261 735 271 829 l 153 739 q 207 892 161 833 q 326 976 253 950 q 490 1003 399 1003 q 646 976 575 1003 q 760 898 717 950 q 804 769 804 846 q 789 694 804 731 q 742 628 774 658 l 872 628 l 872 531 l 72 531 m 461 -17 q 301 10 374 -17 q 184 88 228 36 q 140 217 140 140 q 156 292 140 256 q 203 358 171 328 l 72 358 l 72 456 l 872 456 l 872 358 l 331 358 q 254 228 254 308 q 312 116 254 158 q 463 74 369 74 q 631 115 572 74 q 699 251 689 157 l 807 247 q 753 94 799 153 q 632 10 707 36 q 461 -17 557 -17 z "},"₭":{"ha":914,"x_min":69,"x_max":844,"o":"m 176 0 l 176 449 l 69 449 l 69 546 l 176 546 l 176 986 l 290 986 l 290 546 l 365 546 l 701 986 l 835 986 l 494 546 l 842 546 l 842 449 l 499 449 l 844 0 l 707 0 l 365 449 l 290 449 l 290 0 l 176 0 z "},"₺":{"ha":856,"x_min":64,"x_max":831,"o":"m 199 0 l 199 282 l 64 197 l 64 301 l 199 386 l 199 486 l 64 401 l 64 506 l 199 590 l 199 986 l 313 986 l 313 661 l 546 807 l 546 703 l 313 557 l 313 457 l 546 603 l 546 499 l 313 353 l 313 97 l 483 97 q 607 120 557 97 q 685 198 657 143 q 721 350 714 253 l 831 350 q 776 137 824 213 q 653 31 729 61 q 482 0 578 0 l 199 0 z "},"₦":{"ha":1089,"x_min":75,"x_max":1014,"o":"m 210 0 l 210 358 l 75 358 l 75 456 l 210 456 l 210 531 l 75 531 l 75 628 l 210 628 l 210 986 l 360 986 l 772 224 l 774 224 l 774 986 l 879 986 l 879 628 l 1014 628 l 1014 531 l 879 531 l 879 456 l 1014 456 l 1014 358 l 879 358 l 879 0 l 779 0 l 317 849 l 315 849 l 315 0 l 210 0 z "},"₧":{"ha":938,"x_min":56,"x_max":907,"o":"m 163 0 l 163 642 l 56 642 l 56 739 l 163 739 l 163 986 l 483 986 q 708 917 632 986 q 794 739 783 849 l 907 739 l 907 642 l 794 642 q 701 462 779 529 q 485 394 624 394 l 276 394 l 276 0 l 163 0 m 476 889 l 276 889 l 276 739 l 681 739 q 620 849 669 808 q 476 889 571 889 m 476 492 q 620 533 571 492 q 681 642 669 575 l 276 642 l 276 492 l 476 492 z "},"₱":{"ha":957,"x_min":56,"x_max":914,"o":"m 190 0 l 190 556 l 56 556 l 56 653 l 190 653 l 190 728 l 56 728 l 56 825 l 190 825 l 190 986 l 483 986 q 672 942 600 986 q 772 825 743 899 l 914 825 l 914 728 l 794 728 q 796 696 796 713 q 793 653 796 674 l 914 653 l 914 556 l 769 556 q 666 438 738 481 q 485 394 594 394 l 304 394 l 304 0 l 190 0 m 476 889 l 304 889 l 304 492 l 476 492 q 634 547 586 492 q 682 683 682 601 l 682 699 q 633 837 682 785 q 476 889 583 889 z "},"₽":{"ha":865,"x_min":67,"x_max":825,"o":"m 201 0 l 201 236 l 67 236 l 67 333 l 201 333 l 201 408 l 67 408 l 67 506 l 201 506 l 201 986 l 508 986 q 687 949 617 986 q 791 849 757 913 q 825 706 825 786 q 790 553 825 621 q 684 447 754 486 q 510 408 614 408 l 315 408 l 315 333 l 619 333 l 619 236 l 315 236 l 315 0 l 201 0 m 501 889 l 315 889 l 315 506 l 501 506 q 661 555 611 506 q 711 686 711 604 l 711 708 q 660 838 711 788 q 501 889 608 889 z "},"₹":{"ha":808,"x_min":67,"x_max":758,"o":"m 561 0 l 289 422 l 67 422 l 67 518 l 322 518 q 474 558 428 518 q 529 654 521 597 l 67 654 l 67 751 l 528 751 q 469 851 518 813 q 322 889 421 889 l 67 889 l 67 986 l 758 986 l 758 889 l 550 889 q 609 831 588 867 q 639 751 631 794 l 758 751 l 758 654 l 643 654 q 581 510 635 569 q 417 428 526 450 l 693 0 l 561 0 z "},"₪":{"ha":1060,"x_min":108,"x_max":956,"o":"m 356 0 l 356 744 l 465 744 l 465 97 l 715 97 q 812 131 782 97 q 842 228 842 164 l 842 986 l 956 986 l 956 228 q 898 61 956 122 q 732 0 840 0 l 356 0 m 108 0 l 108 986 l 485 986 q 651 925 593 986 q 708 758 708 864 l 708 242 l 599 242 l 599 758 q 569 856 599 824 q 472 889 539 889 l 222 889 l 222 0 l 108 0 z "},"£":{"ha":904,"x_min":49,"x_max":850,"o":"m 219 -17 q 100 25 151 -17 q 49 143 49 67 q 100 264 49 221 q 219 307 151 307 q 272 299 247 307 q 322 279 297 292 q 291 363 311 322 q 250 446 271 404 l 86 446 l 86 538 l 203 538 q 174 617 185 576 q 163 703 163 658 q 207 868 163 801 q 326 969 251 935 q 492 1003 400 1003 q 654 968 582 1003 q 771 864 726 933 q 819 690 815 794 l 717 690 q 678 818 711 769 q 596 890 644 867 q 494 913 547 913 q 385 892 435 913 q 306 828 335 872 q 276 707 276 783 q 288 619 276 661 q 318 538 300 578 l 654 538 l 654 446 l 361 446 q 406 334 386 392 q 426 211 426 276 q 426 203 426 207 q 531 117 479 157 q 635 78 582 76 q 719 119 693 79 q 746 243 746 160 l 746 289 l 850 289 l 850 247 q 831 117 850 178 q 767 20 813 57 q 639 -17 721 -17 q 508 18 565 -17 q 404 96 450 53 q 332 13 379 43 q 219 -17 285 -17 m 150 147 q 172 96 150 115 q 225 76 193 76 q 295 102 271 76 q 326 167 319 128 q 276 203 301 189 q 225 218 251 218 q 172 201 193 218 q 150 147 150 183 z "},"₸":{"ha":844,"x_min":36,"x_max":808,"o":"m 36 889 l 36 986 l 808 986 l 808 889 l 36 889 m 365 0 l 365 717 l 36 717 l 36 814 l 808 814 l 808 717 l 479 717 l 479 0 l 365 0 z "},"₩":{"ha":1243,"x_min":69,"x_max":1174,"o":"m 317 0 l 251 361 l 69 361 l 69 458 l 235 458 l 221 533 l 69 533 l 69 631 l 204 631 l 140 986 l 257 986 l 390 163 l 563 986 l 683 986 l 856 163 l 989 986 l 1103 986 l 1039 631 l 1174 631 l 1174 533 l 1022 533 l 1008 458 l 1174 458 l 1174 361 l 992 361 l 926 0 l 788 0 l 622 811 l 456 0 l 317 0 z "},"¥":{"ha":833,"x_min":21,"x_max":813,"o":"m 108 246 l 108 343 l 360 343 l 360 418 l 108 418 l 108 515 l 299 515 l 21 986 l 156 986 l 418 515 l 419 515 l 682 986 l 813 986 l 535 515 l 726 515 l 726 418 l 474 418 l 474 343 l 726 343 l 726 246 l 474 246 l 474 0 l 360 0 l 360 246 l 108 246 z "},"∕":{"ha":494,"x_min":17,"x_max":476,"o":"m 17 -150 l 369 1017 l 476 1017 l 124 -150 l 17 -150 z "},"+":{"ha":625,"x_min":92,"x_max":535,"o":"m 268 244 l 268 418 l 92 418 l 92 506 l 268 506 l 268 679 l 358 679 l 358 506 l 535 506 l 535 418 l 358 418 l 358 244 l 268 244 z "},"−":{"ha":625,"x_min":78,"x_max":549,"o":"m 78 418 l 78 506 l 549 506 l 549 418 l 78 418 z "},"×":{"ha":625,"x_min":113,"x_max":514,"o":"m 181 261 l 113 329 l 246 463 l 113 594 l 181 663 l 314 531 l 446 663 l 514 594 l 382 463 l 514 329 l 446 261 l 314 394 l 181 261 z "},"÷":{"ha":625,"x_min":78,"x_max":549,"o":"m 250 575 l 250 703 l 375 703 l 375 575 l 250 575 m 78 418 l 78 506 l 549 506 l 549 418 l 78 418 m 250 221 l 250 349 l 375 349 l 375 221 l 250 221 z "},"=":{"ha":625,"x_min":78,"x_max":549,"o":"m 78 299 l 78 386 l 549 386 l 549 299 l 78 299 m 78 538 l 78 625 l 549 625 l 549 538 l 78 538 z "},"≠":{"ha":625,"x_min":78,"x_max":549,"o":"m 199 179 l 132 215 l 178 299 l 78 299 l 78 386 l 226 386 l 311 538 l 78 538 l 78 625 l 360 625 l 426 744 l 493 708 l 447 625 l 549 625 l 549 538 l 399 538 l 314 386 l 549 386 l 549 299 l 265 299 l 199 179 z "},">":{"ha":625,"x_min":85,"x_max":542,"o":"m 85 243 l 85 331 l 457 463 l 85 593 l 85 681 l 542 514 l 542 410 l 85 243 z "},"<":{"ha":625,"x_min":85,"x_max":542,"o":"m 542 243 l 85 410 l 85 514 l 542 681 l 542 593 l 169 463 l 542 331 l 542 243 z "},"≥":{"ha":625,"x_min":85,"x_max":542,"o":"m 85 326 l 85 414 l 450 531 l 85 635 l 85 722 l 542 583 l 542 479 l 85 326 m 85 183 l 85 264 l 542 264 l 542 183 l 85 183 z "},"≤":{"ha":625,"x_min":85,"x_max":542,"o":"m 542 326 l 85 479 l 85 583 l 542 722 l 542 635 l 176 531 l 542 414 l 542 326 m 542 183 l 85 183 l 85 264 l 542 264 l 542 183 z "},"±":{"ha":625,"x_min":92,"x_max":535,"o":"m 268 329 l 268 478 l 92 478 l 92 558 l 268 558 l 268 707 l 358 707 l 358 558 l 535 558 l 535 478 l 358 478 l 358 329 l 268 329 m 92 183 l 92 264 l 535 264 l 535 183 l 92 183 z "},"≈":{"ha":625,"x_min":71,"x_max":556,"o":"m 417 478 q 351 494 379 478 q 299 533 322 511 q 256 571 276 554 q 215 588 236 588 q 171 556 185 588 q 153 482 157 524 l 71 482 q 114 622 78 572 q 210 671 150 671 q 270 654 242 671 q 323 616 299 638 q 369 578 347 594 q 411 561 392 561 q 455 594 442 561 q 474 667 468 628 l 556 667 q 513 528 550 579 q 417 478 476 478 m 417 251 q 351 268 379 251 q 299 306 322 285 q 256 344 276 328 q 215 361 236 361 q 171 329 185 361 q 153 256 157 297 l 71 256 q 114 395 78 346 q 210 444 150 444 q 270 428 242 444 q 323 390 299 411 q 369 351 347 368 q 411 335 392 335 q 455 368 442 335 q 474 440 468 401 l 556 440 q 513 302 550 353 q 417 251 476 251 z "},"~":{"ha":625,"x_min":71,"x_max":556,"o":"m 417 365 q 351 382 379 365 q 299 420 322 399 q 256 458 276 442 q 215 475 236 475 q 171 443 185 475 q 153 369 157 411 l 71 369 q 114 509 78 460 q 210 558 150 558 q 270 542 242 558 q 323 503 299 525 q 369 465 347 482 q 411 449 392 449 q 455 482 442 449 q 474 554 468 515 l 556 554 q 513 416 550 467 q 417 365 476 365 z "},"¬":{"ha":625,"x_min":71,"x_max":556,"o":"m 71 418 l 71 506 l 556 506 l 556 301 l 465 301 l 465 418 l 71 418 z "},"^":{"ha":625,"x_min":64,"x_max":561,"o":"m 64 708 l 264 986 l 361 986 l 561 708 l 456 708 l 313 914 l 169 708 l 64 708 z "},"∞":{"ha":1150,"x_min":67,"x_max":1085,"o":"m 321 158 q 177 200 233 158 q 94 310 121 242 q 67 456 67 378 q 94 601 67 533 q 176 710 121 668 q 321 751 232 751 q 459 708 399 751 q 575 560 519 665 q 691 708 631 665 q 829 751 751 751 q 974 710 918 751 q 1056 601 1029 668 q 1083 456 1083 533 q 1058 310 1085 378 q 974 200 1031 242 q 829 158 918 158 q 691 201 751 158 q 575 350 631 244 q 459 201 519 244 q 321 158 399 158 m 178 456 q 217 302 178 350 q 321 254 257 254 q 421 292 378 254 q 513 431 464 329 l 524 456 l 513 479 q 421 619 464 582 q 321 656 378 656 q 217 608 257 656 q 178 456 178 560 m 638 431 q 730 292 686 329 q 829 254 774 254 q 933 302 894 254 q 972 456 972 350 q 933 608 972 560 q 829 656 894 656 q 730 619 774 656 q 638 479 686 582 l 626 456 l 638 431 z "},"∫":{"ha":703,"x_min":21,"x_max":682,"o":"m 139 -246 q 80 -237 111 -246 q 21 -208 49 -228 l 51 -128 q 87 -144 65 -136 q 126 -151 108 -151 q 201 -115 179 -151 q 235 -4 224 -79 l 351 768 q 418 943 369 883 q 564 1003 467 1003 q 624 994 592 1003 q 682 965 656 985 l 651 885 q 617 901 638 893 q 576 908 596 908 q 502 872 525 908 q 468 761 479 836 l 351 -11 q 285 -186 333 -126 q 139 -246 236 -246 z "},"∆":{"ha":929,"x_min":21,"x_max":908,"o":"m 21 0 l 414 986 l 515 986 l 908 0 l 21 0 m 168 97 l 761 97 l 465 840 l 168 97 z "},"∏":{"ha":950,"x_min":25,"x_max":925,"o":"m 164 -229 l 164 889 l 25 889 l 25 986 l 925 986 l 925 889 l 786 889 l 786 -229 l 667 -229 l 667 889 l 283 889 l 283 -229 l 164 -229 z "},"∑":{"ha":701,"x_min":42,"x_max":656,"o":"m 42 -229 l 42 -156 l 369 378 l 42 913 l 42 986 l 656 986 l 656 889 l 175 889 l 488 378 l 175 -132 l 656 -132 l 656 -229 l 42 -229 z "},"√":{"ha":1033,"x_min":46,"x_max":993,"o":"m 242 -229 l 46 347 l 164 346 l 319 -111 l 693 986 l 993 986 l 993 889 l 775 889 l 394 -229 l 242 -229 z "},"µ":{"ha":756,"x_min":100,"x_max":656,"o":"m 100 -229 l 100 700 l 215 700 l 215 251 q 255 119 215 161 q 364 76 294 76 q 449 95 408 76 q 515 158 489 114 q 540 275 540 201 l 540 700 l 656 700 l 656 0 l 540 0 l 540 86 q 461 9 510 35 q 354 -17 413 -17 q 215 28 272 -17 l 215 -229 l 100 -229 z "},"∂":{"ha":757,"x_min":60,"x_max":693,"o":"m 376 -17 q 215 26 286 -17 q 101 151 143 69 q 60 350 60 233 q 99 549 60 467 q 208 674 139 631 q 367 717 278 717 q 454 706 413 717 q 535 665 496 696 q 446 794 501 744 q 316 871 390 843 q 153 913 242 899 l 167 1003 q 385 948 294 990 q 536 843 476 906 q 631 706 596 781 q 679 551 665 631 q 693 397 693 472 q 651 153 693 243 q 538 23 610 63 q 376 -17 467 -17 m 175 328 q 231 136 175 197 q 376 75 288 75 q 482 102 436 75 q 554 197 528 129 q 581 390 581 265 q 569 540 581 474 q 488 601 538 576 q 381 625 439 625 q 231 564 288 625 q 175 372 175 503 l 175 328 z "},"%":{"ha":1086,"x_min":40,"x_max":1046,"o":"m 257 476 q 137 510 185 476 q 65 603 89 544 q 40 735 40 663 q 64 867 40 808 q 136 960 88 925 q 257 994 185 994 q 422 922 368 994 q 475 739 475 849 q 451 607 475 667 q 378 512 426 547 q 257 476 331 476 m 135 0 l 839 986 l 950 986 l 246 0 l 135 0 m 257 558 q 348 601 318 558 q 378 713 378 644 l 378 758 q 348 870 378 828 q 257 913 318 913 q 167 870 197 913 q 138 758 138 828 l 138 713 q 167 601 138 644 q 257 558 197 558 m 828 -8 q 708 26 756 -8 q 635 119 660 60 q 611 250 611 178 q 635 382 611 324 q 707 475 658 440 q 828 510 756 510 q 992 437 939 510 q 1046 254 1046 364 q 1022 122 1046 182 q 949 27 997 63 q 828 -8 901 -8 m 828 74 q 919 117 889 74 q 949 228 949 160 l 949 274 q 919 385 949 343 q 828 428 889 428 q 738 385 768 428 q 708 274 708 343 l 708 228 q 738 117 708 160 q 828 74 768 74 z "},"‰":{"ha":1510,"x_min":43,"x_max":1479,"o":"m 260 476 q 140 510 188 476 q 67 603 92 544 q 43 735 43 663 q 67 867 43 808 q 139 960 90 925 q 260 994 188 994 q 424 922 371 994 q 478 739 478 849 q 453 607 478 667 q 381 512 429 547 q 260 476 333 476 m 110 0 l 814 986 l 925 986 l 221 0 l 110 0 m 260 558 q 351 601 321 558 q 381 713 381 644 l 381 758 q 351 870 381 828 q 260 913 321 913 q 170 870 200 913 q 140 758 140 828 l 140 713 q 170 601 140 644 q 260 558 200 558 m 775 -8 q 655 26 703 -8 q 583 119 607 60 q 558 250 558 178 q 582 382 558 324 q 654 475 606 440 q 775 510 703 510 q 940 437 886 510 q 993 254 993 364 q 969 122 993 182 q 897 27 944 63 q 775 -8 849 -8 m 1261 -8 q 1141 26 1189 -8 q 1069 119 1093 60 q 1044 250 1044 178 q 1068 382 1044 324 q 1140 475 1092 440 q 1261 510 1189 510 q 1426 437 1372 510 q 1479 254 1479 364 q 1455 122 1479 182 q 1383 27 1431 63 q 1261 -8 1335 -8 m 775 74 q 866 117 836 74 q 896 228 896 160 l 896 274 q 866 385 896 343 q 775 428 836 428 q 685 385 715 428 q 656 274 656 343 l 656 228 q 685 117 656 160 q 775 74 715 74 m 1261 74 q 1352 117 1322 74 q 1382 228 1382 160 l 1382 274 q 1352 385 1382 343 q 1261 428 1322 428 q 1172 385 1201 428 q 1142 274 1142 343 l 1142 228 q 1172 117 1142 160 q 1261 74 1201 74 z "},"↑":{"ha":714,"x_min":35,"x_max":679,"o":"m 299 28 l 299 775 l 113 575 l 35 653 l 357 975 l 679 653 l 601 575 l 415 775 l 415 28 l 299 28 z "},"↗":{"ha":810,"x_min":33,"x_max":744,"o":"m 33 247 l 561 776 l 289 767 l 289 876 l 744 876 l 744 421 l 633 421 l 643 694 l 115 165 l 33 247 z "},"→":{"ha":1079,"x_min":67,"x_max":1014,"o":"m 67 528 l 814 528 l 614 714 l 692 792 l 1014 469 l 692 147 l 614 225 l 814 411 l 67 411 l 67 528 z "},"↘":{"ha":815,"x_min":38,"x_max":749,"o":"m 119 832 l 649 304 l 639 576 l 749 576 l 749 121 l 293 121 l 293 232 l 567 222 l 38 750 l 119 832 z "},"↓":{"ha":714,"x_min":35,"x_max":679,"o":"m 113 411 l 299 211 l 299 958 l 415 958 l 415 211 l 601 411 l 679 333 l 357 11 l 35 333 l 113 411 z "},"↙":{"ha":815,"x_min":67,"x_max":778,"o":"m 176 576 l 167 304 l 696 832 l 778 750 l 249 222 l 522 232 l 522 121 l 67 121 l 67 576 l 176 576 z "},"←":{"ha":1086,"x_min":68,"x_max":1015,"o":"m 468 236 l 390 158 l 68 481 l 390 803 l 468 725 l 268 539 l 1015 539 l 1015 422 l 268 422 l 468 236 z "},"↖":{"ha":810,"x_min":65,"x_max":776,"o":"m 776 247 l 694 165 l 167 694 l 176 421 l 65 421 l 65 876 l 521 876 l 521 767 l 249 776 l 776 247 z "},"●":{"ha":1167,"x_min":74,"x_max":1093,"o":"m 583 -17 q 385 23 478 -17 q 223 133 293 63 q 113 295 153 203 q 74 493 74 388 q 113 691 74 599 q 223 853 153 783 q 385 963 293 924 q 583 1003 478 1003 q 781 963 689 1003 q 944 853 874 924 q 1053 691 1014 783 q 1093 493 1093 599 q 1053 295 1093 388 q 944 133 1014 203 q 781 23 874 63 q 583 -17 689 -17 z "},"○":{"ha":1167,"x_min":74,"x_max":1093,"o":"m 583 -17 q 385 23 478 -17 q 223 133 293 63 q 113 295 153 203 q 74 493 74 388 q 113 691 74 599 q 223 853 153 783 q 385 963 293 924 q 583 1003 478 1003 q 781 963 689 1003 q 944 853 874 924 q 1053 691 1014 783 q 1093 493 1093 599 q 1053 295 1093 388 q 944 133 1014 203 q 781 23 874 63 q 583 -17 689 -17 m 583 103 q 735 133 664 103 q 859 217 806 164 q 943 342 913 271 q 974 493 974 413 q 943 644 974 574 q 859 769 913 715 q 735 853 806 822 q 583 883 664 883 q 432 853 503 883 q 308 769 361 822 q 224 644 254 715 q 193 493 193 574 q 224 342 193 413 q 308 217 254 271 q 432 133 361 164 q 583 103 503 103 z "},"◊":{"ha":828,"x_min":64,"x_max":764,"o":"m 185 493 l 414 88 l 643 493 l 414 899 l 185 493 m 347 0 l 64 493 l 347 986 l 481 986 l 764 493 l 481 0 l 347 0 z "},"■":{"ha":1203,"x_min":108,"x_max":1094,"o":"m 108 0 l 108 986 l 1094 986 l 1094 0 l 108 0 z "},"□":{"ha":1203,"x_min":108,"x_max":1094,"o":"m 108 0 l 108 986 l 1094 986 l 1094 0 l 108 0 m 228 119 l 975 119 l 975 867 l 228 867 l 228 119 z "},"̈":{"ha":0,"x_min":0,"x_max":342,"o":"m 226 847 l 226 972 l 342 972 l 342 847 l 226 847 m 0 847 l 0 972 l 115 972 l 115 847 l 0 847 z "},"̇":{"ha":0,"x_min":0,"x_max":115,"o":"m 0 847 l 0 972 l 115 972 l 115 847 l 0 847 z "},"̀":{"ha":0,"x_min":0,"x_max":231,"o":"m 153 794 l 0 1003 l 88 1031 l 231 808 l 153 794 z "},"́":{"ha":0,"x_min":0,"x_max":231,"o":"m 78 794 l 0 808 l 143 1031 l 231 1003 l 78 794 z "},"̋":{"ha":0,"x_min":0,"x_max":436,"o":"m 261 778 l 210 817 l 364 1042 l 436 988 l 261 778 m 51 778 l 0 817 l 154 1042 l 226 988 l 51 778 z "},"̂":{"ha":0,"x_min":0,"x_max":386,"o":"m 0 808 l 144 989 l 242 989 l 386 808 l 288 808 l 194 929 l 99 808 l 0 808 z "},"̌":{"ha":0,"x_min":0,"x_max":386,"o":"m 144 808 l 0 989 l 99 989 l 194 868 l 288 989 l 386 989 l 242 808 l 144 808 z "},"̆":{"ha":0,"x_min":0,"x_max":383,"o":"m 192 808 q 56 859 107 808 q 0 1003 4 910 l 81 1003 q 111 915 85 949 q 192 882 138 882 q 272 915 246 882 q 303 1003 299 949 l 383 1003 q 328 859 379 910 q 192 808 276 808 z "},"̊":{"ha":0,"x_min":0,"x_max":250,"o":"m 125 797 q 36 832 72 797 q 0 918 0 867 q 36 1005 0 971 q 125 1039 72 1039 q 214 1005 178 1039 q 250 918 250 971 q 214 832 250 867 q 125 797 178 797 m 125 856 q 169 874 153 856 q 186 918 186 892 q 169 964 186 946 q 125 982 153 982 q 81 964 99 982 q 64 918 64 946 q 81 874 64 892 q 125 856 99 856 z "},"̃":{"ha":0,"x_min":0,"x_max":393,"o":"m 271 825 q 209 843 235 825 q 163 879 183 861 q 118 897 142 897 q 88 881 100 897 q 72 833 75 865 l 0 833 q 42 936 8 903 q 118 969 76 969 q 185 951 160 969 q 232 915 211 933 q 278 897 253 897 q 308 915 297 897 q 319 961 318 933 l 393 961 q 347 856 383 888 q 271 825 311 825 z "},"̄":{"ha":0,"x_min":0,"x_max":424,"o":"m 0 832 l 0 908 l 424 908 l 424 832 l 0 832 z "},"̒":{"ha":0,"x_min":0,"x_max":122,"o":"m 0 804 l 0 897 l 49 1036 l 117 1036 l 78 919 l 122 919 l 122 804 l 0 804 z "},"̦":{"ha":0,"x_min":0,"x_max":122,"o":"m 6 -336 l 44 -219 l 0 -219 l 0 -104 l 122 -104 l 122 -197 l 74 -336 l 6 -336 z "},"̧":{"ha":0,"x_min":0,"x_max":257,"o":"m 106 -226 q 53 -224 75 -226 q 0 -215 31 -221 l 0 -144 q 71 -153 32 -150 q 138 -151 110 -157 q 165 -126 165 -146 q 141 -101 165 -108 q 56 -85 117 -93 l 58 3 l 139 3 l 140 -40 q 223 -65 189 -46 q 257 -129 257 -83 q 220 -200 257 -174 q 106 -226 183 -226 z "},"̨":{"ha":0,"x_min":0,"x_max":194,"o":"m 194 -219 q 110 -222 156 -228 q 33 -190 65 -217 q 0 -111 0 -162 q 22 -47 0 -74 q 75 3 44 -21 l 75 15 l 167 0 q 118 -40 140 -19 q 96 -90 96 -61 q 128 -140 96 -129 q 194 -147 161 -150 l 194 -219 z "},"¨":{"ha":342,"x_min":0,"x_max":342,"o":"m 226 847 l 226 972 l 342 972 l 342 847 l 226 847 m 0 847 l 0 972 l 115 972 l 115 847 l 0 847 z "},"˙":{"ha":115,"x_min":0,"x_max":115,"o":"m 0 847 l 0 972 l 115 972 l 115 847 l 0 847 z "},"`":{"ha":231,"x_min":0,"x_max":231,"o":"m 153 794 l 0 1003 l 88 1031 l 231 808 l 153 794 z "},"´":{"ha":231,"x_min":0,"x_max":231,"o":"m 78 794 l 0 808 l 143 1031 l 231 1003 l 78 794 z "},"˝":{"ha":436,"x_min":0,"x_max":436,"o":"m 261 778 l 210 817 l 364 1042 l 436 988 l 261 778 m 51 778 l 0 817 l 154 1042 l 226 988 l 51 778 z "},"ˆ":{"ha":386,"x_min":0,"x_max":386,"o":"m 0 808 l 144 989 l 242 989 l 386 808 l 288 808 l 194 929 l 99 808 l 0 808 z "},"ˇ":{"ha":386,"x_min":0,"x_max":386,"o":"m 144 808 l 0 989 l 99 989 l 194 868 l 288 989 l 386 989 l 242 808 l 144 808 z "},"˘":{"ha":383,"x_min":0,"x_max":383,"o":"m 192 808 q 56 859 107 808 q 0 1003 4 910 l 81 1003 q 111 915 85 949 q 192 882 138 882 q 272 915 246 882 q 303 1003 299 949 l 383 1003 q 328 859 379 910 q 192 808 276 808 z "},"˚":{"ha":250,"x_min":0,"x_max":250,"o":"m 125 797 q 36 832 72 797 q 0 918 0 867 q 36 1005 0 971 q 125 1039 72 1039 q 214 1005 178 1039 q 250 918 250 971 q 214 832 250 867 q 125 797 178 797 m 125 856 q 169 874 153 856 q 186 918 186 892 q 169 964 186 946 q 125 982 153 982 q 81 964 99 982 q 64 918 64 946 q 81 874 64 892 q 125 856 99 856 z "},"˜":{"ha":393,"x_min":0,"x_max":393,"o":"m 271 825 q 209 843 235 825 q 163 879 183 861 q 118 897 142 897 q 88 881 100 897 q 72 833 75 865 l 0 833 q 42 936 8 903 q 118 969 76 969 q 185 951 160 969 q 232 915 211 933 q 278 897 253 897 q 308 915 297 897 q 319 961 318 933 l 393 961 q 347 856 383 888 q 271 825 311 825 z "},"¯":{"ha":424,"x_min":0,"x_max":424,"o":"m 0 832 l 0 908 l 424 908 l 424 832 l 0 832 z "},"¸":{"ha":257,"x_min":0,"x_max":257,"o":"m 106 -226 q 53 -224 75 -226 q 0 -215 31 -221 l 0 -144 q 71 -153 32 -150 q 138 -151 110 -157 q 165 -126 165 -146 q 141 -101 165 -108 q 56 -85 117 -93 l 58 3 l 139 3 l 140 -40 q 223 -65 189 -46 q 257 -129 257 -83 q 220 -200 257 -174 q 106 -226 183 -226 z "},"˛":{"ha":194,"x_min":0,"x_max":194,"o":"m 194 -219 q 110 -222 156 -228 q 33 -190 65 -217 q 0 -111 0 -162 q 22 -47 0 -74 q 75 3 44 -21 l 75 15 l 167 0 q 118 -40 140 -19 q 96 -90 96 -61 q 128 -140 96 -129 q 194 -147 161 -150 l 194 -219 z "},"⁄":{"ha":250,"x_min":-272,"x_max":522,"o":"m -272 0 l 428 986 l 522 986 l -178 0 l -272 0 z "},"½":{"ha":1057,"x_min":40,"x_max":1019,"o":"m 40 493 l 40 560 l 172 560 l 172 860 l 40 860 l 40 922 l 118 926 q 172 942 157 929 q 196 986 186 956 l 256 986 l 256 560 l 389 560 l 389 493 l 40 493 m 133 0 l 833 986 l 928 986 l 228 0 l 133 0 m 667 0 l 667 58 l 843 221 q 907 285 883 257 q 931 354 931 314 q 907 413 931 392 q 836 435 883 435 q 758 402 781 435 q 739 317 735 369 l 661 321 q 702 452 654 403 q 838 501 750 501 q 965 462 919 501 q 1011 354 1011 422 q 979 258 1011 297 q 903 178 947 218 l 781 67 l 1019 67 l 1019 0 l 667 0 z "},"⅓":{"ha":1072,"x_min":40,"x_max":1032,"o":"m 40 493 l 40 560 l 172 560 l 172 860 l 40 860 l 40 922 l 118 926 q 172 942 157 929 q 196 986 186 956 l 256 986 l 256 560 l 389 560 l 389 493 l 40 493 m 133 0 l 833 986 l 928 986 l 228 0 l 133 0 m 844 -8 q 707 35 754 -8 q 653 144 660 79 l 728 150 q 760 82 733 108 q 843 56 788 56 q 925 79 899 56 q 951 138 951 103 q 924 197 951 174 q 847 219 897 219 l 771 219 l 771 283 l 847 283 q 920 307 897 283 q 943 361 943 331 q 915 419 943 400 q 840 438 886 438 q 762 413 786 438 q 733 351 738 389 l 658 356 q 711 459 665 417 q 846 501 757 501 q 976 463 931 501 q 1022 368 1022 425 q 992 292 1022 319 q 925 253 963 264 q 997 218 961 246 q 1032 135 1032 190 q 985 35 1032 79 q 844 -8 939 -8 z "},"⅔":{"ha":1094,"x_min":32,"x_max":1054,"o":"m 44 493 l 44 551 l 221 714 q 285 778 261 750 q 308 847 308 807 q 285 906 308 885 q 214 928 261 928 q 135 895 158 928 q 117 810 113 863 l 39 814 q 80 945 32 896 q 215 994 128 994 q 343 955 297 994 q 389 847 389 915 q 357 751 389 790 q 281 671 325 711 l 158 560 l 397 560 l 397 493 l 44 493 m 156 0 l 856 986 l 950 986 l 250 0 l 156 0 m 867 -8 q 729 35 776 -8 q 675 144 682 79 l 750 150 q 783 82 756 108 q 865 56 810 56 q 947 79 921 56 q 974 138 974 103 q 947 197 974 174 q 869 219 919 219 l 793 219 l 793 283 l 869 283 q 942 307 919 283 q 965 361 965 331 q 937 419 965 400 q 863 438 908 438 q 784 413 808 438 q 756 351 760 389 l 681 356 q 733 459 688 417 q 868 501 779 501 q 999 463 953 501 q 1044 368 1044 425 q 1015 292 1044 319 q 947 253 985 264 q 1019 218 983 246 q 1054 135 1054 190 q 1008 35 1054 79 q 867 -8 961 -8 z "},"¼":{"ha":1054,"x_min":40,"x_max":1031,"o":"m 40 493 l 40 560 l 172 560 l 172 860 l 40 860 l 40 922 l 118 926 q 172 942 157 929 q 196 986 186 956 l 256 986 l 256 560 l 389 560 l 389 493 l 40 493 m 133 0 l 833 986 l 928 986 l 228 0 l 133 0 m 601 113 l 601 172 l 838 493 l 943 493 l 943 179 l 1031 179 l 1031 113 l 943 113 l 943 0 l 861 0 l 861 113 l 601 113 m 688 179 l 861 179 l 861 417 l 688 179 z "},"¾":{"ha":1067,"x_min":32,"x_max":1043,"o":"m 224 485 q 86 528 133 485 q 32 638 39 572 l 107 643 q 140 575 113 601 q 222 549 167 549 q 304 572 278 549 q 331 631 331 596 q 303 690 331 667 q 226 713 276 713 l 150 713 l 150 776 l 226 776 q 299 800 276 776 q 322 854 322 824 q 294 912 322 893 q 219 931 265 931 q 141 906 165 931 q 113 844 117 882 l 38 849 q 90 952 44 910 q 225 994 136 994 q 356 956 310 994 q 401 861 401 918 q 372 785 401 813 q 304 746 342 757 q 376 711 340 739 q 411 628 411 683 q 365 528 411 572 q 224 485 318 485 m 146 0 l 846 986 l 940 986 l 240 0 l 146 0 m 614 113 l 614 172 l 850 493 l 956 493 l 956 179 l 1043 179 l 1043 113 l 956 113 l 956 0 l 874 0 l 874 113 l 614 113 m 700 179 l 874 179 l 874 417 l 700 179 z "},"⅕":{"ha":1082,"x_min":40,"x_max":1049,"o":"m 40 493 l 40 560 l 172 560 l 172 860 l 40 860 l 40 922 l 118 926 q 172 942 157 929 q 196 986 186 956 l 256 986 l 256 560 l 389 560 l 389 493 l 40 493 m 133 0 l 833 986 l 928 986 l 228 0 l 133 0 m 857 -8 q 725 33 775 -8 q 668 139 675 75 l 746 144 q 781 80 753 104 q 857 56 810 56 q 937 87 910 56 q 964 164 964 118 q 937 240 964 208 q 860 271 910 271 q 797 255 822 271 q 754 211 771 239 l 686 219 l 700 493 l 1014 493 l 1014 426 l 768 426 l 760 292 q 808 323 779 311 q 875 335 838 335 q 1001 287 953 335 q 1049 167 1049 239 q 998 43 1049 94 q 857 -8 947 -8 z "},"⅖":{"ha":1104,"x_min":32,"x_max":1071,"o":"m 44 493 l 44 551 l 221 714 q 285 778 261 750 q 308 847 308 807 q 285 906 308 885 q 214 928 261 928 q 135 895 158 928 q 117 810 113 863 l 39 814 q 80 945 32 896 q 215 994 128 994 q 343 955 297 994 q 389 847 389 915 q 357 751 389 790 q 281 671 325 711 l 158 560 l 397 560 l 397 493 l 44 493 m 156 0 l 856 986 l 950 986 l 250 0 l 156 0 m 879 -8 q 747 33 797 -8 q 690 139 697 75 l 768 144 q 803 80 775 104 q 879 56 832 56 q 959 87 932 56 q 986 164 986 118 q 959 240 986 208 q 882 271 932 271 q 819 255 844 271 q 776 211 793 239 l 708 219 l 722 493 l 1036 493 l 1036 426 l 790 426 l 782 292 q 831 323 801 311 q 897 335 860 335 q 1023 287 975 335 q 1071 167 1071 239 q 1020 43 1071 94 q 879 -8 969 -8 z "},"⅗":{"ha":1094,"x_min":32,"x_max":1061,"o":"m 224 485 q 86 528 133 485 q 32 638 39 572 l 107 643 q 140 575 113 601 q 222 549 167 549 q 304 572 278 549 q 331 631 331 596 q 303 690 331 667 q 226 713 276 713 l 150 713 l 150 776 l 226 776 q 299 800 276 776 q 322 854 322 824 q 294 912 322 893 q 219 931 265 931 q 141 906 165 931 q 113 844 117 882 l 38 849 q 90 952 44 910 q 225 994 136 994 q 356 956 310 994 q 401 861 401 918 q 372 785 401 813 q 304 746 342 757 q 376 711 340 739 q 411 628 411 683 q 365 528 411 572 q 224 485 318 485 m 146 0 l 846 986 l 940 986 l 240 0 l 146 0 m 869 -8 q 738 33 788 -8 q 681 139 688 75 l 758 144 q 794 80 765 104 q 869 56 822 56 q 949 87 922 56 q 976 164 976 118 q 949 240 976 208 q 872 271 922 271 q 809 255 835 271 q 767 211 783 239 l 699 219 l 713 493 l 1026 493 l 1026 426 l 781 426 l 772 292 q 821 323 792 311 q 888 335 850 335 q 1013 287 965 335 q 1061 167 1061 239 q 1010 43 1061 94 q 869 -8 960 -8 z "},"⅘":{"ha":1124,"x_min":28,"x_max":1090,"o":"m 28 606 l 28 665 l 264 986 l 369 986 l 369 672 l 457 672 l 457 606 l 369 606 l 369 493 l 288 493 l 288 606 l 28 606 m 114 672 l 288 672 l 288 910 l 114 672 m 175 0 l 875 986 l 969 986 l 269 0 l 175 0 m 899 -8 q 767 33 817 -8 q 710 139 717 75 l 788 144 q 823 80 794 104 q 899 56 851 56 q 978 87 951 56 q 1006 164 1006 118 q 978 240 1006 208 q 901 271 951 271 q 838 255 864 271 q 796 211 813 239 l 728 219 l 742 493 l 1056 493 l 1056 426 l 810 426 l 801 292 q 850 323 821 311 q 917 335 879 335 q 1042 287 994 335 q 1090 167 1090 239 q 1040 43 1090 94 q 899 -8 989 -8 z "},"⅙":{"ha":1081,"x_min":40,"x_max":1043,"o":"m 40 493 l 40 560 l 172 560 l 172 860 l 40 860 l 40 922 l 118 926 q 172 942 157 929 q 196 986 186 956 l 256 986 l 256 560 l 389 560 l 389 493 l 40 493 m 133 0 l 833 986 l 928 986 l 228 0 l 133 0 m 856 -8 q 705 58 758 -8 q 651 232 651 124 q 672 360 651 299 q 741 462 693 422 q 869 501 789 501 q 984 465 944 501 q 1038 378 1024 429 l 965 363 q 931 417 954 397 q 865 438 907 438 q 768 388 799 438 q 733 247 738 339 q 797 300 760 285 q 872 315 835 315 q 998 269 953 315 q 1043 158 1043 224 q 993 40 1043 89 q 856 -8 943 -8 m 857 56 q 935 86 908 56 q 963 154 963 117 q 935 223 963 193 q 854 253 908 253 q 777 228 810 253 q 744 153 744 204 q 774 85 744 115 q 857 56 803 56 z "},"⅚":{"ha":1089,"x_min":35,"x_max":1051,"o":"m 224 485 q 92 526 142 485 q 35 632 42 568 l 113 638 q 148 573 119 597 q 224 549 176 549 q 303 580 276 549 q 331 657 331 611 q 303 733 331 701 q 226 764 276 764 q 163 748 189 764 q 121 704 138 732 l 53 713 l 67 986 l 381 986 l 381 919 l 135 919 l 126 785 q 175 816 146 804 q 242 828 204 828 q 367 780 319 828 q 415 660 415 732 q 365 536 415 588 q 224 485 314 485 m 142 0 l 842 986 l 936 986 l 236 0 l 142 0 m 864 -8 q 713 58 767 -8 q 660 232 660 124 q 681 360 660 299 q 749 462 701 422 q 878 501 797 501 q 992 465 953 501 q 1046 378 1032 429 l 974 363 q 939 417 963 397 q 874 438 915 438 q 776 388 807 438 q 742 247 746 339 q 806 300 768 285 q 881 315 843 315 q 1006 269 961 315 q 1051 158 1051 224 q 1001 40 1051 89 q 864 -8 951 -8 m 865 56 q 944 86 917 56 q 971 154 971 117 q 944 223 971 193 q 863 253 917 253 q 785 228 818 253 q 753 153 753 204 q 782 85 753 115 q 865 56 811 56 z "},"⅛":{"ha":1072,"x_min":40,"x_max":1035,"o":"m 40 493 l 40 560 l 172 560 l 172 860 l 40 860 l 40 922 l 118 926 q 172 942 157 929 q 196 986 186 956 l 256 986 l 256 560 l 389 560 l 389 493 l 40 493 m 133 0 l 833 986 l 928 986 l 228 0 l 133 0 m 842 -8 q 749 6 793 -8 q 676 52 704 21 q 649 131 649 83 q 678 206 649 178 q 750 251 708 233 q 689 303 707 274 q 671 369 671 332 q 722 468 671 435 q 842 501 774 501 q 961 469 910 501 q 1013 372 1013 438 q 994 306 1013 333 q 939 260 975 279 q 1008 213 981 242 q 1035 133 1035 183 q 979 28 1035 65 q 842 -8 924 -8 m 817 297 l 865 283 q 919 325 903 303 q 935 372 935 347 q 913 419 935 400 q 842 438 890 438 q 772 419 794 438 q 749 372 749 400 q 817 297 749 317 m 728 131 q 762 74 728 92 q 842 56 796 56 q 920 74 886 56 q 954 131 954 92 q 932 180 954 163 q 874 208 910 197 l 819 225 q 728 131 728 190 z "},"⅜":{"ha":1085,"x_min":32,"x_max":1047,"o":"m 224 485 q 86 528 133 485 q 32 638 39 572 l 107 643 q 140 575 113 601 q 222 549 167 549 q 304 572 278 549 q 331 631 331 596 q 303 690 331 667 q 226 713 276 713 l 150 713 l 150 776 l 226 776 q 299 800 276 776 q 322 854 322 824 q 294 912 322 893 q 219 931 265 931 q 141 906 165 931 q 113 844 117 882 l 38 849 q 90 952 44 910 q 225 994 136 994 q 356 956 310 994 q 401 861 401 918 q 372 785 401 813 q 304 746 342 757 q 376 711 340 739 q 411 628 411 683 q 365 528 411 572 q 224 485 318 485 m 146 0 l 846 986 l 940 986 l 240 0 l 146 0 m 854 -8 q 761 6 806 -8 q 689 52 717 21 q 661 131 661 83 q 691 206 661 178 q 763 251 721 233 q 701 303 719 274 q 683 369 683 332 q 735 468 683 435 q 854 501 786 501 q 974 469 922 501 q 1025 372 1025 438 q 1006 306 1025 333 q 951 260 988 279 q 1020 213 993 242 q 1047 133 1047 183 q 992 28 1047 65 q 854 -8 936 -8 m 829 297 l 878 283 q 931 325 915 303 q 947 372 947 347 q 925 419 947 400 q 854 438 903 438 q 784 419 807 438 q 761 372 761 400 q 829 297 761 317 m 740 131 q 774 74 740 92 q 854 56 808 56 q 933 74 899 56 q 967 131 967 92 q 944 180 967 163 q 886 208 922 197 l 832 225 q 740 131 740 190 z "},"⅝":{"ha":1081,"x_min":35,"x_max":1043,"o":"m 224 485 q 92 526 142 485 q 35 632 42 568 l 113 638 q 148 573 119 597 q 224 549 176 549 q 303 580 276 549 q 331 657 331 611 q 303 733 331 701 q 226 764 276 764 q 163 748 189 764 q 121 704 138 732 l 53 713 l 67 986 l 381 986 l 381 919 l 135 919 l 126 785 q 175 816 146 804 q 242 828 204 828 q 367 780 319 828 q 415 660 415 732 q 365 536 415 588 q 224 485 314 485 m 142 0 l 842 986 l 936 986 l 236 0 l 142 0 m 850 -8 q 757 6 801 -8 q 685 52 713 21 q 657 131 657 83 q 687 206 657 178 q 758 251 717 233 q 697 303 715 274 q 679 369 679 332 q 731 468 679 435 q 850 501 782 501 q 969 469 918 501 q 1021 372 1021 438 q 1002 306 1021 333 q 947 260 983 279 q 1016 213 989 242 q 1043 133 1043 183 q 988 28 1043 65 q 850 -8 932 -8 m 825 297 l 874 283 q 927 325 911 303 q 943 372 943 347 q 921 419 943 400 q 850 438 899 438 q 780 419 803 438 q 757 372 757 400 q 825 297 757 317 m 736 131 q 770 74 736 92 q 850 56 804 56 q 928 74 894 56 q 963 131 963 92 q 940 180 963 163 q 882 208 918 197 l 828 225 q 736 131 736 190 z "},"⅞":{"ha":982,"x_min":18,"x_max":944,"o":"m 90 493 l 281 918 l 18 918 l 18 986 l 374 986 l 374 938 l 175 493 l 90 493 m 43 0 l 743 986 l 838 986 l 138 0 l 43 0 m 751 -8 q 658 6 703 -8 q 586 52 614 21 q 558 131 558 83 q 588 206 558 178 q 660 251 618 233 q 599 303 617 274 q 581 369 581 332 q 632 468 581 435 q 751 501 683 501 q 871 469 819 501 q 922 372 922 438 q 903 306 922 333 q 849 260 885 279 q 917 213 890 242 q 944 133 944 183 q 889 28 944 65 q 751 -8 833 -8 m 726 297 l 775 283 q 828 325 813 303 q 844 372 844 347 q 822 419 844 400 q 751 438 800 438 q 681 419 704 438 q 658 372 658 400 q 726 297 658 317 m 638 131 q 672 74 638 92 q 751 56 706 56 q 830 74 796 56 q 864 131 864 92 q 842 180 864 163 q 783 208 819 197 l 729 225 q 638 131 638 190 z "},"₀":{"ha":507,"x_min":40,"x_max":467,"o":"m 253 -147 q 135 -113 182 -147 q 64 -22 88 -79 q 40 107 40 35 q 64 237 40 179 q 135 328 88 294 q 253 363 182 363 q 372 328 325 363 q 443 237 419 294 q 467 107 467 179 q 443 -22 467 35 q 372 -113 419 -79 q 253 -147 325 -147 m 253 -79 q 350 -35 318 -79 q 382 83 382 10 l 382 132 q 350 250 382 206 q 253 294 318 294 q 157 250 189 294 q 125 132 125 206 l 125 83 q 157 -35 125 10 q 253 -79 189 -79 z "},"₁":{"ha":404,"x_min":40,"x_max":389,"o":"m 40 -139 l 40 -72 l 172 -72 l 172 228 l 40 228 l 40 290 l 118 294 q 172 310 157 297 q 196 354 186 324 l 256 354 l 256 -72 l 389 -72 l 389 -139 l 40 -139 z "},"₂":{"ha":435,"x_min":32,"x_max":397,"o":"m 44 -139 l 44 -81 l 221 82 q 285 147 261 118 q 308 215 308 175 q 285 274 308 253 q 214 296 261 296 q 135 263 158 296 q 117 178 113 231 l 39 182 q 80 313 32 264 q 215 363 128 363 q 343 323 297 363 q 389 215 389 283 q 357 119 389 158 q 281 39 325 79 l 158 -72 l 397 -72 l 397 -139 l 44 -139 z "},"₃":{"ha":451,"x_min":32,"x_max":411,"o":"m 224 -147 q 86 -103 133 -147 q 32 6 39 -60 l 107 11 q 140 -57 113 -31 q 222 -83 167 -83 q 304 -60 278 -83 q 331 -1 331 -36 q 303 58 331 35 q 226 81 276 81 l 150 81 l 150 144 l 226 144 q 299 168 276 144 q 322 222 322 192 q 294 280 322 261 q 219 299 265 299 q 141 274 165 299 q 113 213 117 250 l 38 217 q 90 320 44 278 q 225 363 136 363 q 356 324 310 363 q 401 229 401 286 q 372 153 401 181 q 304 114 342 125 q 376 79 340 107 q 411 -4 411 51 q 365 -103 411 -60 q 224 -147 318 -147 z "},"₄":{"ha":481,"x_min":28,"x_max":457,"o":"m 28 -26 l 28 33 l 264 354 l 369 354 l 369 40 l 457 40 l 457 -26 l 369 -26 l 369 -139 l 288 -139 l 288 -26 l 28 -26 m 114 40 l 288 40 l 288 278 l 114 40 z "},"₅":{"ha":449,"x_min":35,"x_max":415,"o":"m 224 -147 q 92 -106 142 -147 q 35 0 42 -64 l 113 6 q 148 -59 119 -35 q 224 -83 176 -83 q 303 -52 276 -83 q 331 25 331 -21 q 303 101 331 69 q 226 132 276 132 q 163 116 189 132 q 121 72 138 100 l 53 81 l 67 354 l 381 354 l 381 288 l 135 288 l 126 153 q 175 184 146 172 q 242 196 204 196 q 367 148 319 196 q 415 28 415 100 q 365 -96 415 -44 q 224 -147 314 -147 z "},"₆":{"ha":469,"x_min":40,"x_max":432,"o":"m 244 -147 q 94 -81 147 -147 q 40 93 40 -15 q 61 222 40 160 q 130 323 82 283 q 258 363 178 363 q 373 326 333 363 q 426 239 413 290 l 354 224 q 319 278 343 258 q 254 299 296 299 q 157 249 188 299 q 122 108 126 200 q 186 161 149 146 q 261 176 224 176 q 387 131 342 176 q 432 19 432 85 q 382 -99 432 -50 q 244 -147 332 -147 m 246 -83 q 324 -53 297 -83 q 351 15 351 -22 q 324 84 351 54 q 243 114 297 114 q 166 90 199 114 q 133 14 133 65 q 163 -53 133 -24 q 246 -83 192 -83 z "},"₇":{"ha":396,"x_min":18,"x_max":374,"o":"m 90 -139 l 281 286 l 18 286 l 18 354 l 374 354 l 374 306 l 175 -139 l 90 -139 z "},"₈":{"ha":461,"x_min":38,"x_max":424,"o":"m 231 -147 q 138 -133 182 -147 q 65 -87 93 -118 q 38 -8 38 -56 q 67 67 38 39 q 139 113 97 94 q 78 164 96 135 q 60 231 60 193 q 111 329 60 296 q 231 363 163 363 q 350 331 299 363 q 401 233 401 299 q 383 167 401 194 q 328 121 364 140 q 397 74 369 103 q 424 -6 424 44 q 368 -110 424 -74 q 231 -147 313 -147 m 206 158 l 254 144 q 308 186 292 164 q 324 233 324 208 q 301 280 324 261 q 231 299 279 299 q 160 280 183 299 q 138 233 138 261 q 206 158 138 178 m 117 -8 q 151 -65 117 -47 q 231 -83 185 -83 q 309 -65 275 -83 q 343 -8 343 -47 q 321 41 343 24 q 263 69 299 58 l 208 86 q 117 -8 117 51 z "},"₉":{"ha":463,"x_min":35,"x_max":421,"o":"m 219 -147 q 101 -112 143 -147 q 46 -32 60 -78 l 117 -11 q 151 -61 128 -39 q 219 -83 174 -83 q 313 -33 286 -83 q 340 108 340 17 q 281 58 317 72 q 206 44 244 44 q 80 91 125 44 q 35 197 35 138 q 83 315 35 267 q 217 363 132 363 q 371 296 321 363 q 421 119 421 229 q 403 -8 421 53 q 342 -108 386 -69 q 219 -147 299 -147 m 219 107 q 296 131 264 107 q 328 201 328 154 q 299 269 328 239 q 217 299 269 299 q 142 270 169 299 q 115 201 115 242 q 142 135 115 163 q 219 107 168 107 z "},"⁰":{"ha":507,"x_min":40,"x_max":467,"o":"m 253 561 q 135 595 182 561 q 64 686 88 629 q 40 815 40 743 q 64 945 40 888 q 135 1037 88 1003 q 253 1071 182 1071 q 372 1037 325 1071 q 443 945 419 1003 q 467 815 467 888 q 443 686 467 743 q 372 595 419 629 q 253 561 325 561 m 253 629 q 350 674 318 629 q 382 792 382 718 l 382 840 q 350 958 382 914 q 253 1003 318 1003 q 157 958 189 1003 q 125 840 125 914 l 125 792 q 157 674 125 718 q 253 629 189 629 z "},"¹":{"ha":404,"x_min":40,"x_max":389,"o":"m 40 569 l 40 636 l 172 636 l 172 936 l 40 936 l 40 999 l 118 1003 q 172 1019 157 1006 q 196 1063 186 1032 l 256 1063 l 256 636 l 389 636 l 389 569 l 40 569 z "},"²":{"ha":435,"x_min":32,"x_max":397,"o":"m 44 569 l 44 628 l 221 790 q 285 855 261 826 q 308 924 308 883 q 285 983 308 961 q 214 1004 261 1004 q 135 972 158 1004 q 117 886 113 939 l 39 890 q 80 1022 32 972 q 215 1071 128 1071 q 343 1031 297 1071 q 389 924 389 992 q 357 827 389 867 q 281 747 325 788 l 158 636 l 397 636 l 397 569 l 44 569 z "},"³":{"ha":451,"x_min":32,"x_max":411,"o":"m 224 561 q 86 605 133 561 q 32 714 39 649 l 107 719 q 140 651 113 678 q 222 625 167 625 q 304 649 278 625 q 331 707 331 672 q 303 766 331 743 q 226 789 276 789 l 150 789 l 150 853 l 226 853 q 299 876 276 853 q 322 931 322 900 q 294 988 322 969 q 219 1007 265 1007 q 141 983 165 1007 q 113 921 117 958 l 38 925 q 90 1028 44 986 q 225 1071 136 1071 q 356 1033 310 1071 q 401 938 401 994 q 372 861 401 889 q 304 822 342 833 q 376 788 340 815 q 411 704 411 760 q 365 605 411 649 q 224 561 318 561 z "},"⁴":{"ha":481,"x_min":28,"x_max":457,"o":"m 28 682 l 28 742 l 264 1063 l 369 1063 l 369 749 l 457 749 l 457 682 l 369 682 l 369 569 l 288 569 l 288 682 l 28 682 m 114 749 l 288 749 l 288 986 l 114 749 z "},"⁵":{"ha":449,"x_min":35,"x_max":415,"o":"m 224 561 q 92 603 142 561 q 35 708 42 644 l 113 714 q 148 649 119 674 q 224 625 176 625 q 303 656 276 625 q 331 733 331 688 q 303 809 331 778 q 226 840 276 840 q 163 824 189 840 q 121 781 138 808 l 53 789 l 67 1063 l 381 1063 l 381 996 l 135 996 l 126 861 q 175 892 146 881 q 242 904 204 904 q 367 856 319 904 q 415 736 415 808 q 365 613 415 664 q 224 561 314 561 z "},"⁶":{"ha":469,"x_min":40,"x_max":432,"o":"m 244 561 q 94 627 147 561 q 40 801 40 693 q 61 930 40 868 q 130 1031 82 992 q 258 1071 178 1071 q 373 1035 333 1071 q 426 947 413 999 l 354 932 q 319 987 343 967 q 254 1007 296 1007 q 157 958 188 1007 q 122 817 126 908 q 186 869 149 854 q 261 885 224 885 q 387 839 342 885 q 432 728 432 793 q 382 610 432 658 q 244 561 332 561 m 246 625 q 324 656 297 625 q 351 724 351 686 q 324 792 351 763 q 243 822 297 822 q 166 798 199 822 q 133 722 133 774 q 163 655 133 685 q 246 625 192 625 z "},"⁷":{"ha":396,"x_min":18,"x_max":374,"o":"m 90 569 l 281 994 l 18 994 l 18 1063 l 374 1063 l 374 1014 l 175 569 l 90 569 z "},"⁸":{"ha":461,"x_min":38,"x_max":424,"o":"m 231 561 q 138 576 182 561 q 65 622 93 590 q 38 700 38 653 q 67 775 38 747 q 139 821 97 803 q 78 872 96 843 q 60 939 60 901 q 111 1038 60 1004 q 231 1071 163 1071 q 350 1039 299 1071 q 401 942 401 1007 q 383 876 401 903 q 328 829 364 849 q 397 782 369 811 q 424 703 424 753 q 368 598 424 635 q 231 561 313 561 m 206 867 l 254 853 q 308 894 292 872 q 324 942 324 917 q 301 988 324 969 q 231 1007 279 1007 q 160 988 183 1007 q 138 942 138 969 q 206 867 138 886 m 117 700 q 151 643 117 661 q 231 625 185 625 q 309 643 275 625 q 343 700 343 661 q 321 749 343 732 q 263 778 299 767 l 208 794 q 117 700 117 760 z "},"⁹":{"ha":463,"x_min":35,"x_max":421,"o":"m 219 561 q 101 596 143 561 q 46 676 60 631 l 117 697 q 151 647 128 669 q 219 625 174 625 q 313 675 286 625 q 340 817 340 725 q 281 767 317 781 q 206 753 244 753 q 80 799 125 753 q 35 906 35 846 q 83 1023 35 975 q 217 1071 132 1071 q 371 1004 321 1071 q 421 828 421 938 q 403 700 421 761 q 342 600 386 639 q 219 561 299 561 m 219 815 q 296 839 264 815 q 328 910 328 863 q 299 977 328 947 q 217 1007 269 1007 q 142 978 169 1007 q 115 910 115 950 q 142 843 115 871 q 219 815 168 815 z "}}}
